<?xml version="1.0" encoding="UTF-8" standalone="no"?><!DOCTYPE svg PUBLIC "-//W3C//DTD SVG 1.1//EN" "http://www.w3.org/Graphics/SVG/1.1/DTD/svg11.dtd"><svg width="100%" height="100%" viewBox="0 0 300 210" version="1.1" xmlns="http://www.w3.org/2000/svg" xmlns:xlink="http://www.w3.org/1999/xlink" xml:space="preserve" xmlns:serif="http://www.serif.com/" style="fill-rule:evenodd;clip-rule:evenodd;"><g id="text5596"></g><rect id="Artboard1" x="0" y="0" width="300" height="210" style="fill:none;"/><clipPath id="_clip1"><rect x="0" y="0" width="300" height="210"/></clipPath><g clip-path="url(#_clip1)"><ellipse id="path5482" cx="149.434" cy="103.698" rx="98.407" ry="97.768" style="fill:none;stroke:#000;stroke-width:2.97px;"/><ellipse id="path5504" cx="149.901" cy="103.955" rx="92.79" ry="92.519" style="fill:none;stroke:#000;stroke-width:2.27px;"/><ellipse id="path5506" cx="149.63" cy="104.282" rx="71.512" ry="70.757" style="fill:none;stroke:#000;stroke-width:2.07px;"/><path id="path5508" d="M81.578,100.031l4.464,-15.558l9.2,10.688l-4.058,1.488c2.763,6.617 6.646,12.717 14.07,17.182l17.182,-31.794l5.277,-0.27l0.135,0.812l-17.317,33.958c4.644,2.165 11.34,3.191 22.458,1.759l-0.812,-4.329l13.8,1.217l-9.876,13.394l-1.218,-4.464c-16.859,4.872 -24.182,2.408 -31.929,0.27c-8.669,-6.999 -13.916,-15.824 -17.182,-25.705l-4.194,1.352Z" style="fill-rule:nonzero;stroke:#000;stroke-width:0.29px;"/><path id="path5510" d="M126.495,74.19l0.812,-1.352l-10.553,-5.953l-2.165,1.082l-1.758,0l-2.3,-1.759l0,-3.518l2.976,-2.299l2.841,0.676l1.218,1.488l0.406,1.488l10.823,5.547l3.518,-7.305l-2.706,-3.518l-0.541,-5.006l2.435,-4.329l5.006,-3.518l5.547,-0.27l4.059,2.705l2.57,5.277l-4.329,-0.135l-2.3,-2.571l-3.518,-0.947l-3.382,1.488l-2.029,3.788l1.217,3.789l2.3,1.758l-0.406,2.571l0.136,2.435l-2.842,5.818l1.895,1.353l-1.895,0.947l-2.3,0.812l-4.735,-0.542Z" style="fill-rule:nonzero;stroke:#000;stroke-width:0.29px;"/><path id="path5512" d="M143.001,77.167l1.488,0.135l2.706,-0.541l2.841,2.029l0.271,2.977l-1.488,2.029l-3.247,0.406l-2.436,-1.217l-0.947,-2.706l-2.3,-1.218l3.112,-1.894Z" style="fill-rule:nonzero;stroke:#000;stroke-width:0.29px;"/><path id="path5514" d="M155.989,50.785l0.947,3.247l2.3,-1.489l-1.353,3.112l2.03,0.677l-2.842,0.811l1.083,2.571l-3.653,0l-0.677,-5.818l2.165,-3.111Z" style="fill-rule:nonzero;stroke:#000;stroke-width:0.29px;"/><path id="path5516" d="M152.229,54.24l1.148,2.918l0.24,2.678l-0.574,0.192l-1.388,-1.148l-1.482,-1.292l-0.287,-1.483l-0.287,-1.243l1.578,-0.574l1.052,-0.048Z" style="fill-rule:nonzero;stroke:#000;stroke-width:0.29px;"/><path id="path5518" d="M149.072,56.153l0.431,0.813l-0.239,0.909l-1.387,0.67l-1.579,0.191l-0.335,-1.626l-2.009,-1.913l3.062,0l2.439,1.004l-0.383,-0.048Z" style="fill-rule:nonzero;stroke:#000;stroke-width:0.29px;"/><path id="path5520" d="M150.173,59.215l1.1,1.052l-0.096,1.674l-0.526,1.292l-1.244,1.052l-0.669,-2.535l-0.192,-2.966l1.627,0.431Z" style="fill-rule:nonzero;stroke:#000;stroke-width:0.29px;"/><path id="path5522" d="M145.485,58.784l-0.813,-1.77l-1.627,-1.339l-1.913,-0.287l-1.865,0.717l-0.622,2.105l0.048,0.67l6.792,-0.096Z" style="fill-rule:nonzero;stroke:#000;stroke-width:0.29px;"/><path id="path5524" d="M147.398,59.98l-4.113,0.383l0.574,3.683l0.908,-0.096l1.196,-1.291l1.244,-1.483l0.191,-1.196Z" style="fill-rule:nonzero;stroke:#000;stroke-width:0.29px;"/><path id="path5526" d="M148.068,62.085l0.478,3.539l-1.052,1.818l-3.635,1.865l-0.479,-0.287l0.048,-1.722l2.057,-2.391l2.583,-2.822Z" style="fill-rule:nonzero;stroke:#000;stroke-width:0.29px;"/><path id="path5528" d="M143.38,65.433l-2.391,1.674l1.291,0.287l1.196,-0.861l-0.096,-1.1Z" style="fill-rule:nonzero;stroke:#000;stroke-width:0.29px;"/><path id="path5530" d="M143.045,63.902l-4.831,-2.631l-0.669,1.579l0.191,1.818l1.291,1.291l1.962,-0.239l2.056,-1.818Z" style="fill-rule:nonzero;stroke:#000;stroke-width:0.29px;"/><path id="path5532" d="M142.519,62.563l0,-2.966l-0.622,-0.191l-2.678,0.526l0,0.909l3.3,1.722Z" style="fill-rule:nonzero;stroke:#000;stroke-width:0.29px;"/><path id="path5534" d="M146.968,69.116l-5.836,2.248l-1.722,1.1l-0.622,1.005l1.818,0.622l3.444,-0.192l1.435,-1.1l1.052,-2.057l0.431,-1.626Z" style="fill-rule:nonzero;stroke:#000;stroke-width:0.29px;"/><path id="path5536" d="M136.827,74.569l5.453,0.765l-1.004,1.196l-2.631,1.053l-2.679,-0.192l-1.961,-1.196l-0.478,-0.478l1.1,-0.909l2.2,-0.239Z" style="fill-rule:nonzero;stroke:#000;stroke-width:0.29px;"/><path id="path5538" d="M131.948,76.578l3.827,1.914l-1.818,0.574l-3.444,-0.048l-2.631,-1.531l-1.148,-0.813l0.861,-0.574l4.353,0.478Z" style="fill-rule:nonzero;stroke:#000;stroke-width:0.29px;"/><path id="path5540" d="M124.869,76.865l3.396,2.344l0.717,0.765l-2.248,0.431l-2.344,-0.048l-1.865,-1.052l-2.153,-1.292l-0.861,-0.383l0.909,-0.956l2.488,-0.048l1.961,0.239Z" style="fill-rule:nonzero;stroke:#000;stroke-width:0.29px;"/><path id="path5542" d="M119.081,78.635l3.205,1.961l0.191,0.526l-2.631,0.814l-2.583,-0.67l-3.635,-1.961l-1.292,-0.479l1.435,-0.956l3.684,0.287l1.626,0.478Z" style="fill-rule:nonzero;stroke:#000;stroke-width:0.29px;"/><path id="path5544" d="M112.575,80.309l3.158,1.244l-0.718,1.291l-3.157,0.335l-4.162,-1.148l-1.817,-0.143l0.717,-0.909l1.1,-1.052l2.153,-0.144l2.726,0.718l0,-0.192Z" style="fill-rule:nonzero;stroke:#000;stroke-width:0.29px;"/><path id="path5546" d="M109.084,84.471l-3.827,-1.387l-3.396,0.717l-1.77,2.487l-0.191,0.622l5.309,-0.048l2.535,-1.004l1.34,-1.387Z" style="fill-rule:nonzero;stroke:#000;stroke-width:0.29px;"/><path id="path5548" d="M104.874,87.771l-3.396,0l-2.057,1.244l-1.435,2.248l-0.335,2.009l2.631,-0.574l2.153,-1.291l1.674,-1.77l0.765,-1.866Z" style="fill-rule:nonzero;stroke:#000;stroke-width:0.29px;"/><path id="path5550" d="M102.435,92.842l-1.722,0.095l-1.34,1.196l-1.53,2.44l0,2.487l0.622,2.105l0.621,0.239l0.718,-2.392l1.913,-3.205l0.861,-2.248l0,-0.43l-0.143,-0.287Z" style="fill-rule:nonzero;stroke:#000;stroke-width:0.29px;"/><path id="path5552" d="M102.387,97.577l1.435,3.109l0.717,2.296l-0.239,4.257l-1.817,-0.526l-1.866,-1.961l-0.526,-2.535l0.43,-2.487l1.292,-1.531l0.574,-0.622Z" style="fill-rule:nonzero;stroke:#000;stroke-width:0.29px;"/><path id="path5562" d="M128.648,101.452l2.296,3.922l0.478,0.909l-1.387,0.622l-1.579,0.526l-0.574,-0.861l-1.961,-3.779l2.918,-1.531l-0.191,0.192Z" style="fill-rule:nonzero;stroke:#000;stroke-width:0.29px;"/><path id="path5564" d="M129.556,100.543l0.718,-0.813l0.096,-2.057l1.004,0.526l0.478,1.339l0.574,-0.478l0.24,-0.67l0.621,0.192l-0.287,2.774l0.814,0l0.047,0.861l-0.669,0.048l0.095,1.243l1.962,0.67l0.095,1.196l-3.205,-0.144l-2.583,-4.687Z" style="fill-rule:nonzero;stroke:#000;stroke-width:0.29px;"/><path id="path5568" d="M178.921,76.829l-6.967,-0.136l2.435,-1.691l3.179,-1.082l1.692,0.473l0.338,-0.135l-1.15,-1.285l-4.735,-0.744l-4.939,0.947l-2.976,1.285l-4.532,4.059l-3.586,4.397l-0.473,3.179l1.217,3.788l1.489,1.489l3.653,-2.774l0.202,-1.962l6.9,-5.073l2.774,-2.3l5.479,-2.435Z" style="fill-rule:nonzero;stroke:#000;stroke-width:0.29px;"/><path id="path5572" d="M155.854,98.137l1.556,-3.517l-4.127,-5.886l-0.541,-1.758l0,-2.841l-0.947,0.676l-1.082,4.465l0.473,3.179l1.827,2.706l2.841,2.976Z" style="fill-rule:nonzero;stroke:#000;stroke-width:0.29px;"/><path id="path5574" d="M163.701,106.796l-4.668,-2.503l-1.691,-0.067l-5.412,-2.097l-4.464,-1.895l-1.353,-0.811l-0.677,-0.88l-0.812,0.136l-0.202,1.082l1.42,1.962l3.382,2.435l5.818,1.826l4.465,0.88l4.194,-0.068Z" style="fill-rule:nonzero;stroke:#000;stroke-width:0.29px;"/><path id="path5586" d="M180.41,83.999l1.555,0l1.218,-0.676l0.406,0.135l0.947,0.744l7.171,1.15l5.952,2.977l3.112,2.367l2.774,3.18l1.894,3.585l0,3.72l-1.894,2.639l-4.6,2.638l-3.044,1.218l-2.706,1.758l-3.383,2.909l-4.194,2.233l-6.967,0.676l-4.736,-1.962l-2.638,-2.503l-3.314,-2.3l-3.586,-2.232l-4.87,-2.503l-2.503,-4.194l0.473,-3.45l1.692,-3.044l2.976,-2.435l3.788,-2.571l6.765,-2.774l4.329,-0.676l2.638,-1.556l0.745,0.947Z" style="fill-rule:nonzero;stroke:#000;stroke-width:0.29px;"/><g id="text5619"><path id="path1974" d="M93.537,170.294l2.116,-2.784l0.231,0.176c-0.379,0.859 -0.478,1.661 -0.298,2.409c0.179,0.747 0.569,1.349 1.169,1.805c0.502,0.381 1.071,0.587 1.709,0.617c0.638,0.03 1.231,-0.115 1.778,-0.433c0.702,-0.407 1.331,-0.976 1.887,-1.707c0.546,-0.718 0.954,-1.443 1.222,-2.173c0.266,-0.727 0.321,-1.389 0.165,-1.987c-0.159,-0.595 -0.546,-1.126 -1.162,-1.594c-0.506,-0.385 -1.052,-0.625 -1.638,-0.723c-0.591,-0.1 -1.325,-0.056 -2.202,0.13l0.527,-0.693c0.807,-0.127 1.537,-0.112 2.188,0.047c0.645,0.16 1.293,0.488 1.945,0.984c0.857,0.651 1.488,1.402 1.894,2.253c0.403,0.848 0.541,1.732 0.415,2.652c-0.13,0.917 -0.472,1.738 -1.024,2.465c-0.582,0.766 -1.334,1.341 -2.255,1.725c-0.926,0.38 -1.872,0.502 -2.839,0.365c-0.972,-0.14 -1.84,-0.502 -2.606,-1.084c-0.565,-0.429 -1.068,-1.005 -1.51,-1.727c-0.255,-0.419 -0.432,-0.665 -0.531,-0.74c-0.126,-0.097 -0.269,-0.134 -0.429,-0.112c-0.167,0.023 -0.341,0.124 -0.521,0.305l-0.231,-0.176Z" style="fill-rule:nonzero;"/><path id="path1976" d="M90.178,158.998l2.113,-1.879c0.407,-0.363 0.643,-0.616 0.708,-0.76c0.058,-0.144 0.062,-0.307 0.013,-0.489c-0.049,-0.182 -0.227,-0.446 -0.534,-0.79l0.206,-0.183l3.432,3.858l-0.206,0.183c-0.31,-0.349 -0.55,-0.556 -0.722,-0.622c-0.179,-0.067 -0.342,-0.078 -0.488,-0.034c-0.15,0.04 -0.429,0.242 -0.837,0.605l-4.892,4.352c-0.407,0.362 -0.64,0.616 -0.698,0.76c-0.064,0.144 -0.072,0.307 -0.023,0.489c0.049,0.182 0.227,0.445 0.534,0.79l-0.206,0.183l-3.116,-3.502c-0.811,-0.912 -1.341,-1.635 -1.591,-2.17c-0.25,-0.534 -0.323,-1.087 -0.22,-1.657c0.1,-0.567 0.378,-1.053 0.834,-1.458c0.556,-0.495 1.193,-0.704 1.913,-0.627c0.457,0.052 0.947,0.256 1.471,0.613l0.94,-4.082c0.118,-0.531 0.174,-0.882 0.167,-1.055c-0.021,-0.254 -0.114,-0.486 -0.281,-0.696l0.205,-0.183l2.112,2.374l-1.274,5.485l0.44,0.495Zm-3.697,3.289l3.302,-2.938l-0.281,-0.317c-0.459,-0.515 -0.848,-0.859 -1.168,-1.032c-0.324,-0.17 -0.673,-0.219 -1.046,-0.146c-0.38,0.073 -0.768,0.286 -1.165,0.639c-0.574,0.511 -0.878,1.023 -0.912,1.538c-0.037,0.511 0.21,1.065 0.741,1.661l0.529,0.595Z" style="fill-rule:nonzero;"/><path id="path1978" d="M83.709,143.172l0.232,-0.149l2.845,4.443l-0.232,0.148l-0.18,-0.282c-0.158,-0.246 -0.329,-0.417 -0.513,-0.511c-0.128,-0.071 -0.282,-0.09 -0.461,-0.058c-0.13,0.018 -0.408,0.164 -0.834,0.437l-5.589,3.58c-0.434,0.278 -0.691,0.475 -0.77,0.59c-0.08,0.116 -0.113,0.27 -0.102,0.463c0.005,0.191 0.084,0.406 0.236,0.644l0.181,0.282l-0.232,0.148l-2.845,-4.442l0.231,-0.148l0.181,0.282c0.158,0.246 0.329,0.416 0.513,0.51c0.128,0.072 0.283,0.093 0.465,0.065c0.13,-0.019 0.408,-0.164 0.834,-0.437l5.589,-3.58c0.434,-0.278 0.691,-0.475 0.77,-0.59c0.077,-0.12 0.112,-0.275 0.108,-0.467c-0.012,-0.193 -0.094,-0.408 -0.246,-0.646l-0.181,-0.282Z" style="fill-rule:nonzero;"/><path id="path1980" d="M69.618,137.464l3.023,-1.475l0.127,0.277c-0.706,0.482 -1.174,1.086 -1.403,1.813c-0.236,0.725 -0.217,1.385 0.056,1.98c0.211,0.46 0.502,0.768 0.874,0.925c0.365,0.155 0.708,0.159 1.028,0.012c0.203,-0.093 0.362,-0.223 0.477,-0.39c0.152,-0.228 0.265,-0.534 0.34,-0.917c0.052,-0.281 0.092,-0.891 0.119,-1.831c0.036,-1.315 0.203,-2.267 0.5,-2.856c0.3,-0.585 0.751,-1.016 1.356,-1.293c0.766,-0.351 1.564,-0.354 2.394,-0.008c0.823,0.343 1.445,0.975 1.867,1.894c0.132,0.289 0.228,0.575 0.287,0.859c0.059,0.284 0.096,0.657 0.112,1.119c0.009,0.258 0.045,0.457 0.109,0.597c0.054,0.117 0.156,0.22 0.306,0.31c0.15,0.089 0.336,0.132 0.558,0.129l0.115,0.25l-3.463,1.587l-0.115,-0.25c0.883,-0.645 1.452,-1.367 1.708,-2.166c0.249,-0.802 0.224,-1.53 -0.075,-2.184c-0.232,-0.505 -0.553,-0.843 -0.965,-1.015c-0.413,-0.176 -0.803,-0.18 -1.168,-0.013c-0.216,0.099 -0.399,0.254 -0.548,0.464c-0.152,0.206 -0.264,0.468 -0.337,0.785c-0.077,0.319 -0.126,0.843 -0.146,1.573c-0.028,1.022 -0.103,1.782 -0.224,2.28c-0.122,0.497 -0.315,0.927 -0.58,1.288c-0.268,0.358 -0.615,0.634 -1.044,0.831c-0.73,0.334 -1.476,0.351 -2.236,0.05c-0.76,-0.301 -1.327,-0.86 -1.701,-1.676c-0.136,-0.297 -0.232,-0.603 -0.288,-0.915c-0.043,-0.237 -0.059,-0.54 -0.049,-0.911c0.004,-0.373 -0.022,-0.62 -0.078,-0.742c-0.054,-0.117 -0.132,-0.193 -0.235,-0.227c-0.104,-0.035 -0.306,-0.018 -0.608,0.049l-0.093,-0.203Z" style="fill-rule:nonzero;"/><path id="path1982" d="M66.891,126.981l3.999,-1.089l-0.076,-0.28c-0.118,-0.431 -0.278,-0.765 -0.481,-1.002c-0.204,-0.238 -0.484,-0.409 -0.841,-0.512c-0.359,-0.108 -0.807,-0.12 -1.344,-0.035l-0.068,-0.251l4.889,-1.331l0.068,0.251c-0.899,0.342 -1.439,0.757 -1.62,1.243c-0.187,0.483 -0.211,0.98 -0.072,1.492l0.076,0.28l2.98,-0.811c0.497,-0.135 0.801,-0.246 0.911,-0.333c0.109,-0.091 0.19,-0.229 0.243,-0.413c0.046,-0.187 0.033,-0.417 -0.042,-0.69l-0.088,-0.323l0.266,-0.073l1.386,5.091l-0.266,0.072l-0.088,-0.323c-0.077,-0.283 -0.189,-0.496 -0.336,-0.641c-0.101,-0.106 -0.242,-0.171 -0.423,-0.193c-0.129,-0.022 -0.438,0.034 -0.926,0.167l-6.404,1.743c-0.498,0.136 -0.802,0.247 -0.912,0.333c-0.11,0.087 -0.188,0.224 -0.235,0.411c-0.053,0.184 -0.042,0.413 0.032,0.685l0.088,0.324l-0.265,0.072l-2.236,-8.213l2.792,-0.761l0.081,0.295c-0.638,0.245 -1.077,0.55 -1.317,0.913c-0.242,0.359 -0.356,0.817 -0.343,1.374c0.006,0.307 0.115,0.848 0.326,1.623l0.246,0.905Z" style="fill-rule:nonzero;"/><path id="path1984" d="M73.213,110.505l0.273,-0.033l0.635,5.237l-0.274,0.033l-0.04,-0.332c-0.035,-0.291 -0.115,-0.518 -0.24,-0.683c-0.085,-0.12 -0.215,-0.204 -0.39,-0.253c-0.125,-0.04 -0.439,-0.029 -0.941,0.032l-6.589,0.798c-0.512,0.062 -0.829,0.128 -0.95,0.197c-0.122,0.07 -0.219,0.194 -0.292,0.373c-0.079,0.175 -0.102,0.402 -0.068,0.683l0.041,0.332l-0.274,0.033l-0.634,-5.237l0.273,-0.033l0.041,0.333c0.035,0.29 0.115,0.518 0.24,0.682c0.084,0.12 0.215,0.207 0.391,0.26c0.125,0.04 0.438,0.03 0.94,-0.031l6.589,-0.798c0.512,-0.062 0.829,-0.128 0.951,-0.198c0.121,-0.074 0.22,-0.199 0.299,-0.373c0.074,-0.179 0.093,-0.409 0.059,-0.69l-0.04,-0.332Z" style="fill-rule:nonzero;"/><path id="path1986" d="M63.736,102.138l4.106,0.116l0.005,-0.201c0.018,-0.64 -0.169,-1.109 -0.563,-1.408c-0.393,-0.299 -0.981,-0.499 -1.762,-0.6l0.008,-0.283l5.281,0.149l-0.008,0.283c-0.577,0.043 -1.052,0.156 -1.424,0.339c-0.372,0.178 -0.624,0.392 -0.755,0.641c-0.136,0.25 -0.211,0.615 -0.225,1.096l2.842,0.08c0.555,0.016 0.895,0.003 1.02,-0.038c0.126,-0.046 0.23,-0.133 0.313,-0.259c0.083,-0.127 0.128,-0.334 0.137,-0.622l0.017,-0.602c0.026,-0.942 -0.171,-1.702 -0.591,-2.28c-0.42,-0.582 -1.073,-1.01 -1.959,-1.283l0.008,-0.275l3.193,0.544l-0.246,8.717l-0.276,-0.008l0.01,-0.335c0.008,-0.292 -0.037,-0.529 -0.136,-0.711c-0.066,-0.131 -0.182,-0.233 -0.349,-0.307c-0.117,-0.058 -0.429,-0.094 -0.935,-0.109l-6.634,-0.187c-0.456,-0.013 -0.737,-0.009 -0.842,0.013c-0.175,0.045 -0.311,0.133 -0.409,0.264c-0.144,0.185 -0.221,0.44 -0.23,0.768l-0.01,0.334l-0.275,-0.007l0.239,-8.442l2.982,0.084l-0.008,0.283c-0.733,0.123 -1.261,0.312 -1.586,0.565c-0.325,0.249 -0.568,0.61 -0.731,1.081c-0.097,0.276 -0.156,0.795 -0.178,1.559l-0.029,1.041Z" style="fill-rule:nonzero;"/><path id="path1988" d="M72.366,82.511l3.387,1.102l-1.847,8.766l-0.269,-0.057l0.069,-0.328c0.06,-0.286 0.058,-0.527 -0.008,-0.724c-0.041,-0.14 -0.137,-0.262 -0.288,-0.364c-0.105,-0.078 -0.405,-0.17 -0.9,-0.274l-6.495,-1.368c-0.504,-0.107 -0.825,-0.146 -0.963,-0.12c-0.137,0.027 -0.27,0.113 -0.397,0.259c-0.13,0.14 -0.225,0.348 -0.283,0.625l-0.069,0.327l-0.27,-0.056l1.109,-5.264l0.27,0.056l-0.091,0.43c-0.06,0.286 -0.058,0.528 0.007,0.724c0.042,0.14 0.137,0.264 0.287,0.372c0.105,0.078 0.405,0.169 0.901,0.273l6.29,1.326c0.505,0.106 0.834,0.145 0.987,0.116c0.148,-0.029 0.274,-0.122 0.378,-0.277c0.069,-0.113 0.153,-0.402 0.251,-0.868l0.173,-0.822c0.111,-0.525 0.11,-0.981 0,-1.369c-0.111,-0.388 -0.339,-0.751 -0.684,-1.087c-0.344,-0.341 -0.88,-0.708 -1.608,-1.099l0.063,-0.299Z" style="fill-rule:nonzero;"/><path id="path1990" d="M77.112,78.873l-0.254,-0.106l0.129,-0.309c0.113,-0.27 0.157,-0.493 0.134,-0.67c-0.026,-0.182 -0.098,-0.339 -0.215,-0.469c-0.079,-0.081 -0.359,-0.222 -0.84,-0.422l-6.125,-2.555c-0.477,-0.199 -0.785,-0.297 -0.925,-0.297c-0.14,0.001 -0.286,0.061 -0.438,0.18c-0.154,0.113 -0.286,0.3 -0.395,0.561l-0.129,0.309l-0.254,-0.106l1.739,-4.168c0.464,-1.113 0.988,-1.945 1.573,-2.496c0.716,-0.674 1.539,-1.068 2.467,-1.18c0.93,-0.117 1.869,0.022 2.817,0.417c0.655,0.273 1.215,0.63 1.681,1.072c0.462,0.44 0.804,0.902 1.026,1.387c0.218,0.483 0.345,0.99 0.381,1.521c0.034,0.525 -0.021,1.128 -0.166,1.81c-0.061,0.302 -0.217,0.753 -0.467,1.352l-1.739,4.169Zm-7.302,-7.214l7.265,3.031c0.385,0.16 0.628,0.24 0.731,0.24c0.102,-0.001 0.194,-0.035 0.276,-0.103c0.12,-0.095 0.229,-0.259 0.326,-0.492c0.319,-0.765 0.302,-1.458 -0.052,-2.078c-0.476,-0.843 -1.456,-1.575 -2.939,-2.193c-1.195,-0.498 -2.228,-0.709 -3.098,-0.631c-0.683,0.064 -1.223,0.288 -1.619,0.671c-0.279,0.27 -0.576,0.789 -0.89,1.555Z" style="fill-rule:nonzero;"/><path id="path1992" d="M85.261,45.105l2.718,2.201l-0.183,0.225c-0.847,-0.404 -1.646,-0.529 -2.399,-0.372c-0.752,0.157 -1.365,0.528 -1.84,1.114c-0.397,0.489 -0.62,1.052 -0.669,1.689c-0.05,0.636 0.076,1.233 0.378,1.791c0.386,0.714 0.935,1.36 1.648,1.937c0.702,0.569 1.413,0.998 2.135,1.289c0.718,0.288 1.378,0.363 1.981,0.226c0.599,-0.141 1.142,-0.511 1.629,-1.113c0.4,-0.493 0.657,-1.032 0.772,-1.615c0.118,-0.587 0.098,-1.322 -0.062,-2.205l0.676,0.548c0.103,0.811 0.065,1.54 -0.114,2.186c-0.18,0.64 -0.527,1.278 -1.042,1.914c-0.678,0.836 -1.448,1.444 -2.311,1.824c-0.86,0.376 -1.747,0.487 -2.663,0.333c-0.912,-0.158 -1.723,-0.525 -2.432,-1.099c-0.748,-0.606 -1.3,-1.375 -1.655,-2.307c-0.352,-0.937 -0.445,-1.886 -0.278,-2.849c0.17,-0.967 0.558,-1.824 1.163,-2.572c0.447,-0.551 1.038,-1.036 1.773,-1.456c0.426,-0.242 0.678,-0.411 0.756,-0.507c0.1,-0.124 0.142,-0.266 0.125,-0.426c-0.018,-0.168 -0.114,-0.344 -0.289,-0.531l0.183,-0.225Z" style="fill-rule:nonzero;"/><path id="path1994" d="M96.616,41.778l1.991,2.409c0.329,0.397 0.555,0.628 0.68,0.693c0.128,0.062 0.286,0.078 0.476,0.051c0.19,-0.035 0.394,-0.143 0.612,-0.323l0.258,-0.213l0.175,0.212l-4.066,3.361l-0.175,-0.212l0.258,-0.213c0.226,-0.187 0.374,-0.377 0.445,-0.571c0.055,-0.136 0.056,-0.291 0.002,-0.465c-0.034,-0.126 -0.212,-0.385 -0.534,-0.775l-4.229,-5.115c-0.329,-0.397 -0.555,-0.629 -0.68,-0.693c-0.124,-0.065 -0.281,-0.08 -0.471,-0.045c-0.189,0.028 -0.393,0.132 -0.611,0.312l-0.258,0.213l-0.176,-0.212l4.066,-3.361l0.176,0.212l-0.258,0.213c-0.226,0.187 -0.374,0.377 -0.446,0.571c-0.055,0.136 -0.057,0.292 -0.007,0.47c0.034,0.126 0.212,0.385 0.534,0.775l1.821,2.202l2.747,-2.271l-1.821,-2.202c-0.329,-0.398 -0.555,-0.629 -0.679,-0.694c-0.125,-0.064 -0.282,-0.079 -0.472,-0.044c-0.193,0.031 -0.399,0.136 -0.616,0.316l-0.253,0.209l-0.175,-0.212l4.06,-3.357l0.175,0.212l-0.252,0.209c-0.229,0.19 -0.378,0.38 -0.445,0.571c-0.055,0.135 -0.058,0.292 -0.008,0.469c0.034,0.127 0.212,0.385 0.534,0.775l4.229,5.115c0.329,0.398 0.556,0.629 0.68,0.694c0.124,0.064 0.283,0.081 0.476,0.05c0.19,-0.035 0.394,-0.142 0.612,-0.322l0.252,-0.209l0.176,0.212l-4.06,3.357l-0.176,-0.212l0.252,-0.209c0.23,-0.19 0.378,-0.38 0.446,-0.571c0.055,-0.136 0.057,-0.292 0.007,-0.469c-0.034,-0.127 -0.212,-0.385 -0.534,-0.775l-1.991,-2.409l-2.747,2.271Z" style="fill-rule:nonzero;"/><path id="path1996" d="M113.108,32.985l-3.146,1.676l0.088,1.066c0.031,0.354 0.097,0.625 0.197,0.814c0.133,0.249 0.332,0.379 0.596,0.39c0.156,0.007 0.475,-0.095 0.958,-0.308l0.129,0.243l-2.961,1.578l-0.13,-0.243c0.294,-0.218 0.487,-0.489 0.578,-0.813c0.089,-0.329 0.104,-0.913 0.045,-1.752l-0.601,-8.802l0.124,-0.067l7.102,5.591c0.675,0.528 1.159,0.83 1.452,0.904c0.221,0.057 0.473,0.024 0.756,-0.099l0.13,0.243l-4.308,2.295l-0.13,-0.243l0.178,-0.094c0.346,-0.185 0.563,-0.362 0.652,-0.533c0.059,-0.121 0.053,-0.248 -0.017,-0.379c-0.042,-0.079 -0.098,-0.153 -0.169,-0.222c-0.029,-0.035 -0.183,-0.164 -0.459,-0.388l-1.064,-0.857Zm-0.482,-0.367l-2.961,-2.36l0.268,3.794l2.693,-1.434Z" style="fill-rule:nonzero;"/><path id="path1998" d="M128.314,26.435l0.881,-7.139l3.961,-1.086l0.073,0.266l-0.316,0.086c-0.287,0.079 -0.503,0.192 -0.647,0.34c-0.102,0.1 -0.166,0.238 -0.195,0.416c-0.021,0.129 0.035,0.435 0.167,0.918l1.759,6.415c0.137,0.498 0.248,0.802 0.335,0.912c0.087,0.11 0.224,0.19 0.413,0.241c0.188,0.046 0.418,0.032 0.691,-0.043l0.315,-0.086l0.073,0.265l-5.08,1.393l-0.073,-0.265l0.316,-0.087c0.287,-0.078 0.503,-0.192 0.647,-0.339c0.102,-0.1 0.166,-0.241 0.193,-0.423c0.021,-0.13 -0.035,-0.438 -0.169,-0.926l-1.978,-7.212l-1.297,9.9l-0.172,0.047l-6.205,-7.773l1.879,6.853c0.131,0.478 0.224,0.769 0.278,0.873c0.128,0.222 0.315,0.381 0.563,0.478c0.251,0.091 0.599,0.075 1.044,-0.047l0.073,0.265l-3.33,0.913l-0.073,-0.265l0.101,-0.028c0.217,-0.054 0.408,-0.143 0.575,-0.265c0.166,-0.128 0.279,-0.267 0.341,-0.418c0.061,-0.151 0.088,-0.345 0.079,-0.585c-0.005,-0.055 -0.067,-0.3 -0.187,-0.736l-1.688,-6.156c-0.135,-0.493 -0.245,-0.792 -0.331,-0.897c-0.086,-0.11 -0.224,-0.188 -0.411,-0.235c-0.189,-0.051 -0.42,-0.039 -0.692,0.036l-0.309,0.085l-0.073,-0.266l3.975,-1.09l4.494,5.665Z" style="fill-rule:nonzero;"/><path id="path2000" d="M146.512,21.773c0.968,0.173 1.653,0.408 2.056,0.705c0.579,0.422 0.886,0.992 0.924,1.71c0.039,0.758 -0.233,1.4 -0.816,1.928c-0.717,0.638 -1.788,0.994 -3.215,1.069l-5.12,0.267l-0.014,-0.275c0.466,-0.024 0.778,-0.083 0.937,-0.176c0.164,-0.098 0.274,-0.218 0.331,-0.36c0.063,-0.142 0.079,-0.486 0.051,-1.03l-0.341,-6.539c-0.028,-0.545 -0.081,-0.885 -0.158,-1.02c-0.071,-0.141 -0.194,-0.248 -0.367,-0.324c-0.172,-0.075 -0.489,-0.101 -0.95,-0.077l-0.014,-0.275l4.83,-0.252c1.154,-0.06 1.977,0.001 2.468,0.184c0.491,0.178 0.886,0.466 1.185,0.862c0.298,0.392 0.46,0.818 0.484,1.279c0.025,0.486 -0.128,0.928 -0.46,1.328c-0.332,0.395 -0.936,0.727 -1.811,0.996l0,0Zm-2.715,-0.06c0.704,-0.036 1.217,-0.143 1.541,-0.318c0.328,-0.176 0.574,-0.413 0.738,-0.709c0.163,-0.297 0.233,-0.668 0.21,-1.114c-0.024,-0.446 -0.132,-0.805 -0.325,-1.078c-0.188,-0.279 -0.45,-0.484 -0.784,-0.615c-0.335,-0.132 -0.864,-0.176 -1.587,-0.133l0.207,3.967Zm0.03,0.58l0.169,3.232l0.012,0.372c0.014,0.268 0.091,0.467 0.232,0.599c0.146,0.126 0.353,0.183 0.62,0.169c0.396,-0.021 0.756,-0.127 1.079,-0.317c0.327,-0.196 0.572,-0.465 0.733,-0.806c0.16,-0.346 0.23,-0.725 0.209,-1.136c-0.025,-0.47 -0.156,-0.886 -0.393,-1.246c-0.238,-0.365 -0.551,-0.612 -0.94,-0.741c-0.39,-0.128 -0.963,-0.171 -1.721,-0.126l0,0Z" style="fill-rule:nonzero;"/><path id="path2002" d="M159.323,18.203l-0.539,4.072l0.199,0.026c0.635,0.084 1.121,-0.054 1.459,-0.414c0.338,-0.361 0.598,-0.925 0.779,-1.691l0.28,0.037l-0.693,5.237l-0.28,-0.037c0.016,-0.578 -0.047,-1.062 -0.191,-1.451c-0.139,-0.389 -0.325,-0.661 -0.56,-0.817c-0.234,-0.161 -0.589,-0.274 -1.066,-0.337l-0.373,2.818c-0.073,0.551 -0.095,0.891 -0.067,1.019c0.032,0.13 0.108,0.242 0.225,0.338c0.117,0.096 0.319,0.162 0.604,0.2l0.597,0.079c0.935,0.124 1.711,0.006 2.329,-0.352c0.623,-0.358 1.116,-0.963 1.479,-1.816l0.273,0.036l-0.871,3.12l-8.645,-1.145l0.036,-0.273l0.332,0.044c0.29,0.039 0.53,0.018 0.721,-0.062c0.137,-0.052 0.251,-0.157 0.342,-0.315c0.07,-0.111 0.138,-0.417 0.204,-0.918l0.871,-6.58c0.06,-0.452 0.085,-0.732 0.074,-0.838c-0.027,-0.179 -0.1,-0.324 -0.22,-0.435c-0.169,-0.162 -0.416,-0.265 -0.74,-0.308l-0.332,-0.044l0.036,-0.273l8.372,1.109l-0.392,2.957l-0.28,-0.037c-0.047,-0.741 -0.18,-1.287 -0.399,-1.636c-0.214,-0.349 -0.547,-0.628 -1,-0.838c-0.263,-0.125 -0.774,-0.238 -1.531,-0.338l-1.033,-0.137Z" style="fill-rule:nonzero;"/><path id="path2004" d="M173.083,26.173l-0.9,2.68c-0.173,0.517 -0.253,0.855 -0.237,1.011c0.021,0.154 0.099,0.298 0.232,0.432c0.133,0.133 0.418,0.273 0.855,0.42l-0.087,0.261l-4.895,-1.643l0.087,-0.261c0.442,0.148 0.754,0.208 0.936,0.181c0.188,-0.031 0.335,-0.102 0.441,-0.214c0.11,-0.109 0.252,-0.423 0.425,-0.94l2.084,-6.207c0.174,-0.517 0.25,-0.853 0.228,-1.007c-0.015,-0.157 -0.089,-0.302 -0.222,-0.435c-0.133,-0.134 -0.419,-0.274 -0.856,-0.421l0.088,-0.261l4.443,1.492c1.157,0.388 1.977,0.752 2.459,1.092c0.483,0.34 0.821,0.783 1.014,1.329c0.195,0.542 0.195,1.102 0.001,1.68c-0.237,0.706 -0.687,1.204 -1.349,1.494c-0.422,0.183 -0.95,0.249 -1.582,0.199l1.213,4.01c0.16,0.519 0.287,0.852 0.379,0.998c0.144,0.21 0.34,0.365 0.589,0.465l-0.087,0.261l-3.012,-1.011l-1.619,-5.394l-0.628,-0.211Zm1.575,-4.691l-1.407,4.19l0.402,0.135c0.654,0.219 1.163,0.325 1.527,0.316c0.365,-0.013 0.692,-0.144 0.979,-0.393c0.294,-0.252 0.526,-0.629 0.695,-1.133c0.244,-0.728 0.253,-1.325 0.027,-1.788c-0.222,-0.461 -0.711,-0.819 -1.468,-1.074l-0.755,-0.253Z" style="fill-rule:nonzero;"/><path id="path2006" d="M198.78,32.814c1.341,0.886 2.13,2.027 2.364,3.421c0.239,1.396 -0.077,2.704 -0.949,3.922c-0.745,1.041 -1.704,1.739 -2.879,2.094c-1.558,0.471 -3.072,0.18 -4.545,-0.873c-1.476,-1.057 -2.26,-2.374 -2.351,-3.951c-0.072,-1.247 0.281,-2.413 1.057,-3.498c0.872,-1.219 2.011,-1.937 3.418,-2.156c1.414,-0.221 2.709,0.126 3.885,1.041Zm-0.205,0.439c-0.75,-0.537 -1.595,-0.562 -2.535,-0.076c-0.769,0.402 -1.575,1.191 -2.418,2.369c-1.001,1.4 -1.495,2.611 -1.482,3.633c0.008,0.713 0.32,1.29 0.938,1.732c0.415,0.297 0.834,0.445 1.257,0.442c0.54,-0.004 1.11,-0.218 1.712,-0.641c0.605,-0.428 1.233,-1.097 1.886,-2.009c0.776,-1.085 1.255,-1.968 1.438,-2.649c0.185,-0.685 0.199,-1.251 0.043,-1.698c-0.152,-0.444 -0.431,-0.812 -0.839,-1.103Z" style="fill-rule:nonzero;"/><path id="path2008" d="M210.194,43.61l-2.988,2.873l0.201,0.209c0.31,0.322 0.611,0.538 0.903,0.649c0.293,0.111 0.621,0.126 0.983,0.046c0.367,-0.077 0.765,-0.282 1.196,-0.613l0.181,0.187l-3.652,3.512l-0.181,-0.187c0.625,-0.732 0.9,-1.354 0.826,-1.868c-0.067,-0.514 -0.285,-0.962 -0.653,-1.344l-0.201,-0.209l-2.225,2.14c-0.372,0.357 -0.586,0.601 -0.641,0.729c-0.052,0.133 -0.057,0.292 -0.015,0.479c0.049,0.187 0.172,0.382 0.368,0.586l0.232,0.241l-0.199,0.191l-3.656,-3.803l0.198,-0.19l0.233,0.241c0.202,0.211 0.403,0.345 0.602,0.401c0.14,0.045 0.294,0.034 0.464,-0.033c0.123,-0.043 0.368,-0.24 0.732,-0.591l4.784,-4.6c0.372,-0.357 0.586,-0.601 0.641,-0.729c0.055,-0.129 0.058,-0.287 0.009,-0.474c-0.042,-0.186 -0.161,-0.382 -0.357,-0.586l-0.232,-0.241l0.199,-0.191l5.9,6.136l-2.087,2.006l-0.211,-0.22c0.441,-0.521 0.681,-0.999 0.717,-1.433c0.04,-0.431 -0.079,-0.887 -0.357,-1.37c-0.153,-0.266 -0.508,-0.689 -1.065,-1.268l-0.649,-0.676Z" style="fill-rule:nonzero;"/><path id="path2010" d="M226.939,66.188l-3.076,1.665l-0.138,-0.255c0.699,-0.627 1.12,-1.317 1.264,-2.072c0.145,-0.755 0.037,-1.464 -0.322,-2.127c-0.3,-0.554 -0.734,-0.976 -1.303,-1.266c-0.568,-0.29 -1.168,-0.403 -1.798,-0.338c-0.808,0.082 -1.615,0.341 -2.422,0.778c-0.794,0.429 -1.464,0.922 -2.01,1.477c-0.541,0.552 -0.864,1.133 -0.969,1.742c-0.1,0.607 0.034,1.251 0.403,1.932c0.302,0.558 0.7,1.002 1.195,1.332c0.497,0.335 1.184,0.598 2.06,0.789l-0.766,0.415c-0.788,-0.217 -1.446,-0.532 -1.975,-0.945c-0.521,-0.412 -0.977,-0.977 -1.367,-1.697c-0.512,-0.947 -0.778,-1.891 -0.798,-2.834c-0.017,-0.938 0.222,-1.8 0.716,-2.587c0.496,-0.781 1.145,-1.39 1.948,-1.824c0.846,-0.458 1.768,-0.672 2.766,-0.643c0.999,0.035 1.912,0.313 2.737,0.837c0.827,0.528 1.47,1.215 1.928,2.062c0.337,0.623 0.559,1.355 0.664,2.195c0.06,0.487 0.12,0.784 0.179,0.893c0.075,0.14 0.19,0.233 0.345,0.279c0.161,0.048 0.361,0.027 0.6,-0.063l0.139,0.255Z" style="fill-rule:nonzero;"/><path id="path2012" d="M231.298,78.021c0.527,1.52 0.46,2.904 -0.2,4.154c-0.659,1.255 -1.704,2.101 -3.137,2.539c-1.224,0.375 -2.41,0.346 -3.559,-0.086c-1.523,-0.571 -2.55,-1.723 -3.08,-3.454c-0.531,-1.736 -0.353,-3.258 0.533,-4.567c0.7,-1.034 1.688,-1.746 2.964,-2.136c1.433,-0.438 2.775,-0.317 4.026,0.364c1.257,0.684 2.074,1.746 2.453,3.186Zm-0.429,0.225c-0.27,-0.882 -0.926,-1.416 -1.968,-1.6c-0.855,-0.148 -1.975,-0.011 -3.36,0.413c-1.646,0.504 -2.774,1.165 -3.384,1.985c-0.427,0.571 -0.53,1.22 -0.308,1.946c0.15,0.488 0.393,0.86 0.731,1.115c0.431,0.324 1.014,0.501 1.749,0.53c0.74,0.028 1.646,-0.122 2.718,-0.45c1.276,-0.39 2.193,-0.801 2.752,-1.231c0.563,-0.431 0.918,-0.872 1.066,-1.322c0.149,-0.445 0.15,-0.907 0.004,-1.386l0,0Z" style="fill-rule:nonzero;"/><path id="path2014" d="M228.104,97.588l6.84,2.227l0.311,4.095l-0.275,0.021l-0.025,-0.326c-0.022,-0.297 -0.092,-0.531 -0.209,-0.701c-0.079,-0.118 -0.203,-0.208 -0.372,-0.27c-0.122,-0.046 -0.434,-0.049 -0.933,-0.011l-6.633,0.503c-0.514,0.039 -0.834,0.091 -0.958,0.155c-0.125,0.064 -0.23,0.184 -0.316,0.36c-0.082,0.175 -0.111,0.403 -0.09,0.685l0.025,0.327l-0.275,0.021l-0.398,-5.253l0.274,-0.021l0.025,0.326c0.022,0.297 0.092,0.531 0.21,0.701c0.078,0.118 0.205,0.208 0.378,0.27c0.123,0.045 0.437,0.049 0.941,0.01l7.457,-0.566l-9.471,-3.161l-0.013,-0.178l8.813,-4.609l-7.085,0.538c-0.495,0.037 -0.798,0.073 -0.91,0.106c-0.242,0.083 -0.434,0.237 -0.577,0.462c-0.136,0.229 -0.187,0.574 -0.152,1.034l-0.275,0.02l-0.261,-3.442l0.274,-0.021l0.008,0.104c0.012,0.223 0.063,0.428 0.151,0.615c0.094,0.187 0.209,0.325 0.345,0.414c0.136,0.09 0.323,0.153 0.559,0.189c0.055,0.006 0.308,-0.008 0.758,-0.042l6.366,-0.483c0.509,-0.039 0.824,-0.09 0.943,-0.154c0.125,-0.064 0.228,-0.184 0.309,-0.359c0.086,-0.176 0.118,-0.405 0.097,-0.687l-0.024,-0.319l0.274,-0.02l0.312,4.11l-6.418,3.33Z" style="fill-rule:nonzero;"/><path id="path2016" d="M227.281,116.73l6.13,3.765l-0.656,4.055l-0.272,-0.044l0.053,-0.323c0.047,-0.294 0.034,-0.537 -0.041,-0.73c-0.048,-0.134 -0.148,-0.25 -0.297,-0.35c-0.109,-0.073 -0.411,-0.149 -0.905,-0.229l-6.567,-1.062c-0.509,-0.083 -0.832,-0.107 -0.968,-0.074c-0.136,0.033 -0.266,0.125 -0.391,0.276c-0.12,0.151 -0.203,0.366 -0.248,0.646l-0.052,0.323l-0.272,-0.044l0.841,-5.201l0.272,0.044l-0.052,0.324c-0.048,0.293 -0.034,0.537 0.04,0.73c0.049,0.133 0.15,0.25 0.305,0.351c0.109,0.072 0.413,0.149 0.912,0.23l7.382,1.194l-8.468,-5.289l0.029,-0.176l9.647,-2.42l-7.015,-1.134c-0.49,-0.079 -0.793,-0.116 -0.909,-0.11c-0.255,0.024 -0.478,0.129 -0.669,0.314c-0.187,0.191 -0.317,0.514 -0.391,0.97l-0.271,-0.044l0.551,-3.408l0.272,0.044l-0.017,0.102c-0.041,0.22 -0.04,0.431 0.003,0.634c0.048,0.204 0.127,0.365 0.238,0.483c0.112,0.119 0.278,0.224 0.5,0.315c0.052,0.018 0.301,0.064 0.747,0.136l6.302,1.019c0.504,0.082 0.822,0.105 0.953,0.071c0.136,-0.033 0.264,-0.125 0.384,-0.277c0.125,-0.15 0.21,-0.365 0.255,-0.644l0.051,-0.316l0.272,0.044l-0.658,4.069l-7.02,1.736Z" style="fill-rule:nonzero;"/><path id="path2018" d="M228.869,134.251l-3.828,-1.489l-0.073,0.188c-0.232,0.596 -0.213,1.101 0.057,1.515c0.27,0.414 0.756,0.8 1.458,1.158l-0.103,0.263l-4.923,-1.915l0.102,-0.263c0.558,0.153 1.043,0.206 1.456,0.158c0.41,-0.042 0.719,-0.159 0.926,-0.35c0.212,-0.189 0.405,-0.507 0.58,-0.956l-2.649,-1.03c-0.518,-0.202 -0.843,-0.304 -0.975,-0.307c-0.133,0.001 -0.26,0.047 -0.381,0.139c-0.121,0.091 -0.233,0.271 -0.338,0.539l-0.218,0.562c-0.342,0.878 -0.412,1.66 -0.21,2.345c0.2,0.69 0.671,1.312 1.414,1.867l-0.1,0.257l-2.824,-1.586l3.161,-8.127l0.257,0.1l-0.122,0.312c-0.106,0.273 -0.143,0.511 -0.111,0.715c0.018,0.146 0.093,0.281 0.225,0.407c0.092,0.094 0.373,0.233 0.845,0.416l6.185,2.406c0.425,0.166 0.691,0.256 0.797,0.271c0.18,0.016 0.338,-0.021 0.474,-0.111c0.198,-0.126 0.356,-0.341 0.475,-0.646l0.121,-0.312l0.257,0.1l-3.062,7.87l-2.78,-1.081l0.102,-0.264c0.732,0.13 1.293,0.131 1.685,0.001c0.389,-0.126 0.739,-0.383 1.051,-0.773c0.184,-0.227 0.414,-0.696 0.691,-1.408l0.378,-0.971Z" style="fill-rule:nonzero;"/><path id="path2020" d="M217.909,145.701l-2.398,-1.498c-0.462,-0.289 -0.772,-0.445 -0.928,-0.466c-0.155,-0.015 -0.312,0.027 -0.473,0.125c-0.161,0.099 -0.364,0.343 -0.608,0.735l-0.234,-0.146l2.736,-4.38l0.234,0.146c-0.247,0.396 -0.378,0.685 -0.393,0.869c-0.014,0.19 0.021,0.349 0.105,0.478c0.08,0.132 0.352,0.343 0.815,0.632l5.553,3.469c0.463,0.29 0.772,0.442 0.926,0.456c0.156,0.022 0.315,-0.017 0.476,-0.115c0.161,-0.098 0.363,-0.343 0.608,-0.734l0.233,0.145l-2.484,3.976c-0.646,1.035 -1.191,1.747 -1.633,2.138c-0.443,0.39 -0.953,0.615 -1.529,0.677c-0.572,0.063 -1.117,-0.067 -1.634,-0.39c-0.631,-0.394 -1.011,-0.947 -1.139,-1.659c-0.08,-0.453 -0.022,-0.981 0.174,-1.585l-4.182,0.248c-0.542,0.035 -0.896,0.081 -1.059,0.137c-0.238,0.091 -0.435,0.246 -0.589,0.465l-0.234,-0.146l1.684,-2.694l5.622,-0.321l0.351,-0.562Zm4.197,2.622l-3.749,-2.342l-0.224,0.36c-0.366,0.584 -0.586,1.055 -0.663,1.411c-0.072,0.358 -0.02,0.706 0.155,1.044c0.177,0.344 0.49,0.657 0.94,0.938c0.652,0.408 1.23,0.555 1.733,0.442c0.501,-0.108 0.963,-0.501 1.386,-1.178l0.422,-0.675Z" style="fill-rule:nonzero;"/><path id="path2022" d="M208.587,166.684l-2.556,-2.388l0.198,-0.212c0.816,0.464 1.605,0.644 2.367,0.541c0.761,-0.103 1.399,-0.43 1.914,-0.981c0.43,-0.461 0.692,-1.006 0.787,-1.638c0.094,-0.631 0.01,-1.236 -0.252,-1.813c-0.334,-0.739 -0.836,-1.423 -1.506,-2.049c-0.66,-0.616 -1.34,-1.095 -2.039,-1.436c-0.696,-0.338 -1.35,-0.46 -1.961,-0.365c-0.607,0.098 -1.175,0.429 -1.703,0.995c-0.433,0.464 -0.728,0.983 -0.884,1.557c-0.159,0.577 -0.19,1.312 -0.093,2.203l-0.637,-0.594c-0.045,-0.816 0.045,-1.54 0.269,-2.173c0.224,-0.625 0.616,-1.237 1.174,-1.835c0.735,-0.786 1.546,-1.339 2.434,-1.657c0.884,-0.314 1.778,-0.362 2.68,-0.144c0.899,0.223 1.682,0.645 2.349,1.268c0.703,0.657 1.199,1.463 1.488,2.418c0.285,0.959 0.31,1.913 0.076,2.862c-0.238,0.952 -0.685,1.78 -1.342,2.483c-0.484,0.518 -1.108,0.96 -1.871,1.327c-0.442,0.211 -0.705,0.363 -0.79,0.453c-0.108,0.116 -0.16,0.255 -0.154,0.416c0.005,0.168 0.089,0.351 0.25,0.55l-0.198,0.212Z" style="fill-rule:nonzero;"/><path id="path2024" d="M199.866,172.873l-2.424,-3.316l-0.162,0.119c-0.517,0.378 -0.772,0.814 -0.767,1.308c0.004,0.494 0.206,1.081 0.605,1.76l-0.228,0.167l-3.119,-4.264l0.228,-0.167c0.388,0.429 0.768,0.735 1.141,0.917c0.369,0.185 0.692,0.253 0.97,0.204c0.28,-0.045 0.614,-0.21 1.003,-0.494l-1.678,-2.294c-0.328,-0.449 -0.547,-0.71 -0.656,-0.784c-0.113,-0.071 -0.245,-0.1 -0.396,-0.088c-0.151,0.012 -0.343,0.103 -0.575,0.273l-0.487,0.356c-0.76,0.556 -1.24,1.177 -1.439,1.864c-0.203,0.689 -0.141,1.467 0.186,2.334l-0.222,0.162l-1.527,-2.856l7.039,-5.148l0.163,0.222l-0.27,0.198c-0.237,0.173 -0.396,0.354 -0.479,0.543c-0.063,0.133 -0.073,0.287 -0.029,0.464c0.026,0.129 0.188,0.397 0.487,0.806l3.918,5.357c0.269,0.368 0.445,0.587 0.526,0.656c0.143,0.111 0.296,0.165 0.46,0.162c0.234,0.001 0.483,-0.095 0.747,-0.288l0.271,-0.198l0.162,0.222l-6.817,4.985l-1.761,-2.408l0.228,-0.167c0.547,0.504 1.02,0.806 1.42,0.907c0.395,0.104 0.829,0.076 1.301,-0.085c0.277,-0.092 0.724,-0.364 1.341,-0.815l0.84,-0.614Z" style="fill-rule:nonzero;"/></g><path id="path5554" d="M105.4,102.552l3.062,1.77l-0.239,1.674l-1.34,1.817l-0.909,0.096l-0.765,-4.114l0.191,-1.243Z" style="fill-rule:nonzero;stroke:#000;stroke-width:0.29px;"/><path id="path5556" d="M116.45,108.1l3.444,1.531l-2.152,1.531l-2.44,0l0.239,-1.483l0.909,-1.579Z" style="fill-rule:nonzero;stroke:#000;stroke-width:0.29px;"/><path id="path5558" d="M119.368,104.704l2.726,0.957l2.631,1.674l1.579,0.574l-1.77,1.339l-3.109,0.335l-3.062,-1.339l-1.052,-1.052l0.239,-1.053l1.435,-1.052l0.383,-0.383Z" style="fill-rule:nonzero;stroke:#000;stroke-width:0.29px;"/><path id="path5560" d="M122.19,104.178l1.913,-0.478l1.675,0.813l1.148,1.435l-0.048,0.861l-1.914,-0.478l-2.2,-1.388l-0.574,-0.765Z" style="fill-rule:nonzero;stroke:#000;stroke-width:0.29px;"/><path id="path5566" d="M183.792,76.423l6.629,0.338l-1.691,-1.353l-2.909,-1.218l-2.773,0.406l0.473,-1.556l3.586,-0.676l4.938,0.271l4.329,1.285l3.856,3.653l3.315,4.126l1.759,2.841l0,2.706l-1.556,2.977l-1.015,0.811l-3.247,-2.367l-0.947,-1.962l-4.33,-3.179l-4.532,-3.924l-1.556,-0.067l-4.329,-3.112Z" style="fill-rule:nonzero;stroke:#000;stroke-width:0.29px;"/><path id="path5570" d="M206.859,98.137l-1.555,-3.788l4.126,-5.276l0.474,-4.938l1.623,3.111l0.135,3.924l-2.638,4.262l-2.165,2.705Z" style="fill-rule:nonzero;stroke:#000;stroke-width:0.29px;"/><path id="path5576" d="M199.486,106.931l3.382,-2.029l4.33,-1.421l5.276,-2.029l3.45,-1.421l0.947,-1.555l0.135,3.044l-1.826,1.826l-7.644,3.247l-7.712,0.812l-0.338,-0.474Z" style="fill-rule:nonzero;stroke:#000;stroke-width:0.29px;"/><path id="path5578" d="M171.007,112.005l-2.165,-2.503l-4.532,-1.015l-4.803,-0.338l-6.9,1.015l-3.856,1.759l-1.624,2.435l0,1.623l2.3,-1.826l3.383,-1.082l5.614,-0.677l5.75,-0.068l5.209,0.677l1.624,0Z" style="fill-rule:nonzero;stroke:#000;stroke-width:0.29px;"/><path id="path5580" d="M191.707,112.14l2.164,-2.57l5.75,-1.489l6.562,0.609l4.6,0.609l4.059,1.691l1.014,2.165l-0.067,1.962l-1.353,-0.744l-2.571,-1.692l-7.847,-1.488l-2.909,-0.135l-5.141,1.015l-4.261,0.067Z" style="fill-rule:nonzero;stroke:#000;stroke-width:0.29px;"/><path id="path5582" d="M171.954,113.223l2.029,1.217l-1.759,1.759l-3.45,1.218l-5.073,1.691l0.812,2.097l1.014,2.029l0,2.03l1.624,1.42l2.57,2.3l-3.517,-0.744l-3.856,-2.706l-2.165,-4.059l0.068,-3.382l1.691,-2.232l2.976,-1.759l7.036,-0.879Z" style="fill-rule:nonzero;stroke:#000;stroke-width:0.29px;"/><path id="path5584" d="M188.46,114.305l2.435,-1.353l7.373,1.421l3.518,3.45l0.609,3.314l-2.165,4.736l-6.697,2.976l2.3,-2.435l1.421,-2.03l1.42,-4.6l0.271,-1.217l-6.427,-1.218l-4.058,-3.044Z" style="fill-rule:nonzero;stroke:#000;stroke-width:0.29px;"/><ellipse id="path5588" cx="114.345" cy="176.12" rx="2.009" ry="2.057" style="fill:none;stroke:#000;stroke-width:1.2px;"/><ellipse id="path5590" cx="184.469" cy="176.933" rx="1.924" ry="2.02" style="fill:none;stroke:#000;stroke-width:1.18px;"/><path id="path5592" d="M112.719,187.073c21.098,9.091 44.549,13.148 76.534,-1.052" style="fill:none;fill-rule:nonzero;"/><path id="path2027" d="M122.66,177.877l-1.119,3.089l0.151,0.055c0.482,0.174 0.885,0.149 1.211,-0.074c0.326,-0.224 0.625,-0.62 0.899,-1.188l0.212,0.077l-1.439,3.974l-0.213,-0.077c0.112,-0.45 0.145,-0.838 0.1,-1.167c-0.042,-0.328 -0.141,-0.573 -0.297,-0.735c-0.156,-0.166 -0.414,-0.314 -0.776,-0.445l-0.774,2.138c-0.152,0.417 -0.228,0.679 -0.228,0.785c0.004,0.106 0.043,0.207 0.118,0.302c0.076,0.095 0.222,0.181 0.438,0.26l0.453,0.164c0.709,0.257 1.336,0.298 1.88,0.124c0.548,-0.173 1.037,-0.561 1.467,-1.165l0.207,0.075l-1.215,2.288l-6.559,-2.376l0.075,-0.207l0.252,0.091c0.22,0.08 0.411,0.105 0.574,0.075c0.116,-0.017 0.223,-0.08 0.321,-0.187c0.074,-0.075 0.179,-0.303 0.317,-0.683l1.809,-4.992c0.124,-0.344 0.191,-0.558 0.201,-0.643c0.01,-0.144 -0.023,-0.27 -0.098,-0.377c-0.104,-0.156 -0.279,-0.279 -0.525,-0.368l-0.252,-0.091l0.075,-0.207l6.352,2.301l-0.813,2.244l-0.213,-0.077c0.091,-0.587 0.081,-1.036 -0.031,-1.347c-0.107,-0.309 -0.32,-0.584 -0.637,-0.826c-0.185,-0.143 -0.565,-0.318 -1.139,-0.526l-0.784,-0.284Z" style="fill-rule:nonzero;"/><path id="path2029" d="M134.297,180.708l-0.595,2.625l-0.237,-0.06c0.054,-0.682 -0.089,-1.277 -0.427,-1.784c-0.334,-0.51 -0.755,-0.829 -1.262,-0.958c-0.393,-0.099 -0.731,-0.072 -1.016,0.082c-0.279,0.15 -0.453,0.362 -0.522,0.635c-0.044,0.173 -0.043,0.337 0.004,0.492c0.066,0.209 0.2,0.434 0.401,0.673c0.149,0.172 0.51,0.503 1.082,0.991c0.802,0.682 1.312,1.263 1.531,1.744c0.214,0.48 0.256,0.977 0.126,1.493c-0.165,0.654 -0.564,1.153 -1.195,1.497c-0.626,0.341 -1.332,0.412 -2.117,0.214c-0.246,-0.062 -0.472,-0.146 -0.679,-0.251c-0.207,-0.106 -0.458,-0.269 -0.754,-0.491c-0.165,-0.124 -0.307,-0.201 -0.427,-0.231c-0.1,-0.025 -0.215,-0.014 -0.346,0.035c-0.131,0.049 -0.251,0.143 -0.36,0.284l-0.214,-0.054l0.746,-2.955l0.214,0.054c-0.041,0.874 0.124,1.591 0.494,2.151c0.375,0.557 0.842,0.906 1.399,1.047c0.431,0.109 0.803,0.078 1.117,-0.093c0.317,-0.169 0.515,-0.41 0.593,-0.722c0.047,-0.184 0.042,-0.376 -0.014,-0.574c-0.053,-0.198 -0.159,-0.399 -0.321,-0.603c-0.16,-0.208 -0.462,-0.502 -0.907,-0.88c-0.623,-0.53 -1.06,-0.957 -1.309,-1.282c-0.25,-0.325 -0.421,-0.661 -0.513,-1.008c-0.089,-0.345 -0.087,-0.701 0.005,-1.067c0.158,-0.623 0.521,-1.096 1.089,-1.419c0.569,-0.323 1.202,-0.396 1.898,-0.221c0.254,0.065 0.492,0.158 0.715,0.279c0.17,0.092 0.367,0.234 0.593,0.426c0.23,0.189 0.397,0.297 0.501,0.323c0.1,0.026 0.187,0.015 0.26,-0.032c0.073,-0.047 0.165,-0.182 0.274,-0.404l0.173,0.044Z" style="fill-rule:nonzero;"/><path id="path2031" d="M144.09,182.423l-0.284,2.166l-0.213,-0.028c-0.06,-0.516 -0.153,-0.892 -0.278,-1.129c-0.124,-0.241 -0.312,-0.443 -0.562,-0.608c-0.14,-0.091 -0.397,-0.161 -0.771,-0.21l-0.596,-0.078l-0.812,6.173c-0.053,0.409 -0.065,0.668 -0.036,0.776c0.034,0.108 0.111,0.211 0.23,0.306c0.124,0.093 0.3,0.154 0.529,0.184l0.265,0.035l-0.029,0.218l-4.19,-0.551l0.029,-0.218l0.265,0.035c0.233,0.03 0.425,0.014 0.577,-0.05c0.11,-0.042 0.203,-0.126 0.28,-0.252c0.055,-0.089 0.11,-0.334 0.162,-0.735l0.812,-6.173l-0.579,-0.076c-0.539,-0.071 -0.945,-0.008 -1.219,0.188c-0.384,0.273 -0.66,0.699 -0.828,1.278l-0.225,-0.03l0.285,-2.166l7.188,0.945Z" style="fill-rule:nonzero;"/><path id="path2033" d="M154.269,182.182l0.387,6.59c0.029,0.495 0.07,0.811 0.122,0.947c0.051,0.132 0.149,0.238 0.293,0.317c0.143,0.079 0.368,0.109 0.673,0.091l0.184,-0.011l0.013,0.22l-4.243,0.25l-0.013,-0.22l0.214,-0.013c0.345,-0.02 0.588,-0.074 0.73,-0.162c0.142,-0.088 0.235,-0.203 0.278,-0.344c0.043,-0.142 0.05,-0.466 0.02,-0.973l-0.245,-4.178c-0.022,-0.372 -0.054,-0.603 -0.095,-0.692c-0.041,-0.093 -0.113,-0.168 -0.216,-0.226c-0.099,-0.061 -0.212,-0.089 -0.338,-0.081c-0.202,0.012 -0.444,0.09 -0.726,0.233l-0.12,-0.207l2.886,-1.529l0.196,-0.012Z" style="fill-rule:nonzero;"/><path id="path2035" d="M159.464,190.137l-0.027,-0.165c0.627,-0.254 1.141,-0.563 1.545,-0.925c0.407,-0.364 0.708,-0.78 0.901,-1.25c0.197,-0.47 0.303,-0.992 0.319,-1.565c-0.223,0.164 -0.416,0.286 -0.58,0.365c-0.161,0.074 -0.335,0.127 -0.523,0.157c-0.603,0.098 -1.142,-0.038 -1.616,-0.407c-0.47,-0.37 -0.766,-0.933 -0.889,-1.689c-0.085,-0.525 -0.055,-1.023 0.09,-1.492c0.148,-0.475 0.405,-0.864 0.769,-1.168c0.365,-0.308 0.764,-0.498 1.199,-0.568c0.466,-0.076 0.928,-0.014 1.387,0.185c0.458,0.199 0.852,0.531 1.18,0.997c0.329,0.465 0.546,1.021 0.65,1.667c0.136,0.838 0.065,1.674 -0.214,2.507c-0.275,0.833 -0.773,1.547 -1.492,2.142c-0.721,0.591 -1.62,0.994 -2.699,1.209l0,0Zm2.746,-4.413c-0.032,-0.445 -0.075,-0.834 -0.129,-1.167c-0.115,-0.713 -0.305,-1.364 -0.569,-1.952c-0.15,-0.326 -0.329,-0.554 -0.539,-0.685c-0.112,-0.07 -0.247,-0.092 -0.403,-0.067c-0.196,0.032 -0.335,0.141 -0.418,0.327c-0.115,0.256 -0.12,0.709 -0.015,1.359c0.176,1.085 0.427,1.812 0.752,2.182c0.212,0.239 0.46,0.335 0.746,0.289c0.153,-0.025 0.345,-0.12 0.575,-0.286l0,0Z" style="fill-rule:nonzero;"/><path id="path2037" d="M169.41,188.208l0.46,-6.999l-1.619,0.419c-0.634,0.164 -1.089,0.369 -1.365,0.617c-0.193,0.173 -0.322,0.438 -0.385,0.794l-0.219,0.057l-0.063,-2.572l4.657,-1.204l-0.561,8.654l-0.905,0.234Z" style="fill-rule:nonzero;"/><path id="path2039" d="M174.47,178.158l3.571,-1.238l-0.065,1.648l-3.003,1.041l-0.024,0.859c1.311,-0.4 2.418,-0.423 3.322,-0.068c0.744,0.292 1.243,0.804 1.496,1.535c0.163,0.469 0.189,0.974 0.079,1.516c-0.112,0.539 -0.367,1.014 -0.766,1.425c-0.401,0.408 -0.89,0.712 -1.467,0.912c-0.623,0.216 -1.141,0.265 -1.555,0.148c-0.29,-0.084 -0.471,-0.231 -0.544,-0.441c-0.056,-0.161 -0.045,-0.325 0.032,-0.49c0.081,-0.167 0.202,-0.278 0.363,-0.334c0.146,-0.05 0.305,-0.072 0.475,-0.064c0.171,0.008 0.483,0.077 0.935,0.205c0.283,0.079 0.517,0.119 0.703,0.122c0.132,0.005 0.271,-0.018 0.417,-0.069c0.308,-0.107 0.529,-0.309 0.665,-0.609c0.14,-0.3 0.155,-0.608 0.046,-0.923c-0.229,-0.659 -0.745,-1.081 -1.548,-1.265c-0.803,-0.183 -1.707,-0.101 -2.712,0.247c-0.101,0.035 -0.252,0.09 -0.453,0.164l0.033,-4.321Z" style="fill-rule:nonzero;"/><path id="path5611" d="M87.395,137.508c3.467,-2.454 6.775,-4.62 11.365,-5.006c10.132,0.758 15.697,11.051 25.029,10.553c14.315,-1.512 15.171,-10.49 25.3,-10.283c9.426,-1.203 15.333,11.159 28.276,10.283c12.968,-0.886 13.696,-10.757 23.542,-10.418c3.89,0.574 7.564,2.224 11.094,4.6" style="fill:none;fill-rule:nonzero;stroke:#000;stroke-width:4.51px;"/><path id="path5613" d="M94.092,147.722c1.444,-1.287 3.225,-1.393 4.668,-1.285c7.861,-0.045 14.968,10.324 25.029,10.553c16.754,-2.389 16.335,-11.615 25.706,-10.418c9.298,-0.455 12.63,9.08 26.382,10.553c9.809,-0.858 15.313,-8.648 23.947,-11.094c2.935,0.297 4.488,1.046 5.615,2.097" style="fill:none;fill-rule:nonzero;stroke:#000;stroke-width:5.09px;"/><path id="path5615" d="M123.789,170.249c0.774,-1.16 3.165,-0.484 5.547,-0.947c8.12,-4.339 13.578,-9.509 20.294,-9.336c5.357,-0.17 10.124,2.311 19.077,8.93c2.571,0.496 4.459,-0.158 5.006,1.488" style="fill:none;fill-rule:nonzero;stroke:#000;stroke-width:5.14px;"/></g></svg>