<?xml version="1.0" encoding="UTF-8" standalone="no"?><!DOCTYPE svg PUBLIC "-//W3C//DTD SVG 1.1//EN" "http://www.w3.org/Graphics/SVG/1.1/DTD/svg11.dtd"><svg width="100%" height="100%" viewBox="0 0 300 210" version="1.1" xmlns="http://www.w3.org/2000/svg" xmlns:xlink="http://www.w3.org/1999/xlink" xml:space="preserve" xmlns:serif="http://www.serif.com/" style="fill-rule:evenodd;clip-rule:evenodd;stroke-linejoin:round;stroke-miterlimit:1.41421;"><rect id="Artboard1" x="0" y="0" width="300" height="210" style="fill:none;"/><g id="Layer-1" serif:id="Layer 1"><path id="path18530" d="M166.634,11.512c45.806,10.748 75.244,54.052 65.531,96.398c-9.713,42.345 -54.995,68.116 -100.801,57.368c-45.806,-10.749 -75.244,-54.052 -65.53,-96.398c9.713,-42.346 54.995,-68.116 100.8,-57.368Zm-19.816,77.347c2.635,0.619 4.883,2.002 6.528,3.829c-1.471,-1.779 -3.433,-3.246 -5.787,-4.189c-7.111,-2.846 -15.172,0.155 -17.944,6.682c-0.087,0.205 -0.167,0.412 -0.242,0.619c-6.446,-4.159 -9.321,-12.031 -6.421,-18.858l10.063,-23.699l29.574,10.122c0.596,0.203 1.324,-0.3 1.616,-1.121c0.292,-0.82 0.041,-1.659 -0.554,-1.862l-29.395,-10.061l0.757,-1.781l29.586,10.126c0.596,0.204 1.324,-0.3 1.615,-1.121c0.293,-0.82 0.042,-1.658 -0.554,-1.862l-29.407,-10.065l1.084,-2.551l29.46,10.083c0.595,0.204 1.323,-0.3 1.615,-1.121c0.292,-0.82 0.042,-1.659 -0.554,-1.863l-29.281,-10.021l1.032,-2.43l29.701,10.165c0.596,0.204 1.324,-0.3 1.615,-1.12c0.293,-0.821 0.042,-1.659 -0.553,-1.863l-29.522,-10.104l1.148,-2.703c8.422,-19.833 53.479,-3.346 44.494,17.813l-19.046,44.851c-2.017,4.75 -6.381,7.945 -11.405,8.958c0.385,-1.567 0.437,-3.166 0.191,-4.721c0.122,1.124 0.065,2.278 -0.198,3.426c-1.154,5.03 -5.876,8.396 -11.197,8.41l-8.779,38.27c-0.538,2.347 -2.665,3.871 -4.728,3.387l-5.192,-1.219c-2.063,-0.484 -3.31,-2.799 -2.772,-5.146l9.827,-42.84c-0.814,-1.982 -1.051,-4.175 -0.552,-6.351c1.366,-5.957 7.734,-9.58 14.176,-8.069l0.001,0Z"/><g id="text8951"><text x="59.254px" y="201.06px" style="font-family:'LucidaGrande-Bold', 'Lucida Grande', sans-serif;font-weight:600;font-size:33.457px;">G<tspan x="83.917px 102.815px 123.651px 134.553px 164.58px 183.962px 205.88px 216.637px " y="201.06px 201.06px 201.06px 201.06px 201.06px 201.06px 201.06px 201.06px ">SB Media</tspan></text></g></g></svg>