<?xml version="1.0" encoding="UTF-8" standalone="no"?>
<svg
   xmlns:dc="http://purl.org/dc/elements/1.1/"
   xmlns:cc="http://creativecommons.org/ns#"
   xmlns:rdf="http://www.w3.org/1999/02/22-rdf-syntax-ns#"
   xmlns:svg="http://www.w3.org/2000/svg"
   xmlns="http://www.w3.org/2000/svg"
   xmlns:sodipodi="http://sodipodi.sourceforge.net/DTD/sodipodi-0.dtd"
   xmlns:inkscape="http://www.inkscape.org/namespaces/inkscape"
   width="100%"
   height="100%"
   viewBox="0 0 300 210"
   version="1.1"
   xml:space="preserve"
   style="fill-rule:evenodd;clip-rule:evenodd;"
   id="svg13"
   sodipodi:docname="LandmarkInsurance.svg"
   inkscape:version="0.92.5 (2060ec1f9f, 2020-04-08)"><metadata
   id="metadata19"><rdf:RDF><cc:Work
       rdf:about=""><dc:format>image/svg+xml</dc:format><dc:type
         rdf:resource="http://purl.org/dc/dcmitype/StillImage" /></cc:Work></rdf:RDF></metadata><defs
   id="defs17" /><sodipodi:namedview
   pagecolor="#ffffff"
   bordercolor="#666666"
   borderopacity="1"
   objecttolerance="10"
   gridtolerance="10"
   guidetolerance="10"
   inkscape:pageopacity="0"
   inkscape:pageshadow="2"
   inkscape:window-width="2560"
   inkscape:window-height="1347"
   id="namedview15"
   showgrid="false"
   inkscape:zoom="4.4952381"
   inkscape:cx="111.56223"
   inkscape:cy="112.524"
   inkscape:window-x="0"
   inkscape:window-y="33"
   inkscape:window-maximized="1"
   inkscape:current-layer="svg13" /><g
   id="g928"
   transform="translate(-4.3855934,-11.790253)" />
<rect
   id="Artboard1"
   x="54.380508"
   y="11.665648"
   width="191.23898"
   height="176.1765"
   style="clip-rule:evenodd;fill:none;fill-rule:evenodd;stroke-width:0.85899532" /><rect
   id="rect879"
   x="99.830811"
   y="42.066353"
   width="105.03022"
   height="104.62563"
   style="clip-rule:evenodd;fill:#00704a;fill-rule:evenodd;stroke:#231f20;stroke-width:1.70940077px" /><path
   id="path883"
   d="m 90.521019,81.529459 13.963831,-12.750068 71.63935,-0.809174 12.1419,-26.30845 8.29704,91.876423 -95.92316,0.40459 20.4398,-22.86732 9.91538,-11.940033 -2.22565,-0.60731 z"
   style="clip-rule:evenodd;fill:#231f20;fill-rule:nonzero;stroke:#231f20;stroke-width:0.36077803px"
   inkscape:connector-curvature="0" /><path
   id="path881"
   d="m 86.878879,67.56563 55.449871,-52.009591 21.24811,44.724452 24.68924,-24.284657 0.40459,82.971216 -84.99502,-0.20186 27.9268,-27.724933 z"
   style="clip-rule:evenodd;fill:#ffffff;fill-rule:nonzero;stroke:#231f20;stroke-width:1.44311213px"
   inkscape:connector-curvature="0" /><path
   id="path898"
   d="m 61.53508,154.32674 h 8.424167 l -3.930762,23.96253 5.990633,-0.18812 -2.059871,7.48872 -13.367685,0.13315 z"
   style="clip-rule:evenodd;fill-rule:nonzero;stroke:#ffffff;stroke-width:0.33500817px"
   inkscape:connector-curvature="0"
   inkscape:export-xdpi="357.95477"
   inkscape:export-ydpi="357.95477" /><path
   id="path900"
   d="m 93.380614,154.34735 -10.292482,0.13143 -12.310262,31.00973 8.542709,-0.0859 1.318557,-4.05102 5.692563,0.19843 0.09878,3.90499 16.249611,-0.0326 2.18443,-18.00369 3.6722,18.10247 7.84436,-0.0661 4.83099,-31.04237 -7.74385,0.0661 -2.18443,18.73125 -3.87149,-18.66425 h -7.909633 l -4.632559,28.52638 z m -6.618559,7.7112 -0.165786,12.83941 -3.83885,-0.19843 z"
   style="clip-rule:evenodd;fill-rule:nonzero;stroke:#ffffff;stroke-width:0.33500817px"
   inkscape:connector-curvature="0"
   inkscape:export-xdpi="357.95477"
   inkscape:export-ydpi="357.95477" /><path
   id="path904"
   d="m 122.17242,154.14807 -4.93149,31.2073 9.56405,0.0996 c 11.0192,0.47416 24.35768,-25.4297 4.13778,-31.14116 z m 7.11506,7.94313 0.49564,0.0326 c 6.80238,2.12429 0.92084,16.42399 -2.15006,15.98504 l -0.96036,-0.067 z"
   style="clip-rule:evenodd;fill-rule:nonzero;stroke:#ffffff;stroke-width:0.33500817px"
   inkscape:connector-curvature="0"
   inkscape:export-xdpi="357.95477"
   inkscape:export-ydpi="357.95477" /><path
   id="path908"
   d="m 161.91814,154.24771 -5.62642,16.8784 0.16492,-16.74612 -10.32426,0.0662 -8.6707,30.90923 8.80298,0.067 4.23571,-19.2939 -0.16579,19.36004 6.85049,-0.0661 6.48628,-19.2939 -2.08393,19.32654 16.44633,0.0335 1.55564,-4.00464 5.49413,-0.13228 0.13229,4.16956 16.3149,-0.13228 2.21792,-12.74062 2.64657,12.80676 9.03491,0.0661 -4.43413,-13.10483 c 5.1471,-0.9028 12.58342,-15.5942 -2.41636,-17.93754 l -10.32512,-0.0326 -4.66606,28.55987 -1.45686,-28.69216 -10.0932,0.0988 -11.64883,28.72652 1.82021,-28.82531 z m 43.51756,6.6847 1.456,0.0996 c 5.29656,2.85616 -0.061,8.59253 -2.51514,7.80999 z m -19.92268,1.22493 -0.0326,12.67533 -3.9385,-0.0996 z"
   style="clip-rule:evenodd;fill-rule:nonzero;stroke:#ffffff;stroke-width:0.33500817px"
   inkscape:connector-curvature="0"
   inkscape:export-xdpi="357.95477"
   inkscape:export-ydpi="357.95477" /><path
   id="path914"
   d="m 216.48925,185.42237 4.83185,-31.07502 h 8.6372 l -2.31671,13.13834 6.95013,-13.13834 8.76948,0.0326 -9.10105,15.05819 4.93149,16.05033 h -9.03491 l -3.01164,-14.13133 -2.08478,14.16397 z"
   style="clip-rule:evenodd;fill-rule:nonzero;stroke:#ffffff;stroke-width:0.33500817px"
   inkscape:connector-curvature="0"
   inkscape:export-xdpi="357.95477"
   inkscape:export-ydpi="357.95477" /><text
   xml:space="preserve"
   style="font-style:normal;font-weight:normal;font-size:41.58046341px;line-height:1.25;font-family:sans-serif;letter-spacing:0px;word-spacing:0px;clip-rule:evenodd;fill:#000000;fill-opacity:1;fill-rule:evenodd;stroke:none;stroke-width:1.03951156"
   x="55.589752"
   y="198.10982"
   id="text19"><tspan
     sodipodi:role="line"
     id="tspan17"
     x="55.589752"
     y="198.10982"
     style="font-style:normal;font-variant:normal;font-weight:bold;font-stretch:normal;font-size:12.47413826px;font-family:Limerick-Serial;-inkscape-font-specification:'Limerick-Serial Bold';stroke-width:1.03951156">INSURANCE &amp; FINANCIAL GROUP</tspan></text>
</svg>