<?xml version="1.0" encoding="UTF-8" standalone="no"?><!DOCTYPE svg PUBLIC "-//W3C//DTD SVG 1.1//EN" "http://www.w3.org/Graphics/SVG/1.1/DTD/svg11.dtd"><svg width="100%" height="100%" viewBox="0 0 300 210" version="1.1" xmlns="http://www.w3.org/2000/svg" xmlns:xlink="http://www.w3.org/1999/xlink" xml:space="preserve" xmlns:serif="http://www.serif.com/" style="fill-rule:evenodd;clip-rule:evenodd;"><g id="g928"></g><rect id="Artboard2" x="0" y="0" width="300" height="210" style="fill:none;"/><rect id="Artboard1" x="40.555" y="1.66" width="222.631" height="205.096" style="fill:none;"/><rect id="rect879" x="93.466" y="37.051" width="122.271" height="121.8" style="fill:#00704a;stroke:#231f20;stroke-width:1.99px;"/><path id="path883" d="M82.628,82.992l16.256,-14.843l83.399,-0.942l14.135,-30.627l9.659,106.958l-111.669,0.471l23.795,-26.621l11.543,-13.9l-2.591,-0.707l-44.527,-19.789Z" style="fill:#231f20;fill-rule:nonzero;stroke:#231f20;stroke-width:0.42px;"/><path id="path881" d="M78.388,66.736l64.552,-60.547l24.736,52.066l28.742,-28.271l0.471,96.591l-98.947,-0.235l32.511,-32.276l-52.065,-27.328Z" style="fill:#fff;fill-rule:nonzero;stroke:#231f20;stroke-width:1.68px;"/><path id="path898" d="M48.884,167.739l9.807,0l-4.576,27.896l6.974,-0.219l-2.398,8.718l-15.562,0.155l5.755,-36.55Z" style="fill-rule:nonzero;stroke:#fff;stroke-width:0.39px;"/><path id="path900" d="M85.957,167.763l-11.982,0.153l-14.331,36.1l9.945,-0.1l1.535,-4.716l6.627,0.231l0.115,4.546l18.917,-0.038l2.543,-20.959l4.275,21.074l9.132,-0.077l5.624,-36.138l-9.015,0.077l-2.543,21.806l-4.507,-21.728l-9.208,0l-5.393,33.209l-1.734,-33.44Zm-7.705,8.977l-0.193,14.947l-4.469,-0.231l4.662,-14.716Z" style="fill-rule:nonzero;stroke:#fff;stroke-width:0.39px;"/><path id="path904" d="M119.475,167.531l-5.741,36.33l11.134,0.116c12.828,0.552 28.356,-29.604 4.817,-36.253l-10.21,-0.193Zm8.283,9.247l0.577,0.038c7.919,2.473 1.072,19.12 -2.503,18.609l-1.118,-0.078l3.044,-18.569Z" style="fill-rule:nonzero;stroke:#fff;stroke-width:0.39px;"/><path id="path908" d="M165.745,167.647l-6.55,19.649l0.192,-19.495l-12.019,0.077l-10.094,35.983l10.248,0.078l4.931,-22.461l-0.193,22.538l7.975,-0.077l7.551,-22.461l-2.426,22.499l19.146,0.039l1.811,-4.662l6.396,-0.154l0.154,4.854l18.993,-0.154l2.582,-14.832l3.081,14.909l10.518,0.077l-5.162,-15.256c5.992,-1.051 14.649,-18.154 -2.813,-20.882l-12.02,-0.038l-5.432,33.248l-1.696,-33.402l-11.75,0.115l-13.561,33.442l2.119,-33.557l-11.981,-0.077Zm50.661,7.782l1.695,0.116c6.166,3.325 -0.071,10.003 -2.928,9.092l1.233,-9.208Zm-23.193,1.426l-0.038,14.756l-4.585,-0.116l4.623,-14.64Z" style="fill-rule:nonzero;stroke:#fff;stroke-width:0.39px;"/><path id="path914" d="M229.274,203.939l5.625,-36.176l10.055,0l-2.697,15.295l8.091,-15.295l10.209,0.038l-10.595,17.53l5.741,18.685l-10.518,0l-3.506,-16.451l-2.427,16.489l-9.978,-0.115Z" style="fill-rule:nonzero;stroke:#fff;stroke-width:0.39px;"/></svg>