<?xml version="1.0" encoding="UTF-8" standalone="no"?>
<svg
   xmlns:dc="http://purl.org/dc/elements/1.1/"
   xmlns:cc="http://creativecommons.org/ns#"
   xmlns:rdf="http://www.w3.org/1999/02/22-rdf-syntax-ns#"
   xmlns:svg="http://www.w3.org/2000/svg"
   xmlns="http://www.w3.org/2000/svg"
   xmlns:sodipodi="http://sodipodi.sourceforge.net/DTD/sodipodi-0.dtd"
   xmlns:inkscape="http://www.inkscape.org/namespaces/inkscape"
   width="100%"
   height="100%"
   viewBox="0 0 300 210"
   version="1.1"
   xml:space="preserve"
   style="fill-rule:evenodd;clip-rule:evenodd;"
   id="svg13"
   sodipodi:docname="LandmarkInsurance.svg"
   inkscape:version="0.92.5 (2060ec1f9f, 2020-04-08)"><metadata
   id="metadata19"><rdf:RDF><cc:Work
       rdf:about=""><dc:format>image/svg+xml</dc:format><dc:type
         rdf:resource="http://purl.org/dc/dcmitype/StillImage" /></cc:Work></rdf:RDF></metadata><defs
   id="defs17" /><sodipodi:namedview
   pagecolor="#ffffff"
   bordercolor="#666666"
   borderopacity="1"
   objecttolerance="10"
   gridtolerance="10"
   guidetolerance="10"
   inkscape:pageopacity="0"
   inkscape:pageshadow="2"
   inkscape:window-width="2560"
   inkscape:window-height="1347"
   id="namedview15"
   showgrid="false"
   inkscape:zoom="4.4952381"
   inkscape:cx="70.852484"
   inkscape:cy="112.07908"
   inkscape:window-x="0"
   inkscape:window-y="33"
   inkscape:window-maximized="1"
   inkscape:current-layer="text19" /><g
   id="g928"
   transform="translate(-4.3855934,-11.790253)" />
<rect
   id="Artboard1"
   x="54.380508"
   y="11.665648"
   width="191.23898"
   height="176.1765"
   style="clip-rule:evenodd;fill:none;fill-rule:evenodd;stroke-width:0.85899532" /><rect
   id="rect879"
   x="99.830811"
   y="42.066353"
   width="105.03022"
   height="104.62563"
   style="clip-rule:evenodd;fill:#00704a;fill-rule:evenodd;stroke:#231f20;stroke-width:1.70940077px" /><path
   id="path883"
   d="m 90.521019,81.529459 13.963831,-12.750068 71.63935,-0.809174 12.1419,-26.30845 8.29704,91.876423 -95.92316,0.40459 20.4398,-22.86732 9.91538,-11.940033 -2.22565,-0.60731 z"
   style="clip-rule:evenodd;fill:#231f20;fill-rule:nonzero;stroke:#231f20;stroke-width:0.36077803px"
   inkscape:connector-curvature="0" /><path
   id="path881"
   d="m 86.878879,67.56563 55.449871,-52.009591 21.24811,44.724452 24.68924,-24.284657 0.40459,82.971216 -84.99502,-0.20186 27.9268,-27.724933 z"
   style="clip-rule:evenodd;fill:#ffffff;fill-rule:nonzero;stroke:#231f20;stroke-width:1.44311213px"
   inkscape:connector-curvature="0" /><path
   id="path898"
   d="m 61.53508,154.32674 h 8.424167 l -3.930762,23.96253 5.990633,-0.18812 -2.059871,7.48872 -13.367685,0.13315 z"
   style="clip-rule:evenodd;fill-rule:nonzero;stroke:#ffffff;stroke-width:0.33500817px"
   inkscape:connector-curvature="0"
   inkscape:export-xdpi="357.95477"
   inkscape:export-ydpi="357.95477" /><path
   id="path900"
   d="m 93.380614,154.34735 -10.292482,0.13143 -12.310262,31.00973 8.542709,-0.0859 1.318557,-4.05102 5.692563,0.19843 0.09878,3.90499 16.249611,-0.0326 2.18443,-18.00369 3.6722,18.10247 7.84436,-0.0661 4.83099,-31.04237 -7.74385,0.0661 -2.18443,18.73125 -3.87149,-18.66425 h -7.909633 l -4.632559,28.52638 z m -6.618559,7.7112 -0.165786,12.83941 -3.83885,-0.19843 z"
   style="clip-rule:evenodd;fill-rule:nonzero;stroke:#ffffff;stroke-width:0.33500817px"
   inkscape:connector-curvature="0"
   inkscape:export-xdpi="357.95477"
   inkscape:export-ydpi="357.95477" /><path
   id="path904"
   d="m 122.17242,154.14807 -4.93149,31.2073 9.56405,0.0996 c 11.0192,0.47416 24.35768,-25.4297 4.13778,-31.14116 z m 7.11506,7.94313 0.49564,0.0326 c 6.80238,2.12429 0.92084,16.42399 -2.15006,15.98504 l -0.96036,-0.067 z"
   style="clip-rule:evenodd;fill-rule:nonzero;stroke:#ffffff;stroke-width:0.33500817px"
   inkscape:connector-curvature="0"
   inkscape:export-xdpi="357.95477"
   inkscape:export-ydpi="357.95477" /><path
   id="path908"
   d="m 161.91814,154.24771 -5.62642,16.8784 0.16492,-16.74612 -10.32426,0.0662 -8.6707,30.90923 8.80298,0.067 4.23571,-19.2939 -0.16579,19.36004 6.85049,-0.0661 6.48628,-19.2939 -2.08393,19.32654 16.44633,0.0335 1.55564,-4.00464 5.49413,-0.13228 0.13229,4.16956 16.3149,-0.13228 2.21792,-12.74062 2.64657,12.80676 9.03491,0.0661 -4.43413,-13.10483 c 5.1471,-0.9028 12.58342,-15.5942 -2.41636,-17.93754 l -10.32512,-0.0326 -4.66606,28.55987 -1.45686,-28.69216 -10.0932,0.0988 -11.64883,28.72652 1.82021,-28.82531 z m 43.51756,6.6847 1.456,0.0996 c 5.29656,2.85616 -0.061,8.59253 -2.51514,7.80999 z m -19.92268,1.22493 -0.0326,12.67533 -3.9385,-0.0996 z"
   style="clip-rule:evenodd;fill-rule:nonzero;stroke:#ffffff;stroke-width:0.33500817px"
   inkscape:connector-curvature="0"
   inkscape:export-xdpi="357.95477"
   inkscape:export-ydpi="357.95477" /><path
   id="path914"
   d="m 216.48925,185.42237 4.83185,-31.07502 h 8.6372 l -2.31671,13.13834 6.95013,-13.13834 8.76948,0.0326 -9.10105,15.05819 4.93149,16.05033 h -9.03491 l -3.01164,-14.13133 -2.08478,14.16397 z"
   style="clip-rule:evenodd;fill-rule:nonzero;stroke:#ffffff;stroke-width:0.33500817px"
   inkscape:connector-curvature="0"
   inkscape:export-xdpi="357.95477"
   inkscape:export-ydpi="357.95477" /><g
   aria-label="INSURANCE &amp; FINANCIAL GROUP"
   style="font-style:normal;font-weight:normal;font-size:41.58046341px;line-height:1.25;font-family:sans-serif;letter-spacing:0px;word-spacing:0px;clip-rule:evenodd;fill:#000000;fill-opacity:1;fill-rule:evenodd;stroke:none;stroke-width:1.03951156"
   id="text19"><path
     d="m 56.238407,198.10982 v -8.99386 h 1.883595 v 8.99386 z"
     style="font-style:normal;font-variant:normal;font-weight:bold;font-stretch:normal;font-size:12.47413826px;font-family:Limerick-Serial;-inkscape-font-specification:'Limerick-Serial Bold';stroke-width:1.03951156"
     id="path18" /><path
     d="m 59.406835,198.10982 v -8.99386 H 61.3528 l 3.592552,5.1643 0.311854,0.47401 q 0.124741,0.19959 0.249482,0.42413 0.124742,0.22453 0.261957,0.51143 l -0.137215,-1.0603 -0.02495,-0.54886 v -4.96471 h 1.858646 v 8.99386 H 65.63143 l -3.742242,-5.32646 -0.311853,-0.48649 -0.523914,-0.89814 q 0.06237,0.31185 0.112267,0.59876 0.06237,0.27443 0.07484,0.41165 l 0.0499,0.59875 v 5.10193 z"
     style="font-style:normal;font-variant:normal;font-weight:bold;font-stretch:normal;font-size:12.47413826px;font-family:Limerick-Serial;-inkscape-font-specification:'Limerick-Serial Bold';stroke-width:1.03951156"
     id="path20" /><path
     d="m 68.101293,197.16178 1.110198,-1.42205 q 0.748448,0.86072 1.609164,0.86072 0.523914,0 0.848241,-0.29938 0.324328,-0.29938 0.324328,-0.78587 0,-0.3867 -0.212061,-0.62371 -0.21206,-0.23701 -0.760922,-0.44907 l -0.474017,-0.18711 q -0.386699,-0.13722 -0.636181,-0.24948 -0.237009,-0.12475 -0.449069,-0.27444 -1.035354,-0.76092 -1.035354,-2.03328 0,-1.18504 0.87319,-1.98339 0.87319,-0.79834 2.1705,-0.79834 1.072776,0 1.921017,0.56133 l 0.474017,0.41165 -0.985456,1.35968 q -0.611233,-0.68608 -1.334733,-0.68608 -0.486492,0 -0.798345,0.28691 -0.299379,0.27443 -0.299379,0.73597 0,0.71103 0.923086,1.03536 l 0.299379,0.11226 q 0.486492,0.17464 0.7235,0.28691 0.237009,0.0998 0.436595,0.21206 1.185043,0.66113 1.185043,2.15803 0,1.30978 -0.885664,2.1206 -0.873189,0.81082 -2.307715,0.81082 -1.259888,0 -2.182974,-0.66113 -0.124742,-0.0998 -0.237009,-0.18711 -0.09979,-0.0873 -0.299379,-0.31186 z"
     style="font-style:normal;font-variant:normal;font-weight:bold;font-stretch:normal;font-size:12.47413826px;font-family:Limerick-Serial;-inkscape-font-specification:'Limerick-Serial Bold';stroke-width:1.03951156"
     id="path22" /><path
     d="m 82.084798,189.11596 v 5.31399 q 0,1.1102 -0.249483,1.79627 -0.336801,0.98546 -1.222465,1.5468 -0.885664,0.56133 -2.10813,0.56133 -1.534319,0 -2.494827,-0.86071 -0.561337,-0.51144 -0.810819,-1.22247 -0.249483,-0.71102 -0.249483,-1.82122 v -5.31399 h 1.871121 v 5.46368 q 0,0.59876 0.137215,0.96051 0.14969,0.47401 0.573811,0.76092 0.42412,0.2869 0.972982,0.2869 0.311854,0 0.623707,-0.11226 0.311854,-0.11227 0.536388,-0.31186 0.548862,-0.48649 0.548862,-1.58421 v -5.46368 z"
     style="font-style:normal;font-variant:normal;font-weight:bold;font-stretch:normal;font-size:12.47413826px;font-family:Limerick-Serial;-inkscape-font-specification:'Limerick-Serial Bold';stroke-width:1.03951156"
     id="path24" /><path
     d="m 83.382092,198.10982 v -8.99386 h 2.781733 q 1.546793,0 2.38256,0.68608 0.848241,0.68608 0.848241,1.95844 0,2.09566 -2.095655,2.64452 l 2.769259,3.70482 h -2.357612 l -2.058233,-3.09359 q -0.112267,-0.16216 -0.224535,-0.32433 -0.09979,-0.17463 -0.249482,-0.46154 0.03742,0.22453 0.0499,0.42412 0.01247,0.18711 0.01247,0.51144 v 2.9439 z m 1.846172,-7.34727 v 2.5073 h 0.636181 q 0.711026,0 1.110199,-0.36175 0.411646,-0.37422 0.411646,-1.0104 0,-0.58629 -0.386698,-0.92309 -0.274431,-0.21206 -0.785871,-0.21206 z"
     style="font-style:normal;font-variant:normal;font-weight:bold;font-stretch:normal;font-size:12.47413826px;font-family:Limerick-Serial;-inkscape-font-specification:'Limerick-Serial Bold';stroke-width:1.03951156"
     id="path26" /><path
     d="m 89.369668,198.10982 3.442862,-8.99386 h 2.058233 l 3.442862,8.99386 h -2.008336 l -0.648655,-1.75886 h -3.629975 l -0.648655,1.75886 z m 4.103991,-5.70068 -0.848241,2.48235 h 2.432457 l -0.848242,-2.48235 -0.199586,-0.59876 q -0.08732,-0.27443 -0.124741,-0.46155 -0.03742,-0.18711 -0.03742,-0.52391 -0.03742,0.37422 -0.06237,0.48649 -0.01247,0.0998 -0.112267,0.49897 z"
     style="font-style:normal;font-variant:normal;font-weight:bold;font-stretch:normal;font-size:12.47413826px;font-family:Limerick-Serial;-inkscape-font-specification:'Limerick-Serial Bold';stroke-width:1.03951156"
     id="path28" /><path
     d="m 98.475788,198.10982 v -8.99386 h 1.945962 l 3.59256,5.1643 0.31185,0.47401 q 0.12474,0.19959 0.24948,0.42413 0.12474,0.22453 0.26196,0.51143 l -0.13722,-1.0603 -0.0249,-0.54886 v -4.96471 h 1.85864 v 8.99386 h -1.8337 l -3.74224,-5.32646 -0.31185,-0.48649 -0.52392,-0.89814 q 0.0624,0.31185 0.11227,0.59876 0.0624,0.27443 0.0748,0.41165 l 0.0499,0.59875 v 5.10193 z"
     style="font-style:normal;font-variant:normal;font-weight:bold;font-stretch:normal;font-size:12.47413826px;font-family:Limerick-Serial;-inkscape-font-specification:'Limerick-Serial Bold';stroke-width:1.03951156"
     id="path30" /><path
     d="m 114.31793,189.42782 v 2.22039 l -0.39918,-0.3368 q -0.81081,-0.53639 -1.7339,-0.53639 -1.1601,0 -1.94597,0.8233 -0.77339,0.81082 -0.77339,2.02081 0,1.23494 0.78587,2.05823 0.78587,0.82329 1.97091,0.82329 0.89814,0 1.67154,-0.49896 0.16216,-0.0998 0.19958,-0.12474 0.12474,-0.12474 0.21206,-0.19959 v 2.1206 l -0.22453,0.0873 -0.63618,0.22454 -0.0499,0.0125 q -0.2869,0.0998 -0.57381,0.13722 -0.2869,0.0374 -0.6736,0.0374 -1.94597,0 -3.29318,-1.34721 -1.3472,-1.3472 -1.3472,-3.30564 0,-1.99587 1.35968,-3.34307 1.35968,-1.34721 3.39296,-1.34721 0.88567,0 1.8337,0.37422 l 0.18711,0.0873 z"
     style="font-style:normal;font-variant:normal;font-weight:bold;font-stretch:normal;font-size:12.47413826px;font-family:Limerick-Serial;-inkscape-font-specification:'Limerick-Serial Bold';stroke-width:1.03951156"
     id="path32" /><path
     d="m 115.15369,198.10982 v -8.99386 h 4.93976 v 1.64659 h -3.05617 v 1.98339 h 2.95637 v 1.60916 h -2.96884 v 2.10813 h 3.08111 v 1.64659 z"
     style="font-style:normal;font-variant:normal;font-weight:bold;font-stretch:normal;font-size:12.47413826px;font-family:Limerick-Serial;-inkscape-font-specification:'Limerick-Serial Bold';stroke-width:1.03951156"
     id="path34" /><path
     d="m 129.94799,196.97467 -0.82329,0.58629 q -1.02288,0.73597 -2.03329,0.73597 -1.08525,0 -1.82122,-0.69855 -0.7235,-0.71103 -0.7235,-1.75886 0,-1.0104 0.6736,-1.59669 0.0499,-0.0499 0.19959,-0.14969 0.24948,-0.16216 0.47401,-0.31185 l 0.53639,-0.34927 0.41165,-0.26196 q -0.0873,-0.0748 -0.19959,-0.22454 -0.34927,-0.41164 -0.49896,-0.78587 -0.14969,-0.38669 -0.14969,-0.84824 0,-1.03535 0.71102,-1.72143 0.71103,-0.68608 1.80875,-0.68608 1.03536,0 1.73391,0.62371 0.69855,0.62371 0.69855,1.55927 0,0.86071 -0.52391,1.45947 -0.21206,0.23701 -0.4865,0.46154 -0.26195,0.21207 -0.66112,0.47402 l 1.07277,1.37216 1.24741,-1.01041 1.06031,1.30979 -1.29731,0.91061 1.67153,2.04576 h -2.19545 z m -1.75886,-0.74845 0.71103,-0.46154 -1.1102,-1.40958 -0.61123,0.42412 -0.37422,0.23701 q -0.52392,0.3867 -0.52392,0.82329 0,0.34928 0.22454,0.57381 0.22453,0.22454 0.59875,0.22454 0.18712,0 0.32433,-0.0374 0.14969,-0.0374 0.37423,-0.16217 z m -0.41164,-4.93976 q 0,0.47402 0.52391,1.02288 l 0.29938,-0.21206 0.24948,-0.18711 q 0.4366,-0.34928 0.4366,-0.71103 0,-0.32432 -0.21206,-0.54886 -0.21206,-0.22453 -0.54886,-0.22453 -0.32433,0 -0.53639,0.23701 -0.21206,0.23701 -0.21206,0.6237 z"
     style="font-style:normal;font-variant:normal;font-weight:bold;font-stretch:normal;font-size:12.47413826px;font-family:Limerick-Serial;-inkscape-font-specification:'Limerick-Serial Bold';stroke-width:1.03951156"
     id="path36" /><path
     d="m 137.18295,198.10982 v -8.99386 h 4.87739 v 1.65906 h -2.9938 v 2.03329 h 2.894 v 1.62164 h -2.90647 v 3.67987 z"
     style="font-style:normal;font-variant:normal;font-weight:bold;font-stretch:normal;font-size:12.47413826px;font-family:Limerick-Serial;-inkscape-font-specification:'Limerick-Serial Bold';stroke-width:1.03951156"
     id="path38" /><path
     d="m 142.7464,198.10982 v -8.99386 h 1.8836 v 8.99386 z"
     style="font-style:normal;font-variant:normal;font-weight:bold;font-stretch:normal;font-size:12.47413826px;font-family:Limerick-Serial;-inkscape-font-specification:'Limerick-Serial Bold';stroke-width:1.03951156"
     id="path40" /><path
     d="m 145.91484,198.10982 v -8.99386 h 1.94596 l 3.59255,5.1643 0.31186,0.47401 q 0.12474,0.19959 0.24948,0.42413 0.12474,0.22453 0.26196,0.51143 l -0.13722,-1.0603 -0.025,-0.54886 v -4.96471 h 1.85865 v 8.99386 h -1.8337 l -3.74224,-5.32646 -0.31185,-0.48649 -0.52392,-0.89814 q 0.0624,0.31185 0.11227,0.59876 0.0624,0.27443 0.0748,0.41165 l 0.0499,0.59875 v 5.10193 z"
     style="font-style:normal;font-variant:normal;font-weight:bold;font-stretch:normal;font-size:12.47413826px;font-family:Limerick-Serial;-inkscape-font-specification:'Limerick-Serial Bold';stroke-width:1.03951156"
     id="path42" /><path
     d="m 154.1228,198.10982 3.44286,-8.99386 h 2.05823 l 3.44287,8.99386 h -2.00834 l -0.64865,-1.75886 h -3.62998 l -0.64865,1.75886 z m 4.10399,-5.70068 -0.84824,2.48235 h 2.43246 l -0.84824,-2.48235 -0.19959,-0.59876 q -0.0873,-0.27443 -0.12474,-0.46155 -0.0374,-0.18711 -0.0374,-0.52391 -0.0374,0.37422 -0.0624,0.48649 -0.0125,0.0998 -0.11226,0.49897 z"
     style="font-style:normal;font-variant:normal;font-weight:bold;font-stretch:normal;font-size:12.47413826px;font-family:Limerick-Serial;-inkscape-font-specification:'Limerick-Serial Bold';stroke-width:1.03951156"
     id="path44" /><path
     d="m 163.22892,198.10982 v -8.99386 h 1.94597 l 3.59255,5.1643 0.31185,0.47401 q 0.12475,0.19959 0.24949,0.42413 0.12474,0.22453 0.26195,0.51143 l -0.13721,-1.0603 -0.0249,-0.54886 v -4.96471 h 1.85865 v 8.99386 h -1.8337 l -3.74224,-5.32646 -0.31186,-0.48649 -0.52391,-0.89814 q 0.0624,0.31185 0.11227,0.59876 0.0624,0.27443 0.0748,0.41165 l 0.0499,0.59875 v 5.10193 z"
     style="font-style:normal;font-variant:normal;font-weight:bold;font-stretch:normal;font-size:12.47413826px;font-family:Limerick-Serial;-inkscape-font-specification:'Limerick-Serial Bold';stroke-width:1.03951156"
     id="path46" /><path
     d="m 179.07106,189.42782 v 2.22039 l -0.39917,-0.3368 q -0.81082,-0.53639 -1.73391,-0.53639 -1.16009,0 -1.94596,0.8233 -0.7734,0.81082 -0.7734,2.02081 0,1.23494 0.78587,2.05823 0.78587,0.82329 1.97091,0.82329 0.89814,0 1.67154,-0.49896 0.16216,-0.0998 0.19958,-0.12474 0.12475,-0.12474 0.21207,-0.19959 v 2.1206 l -0.22454,0.0873 -0.63618,0.22454 -0.0499,0.0125 q -0.2869,0.0998 -0.57381,0.13722 -0.2869,0.0374 -0.6736,0.0374 -1.94597,0 -3.29317,-1.34721 -1.34721,-1.3472 -1.34721,-3.30564 0,-1.99587 1.35968,-3.34307 1.35968,-1.34721 3.39297,-1.34721 0.88566,0 1.83369,0.37422 l 0.18712,0.0873 z"
     style="font-style:normal;font-variant:normal;font-weight:bold;font-stretch:normal;font-size:12.47413826px;font-family:Limerick-Serial;-inkscape-font-specification:'Limerick-Serial Bold';stroke-width:1.03951156"
     id="path48" /><path
     d="m 179.90682,198.10982 v -8.99386 h 1.88359 v 8.99386 z"
     style="font-style:normal;font-variant:normal;font-weight:bold;font-stretch:normal;font-size:12.47413826px;font-family:Limerick-Serial;-inkscape-font-specification:'Limerick-Serial Bold';stroke-width:1.03951156"
     id="path50" /><path
     d="m 181.9401,198.10982 3.44286,-8.99386 h 2.05823 l 3.44287,8.99386 h -2.00834 l -0.64866,-1.75886 h -3.62997 l -0.64866,1.75886 z m 4.10399,-5.70068 -0.84824,2.48235 h 2.43246 l -0.84825,-2.48235 -0.19958,-0.59876 q -0.0873,-0.27443 -0.12474,-0.46155 -0.0374,-0.18711 -0.0374,-0.52391 -0.0374,0.37422 -0.0624,0.48649 -0.0125,0.0998 -0.11226,0.49897 z"
     style="font-style:normal;font-variant:normal;font-weight:bold;font-stretch:normal;font-size:12.47413826px;font-family:Limerick-Serial;-inkscape-font-specification:'Limerick-Serial Bold';stroke-width:1.03951156"
     id="path52" /><path
     d="m 191.04622,198.10982 v -8.99386 h 1.8836 v 7.29737 h 2.7942 v 1.69649 z"
     style="font-style:normal;font-variant:normal;font-weight:bold;font-stretch:normal;font-size:12.47413826px;font-family:Limerick-Serial;-inkscape-font-specification:'Limerick-Serial Bold';stroke-width:1.03951156"
     id="path54" /><path
     d="m 208.37278,190.96214 -1.47195,1.19751 q -0.97298,-1.53432 -2.41998,-1.53432 -1.18504,0 -1.97091,0.88567 -0.78587,0.88566 -0.78587,2.22039 0,1.27237 0.77339,2.08319 0.7734,0.81082 1.98339,0.81082 0.94804,0 1.54679,-0.4865 0.61124,-0.49896 0.71103,-1.33473 h -2.30771 v -1.58421 h 4.44079 v 0.29937 q 0,2.20793 -1.18504,3.50524 -1.18505,1.29731 -3.23081,1.29731 -2.03328,0 -3.38049,-1.30979 -1.34721,-1.30978 -1.34721,-3.31812 0,-2.04576 1.34721,-3.41791 1.34721,-1.37216 3.36802,-1.37216 1.93349,0 3.24328,1.23494 0.18711,0.18712 0.31185,0.3368 0.13721,0.14969 0.37422,0.4865 z"
     style="font-style:normal;font-variant:normal;font-weight:bold;font-stretch:normal;font-size:12.47413826px;font-family:Limerick-Serial;-inkscape-font-specification:'Limerick-Serial Bold';stroke-width:1.03951156"
     id="path56" /><path
     d="m 209.79483,198.10982 v -8.99386 h 2.78174 q 1.54679,0 2.38256,0.68608 0.84824,0.68608 0.84824,1.95844 0,2.09566 -2.09566,2.64452 l 2.76926,3.70482 h -2.35761 l -2.05823,-3.09359 q -0.11227,-0.16216 -0.22454,-0.32433 -0.0998,-0.17463 -0.24948,-0.46154 0.0374,0.22453 0.0499,0.42412 0.0125,0.18711 0.0125,0.51144 v 2.9439 z m 1.84618,-7.34727 v 2.5073 h 0.63618 q 0.71102,0 1.1102,-0.36175 0.41164,-0.37422 0.41164,-1.0104 0,-0.58629 -0.3867,-0.92309 -0.27443,-0.21206 -0.78587,-0.21206 z"
     style="font-style:normal;font-variant:normal;font-weight:bold;font-stretch:normal;font-size:12.47413826px;font-family:Limerick-Serial;-inkscape-font-specification:'Limerick-Serial Bold';stroke-width:1.03951156"
     id="path58" /><path
     d="m 216.43104,193.61913 q 0,-1.99586 1.35968,-3.3306 1.37216,-1.3472 3.39297,-1.3472 2.03328,0 3.38049,1.3472 1.35968,1.33474 1.35968,3.3306 0,1.98339 -1.35968,3.33059 -1.35968,1.34721 -3.38049,1.34721 -2.02081,0 -3.39297,-1.33473 -1.35968,-1.34721 -1.35968,-3.34307 z m 4.75265,-2.88153 q -1.19752,0 -2.00834,0.83577 -0.79834,0.82329 -0.79834,2.04576 0,1.22246 0.81081,2.05823 0.81082,0.83577 1.99587,0.83577 1.17257,0 1.98338,-0.83577 0.81082,-0.83577 0.81082,-2.05823 0,-1.20999 -0.81082,-2.04576 -0.81081,-0.83577 -1.98338,-0.83577 z"
     style="font-style:normal;font-variant:normal;font-weight:bold;font-stretch:normal;font-size:12.47413826px;font-family:Limerick-Serial;-inkscape-font-specification:'Limerick-Serial Bold';stroke-width:1.03951156"
     id="path60" /><path
     d="m 234.0445,189.11596 v 5.31399 q 0,1.1102 -0.24949,1.79627 -0.3368,0.98546 -1.22246,1.5468 -0.88566,0.56133 -2.10813,0.56133 -1.53432,0 -2.49483,-0.86071 -0.56133,-0.51144 -0.81082,-1.22247 -0.24948,-0.71102 -0.24948,-1.82122 v -5.31399 h 1.87112 v 5.46368 q 0,0.59876 0.13722,0.96051 0.14969,0.47401 0.57381,0.76092 0.42412,0.2869 0.97298,0.2869 0.31185,0 0.62371,-0.11226 0.31185,-0.11227 0.53638,-0.31186 0.54887,-0.48649 0.54887,-1.58421 v -5.46368 z"
     style="font-style:normal;font-variant:normal;font-weight:bold;font-stretch:normal;font-size:12.47413826px;font-family:Limerick-Serial;-inkscape-font-specification:'Limerick-Serial Bold';stroke-width:1.03951156"
     id="path62" /><path
     d="m 235.3418,198.10982 v -8.99386 h 3.18091 q 1.29731,0 2.0707,0.74845 0.7734,0.74845 0.7734,2.02081 0,0.96051 -0.41165,1.64659 -0.41164,0.68608 -1.16009,0.98546 -0.58629,0.237 -1.48442,0.237 h -1.08525 v 3.35555 z m 1.87112,-7.44706 v 2.59462 h 0.63618 q 1.57174,0 1.57174,-1.37216 0,-0.57381 -0.32432,-0.89814 -0.32433,-0.32432 -0.92309,-0.32432 z"
     style="font-style:normal;font-variant:normal;font-weight:bold;font-stretch:normal;font-size:12.47413826px;font-family:Limerick-Serial;-inkscape-font-specification:'Limerick-Serial Bold';stroke-width:1.03951156"
     id="path64" /></g>
</svg>