<?xml version="1.0" encoding="UTF-8" standalone="no"?><!DOCTYPE svg PUBLIC "-//W3C//DTD SVG 1.1//EN" "http://www.w3.org/Graphics/SVG/1.1/DTD/svg11.dtd"><svg width="100%" height="100%" viewBox="0 0 300 210" version="1.1" xmlns="http://www.w3.org/2000/svg" xmlns:xlink="http://www.w3.org/1999/xlink" xml:space="preserve" xmlns:serif="http://www.serif.com/" style="fill-rule:evenodd;clip-rule:evenodd;stroke-linejoin:round;stroke-miterlimit:1.41421;"><rect id="Artboard1" x="0" y="0" width="300" height="210" style="fill:none;"/><path id="path9757" d="M234.363,111.918l2.486,-4.701l-3.252,-3.419l1.371,-5.182l-2.009,-1.2l0.68,-5.119l-1.139,-4.057l1.992,-1.138l-1.268,-5.207l3.326,-3.354l-2.387,-4.748l4.412,-8.831l-8.685,-4.697l-0.774,-5.26l-4.583,-0.378l-2.019,-5.444l-2.307,0.213l-2.311,-4.841l-3.208,-2.688l0.926,-2.118l-4.119,-3.424l0.668,-4.675l-4.748,-2.387l-1.728,-9.719l-9.772,1.408l-3.758,-3.758l-4.229,2.102l-4.543,-2.835l-1.726,1.547l-3.553,-2.128l-5.224,-0.65l-0.49,-2.26l-5.343,-0.363l-2.199,-4.18l-5.247,0.846l-7.093,-6.868l-7.093,6.868l-5.249,-0.846l-2.197,4.18l-5.344,0.363l-0.491,2.262l-5.205,0.68l-3.417,2.124l-1.716,-1.547l-4.551,2.825l-4.226,-2.11l-3.765,3.75l-9.768,-1.433l-1.749,9.718l-4.752,2.378l0.656,4.676l-4.126,3.415l0.923,2.122l-4.082,3.834l-1.701,3.973l-2.312,-0.225l-1.978,4.976l-4.649,0.818l-0.797,5.254l-8.706,4.658l4.373,8.853l-2.408,4.737l3.31,3.367l-1.287,5.199l2.02,1.168l-0.693,5.068l1.169,3.877l-1.975,1.154l1.318,5.196l-3.289,3.387l2.436,4.725l-4.319,8.879l8.733,4.604l0.83,5.253l4.657,0.782l2.007,4.968l2.303,-0.239l1.464,3.573l3.676,3.4l-0.949,2.101l4.082,3.468l-0.721,4.669l4.721,2.44l1.616,9.74l9.79,-1.301l3.714,3.797l4.252,-2.049l4.511,2.888l1.744,-1.531l3.442,2.111l5.203,0.562l0.494,2.251l5.344,0.349l2.208,4.175l5.245,-0.861l7.112,6.852l7.076,-6.887l5.251,0.831l2.185,-4.185l5.344,-0.378l0.479,-2.249l4.168,-0.226l4.699,-2.352l1.732,1.555l4.544,-2.84l4.227,2.099l3.757,-3.76l9.774,1.404l1.721,-9.723l4.746,-2.394l-0.672,-4.672l4.119,-3.426l-0.93,-2.122l3.762,-3.602l1.578,-3.783l2.294,0.26l2.061,-4.943l4.663,-0.742l0.883,-5.24l8.784,-4.514l-4.23,-8.923Z" style="fill-rule:nonzero;"/><path id="path9759" d="M226.173,92.565c0,-40.742 -33.028,-73.77 -73.77,-73.77c-40.74,0 -73.771,33.028 -73.771,73.77c0,40.742 33.031,73.771 73.771,73.771c40.742,0 73.77,-33.029 73.77,-73.771Z" style="fill:#fff;fill-rule:nonzero;"/><path id="path9761" d="M152.403,164.891c-39.942,0 -72.326,-32.38 -72.326,-72.326c0,-39.942 32.382,-72.323 72.326,-72.323c39.942,0 72.322,32.381 72.322,72.323c0,39.946 -32.38,72.326 -72.322,72.326Z" style="fill:#fff;fill-rule:nonzero;"/><path id="path9763" d="M152.403,20.242c-39.942,0 -72.326,32.381 -72.326,72.324c0,39.945 32.382,72.325 72.326,72.325c39.942,0 72.322,-32.38 72.322,-72.325c0,-39.943 -32.38,-72.324 -72.322,-72.324Z" style="fill-rule:nonzero;"/><path id="path9765" d="M233.196,105.089l-6.662,-1.062l-0.101,0.612l8.31,2.074l-1.547,-1.624Zm0.142,6.249l2.036,-3.848l-9.037,-2.259c-0.233,1.384 -0.504,2.76 -0.814,4.128l7.815,1.979Zm-0.891,-12.855l-5.237,-0.605l-0.022,0.289l5.837,0.662l-0.578,-0.346Zm-5.748,4.375l5.658,1.002l1.161,-4.373l-6.376,-0.725c-0.113,1.377 -0.257,2.743 -0.443,4.096Zm5.098,-5.641l0.499,-3.76l-4.906,-0.081c-0.011,1.108 -0.047,2.216 -0.109,3.323l4.516,0.518Zm0.427,-4.943l-0.888,-3.843l-4.022,0.533c0.051,1.074 0.076,2.153 0.083,3.236l4.827,0.074Zm-0.234,-10.468l-5.244,0.816c0.174,1.308 0.311,2.622 0.415,3.943l5.868,-0.487l-1.039,-4.272Zm-4.787,5.355c0.014,0.207 0.03,0.416 0.041,0.622l4.72,-0.622l0.852,-0.468l-5.613,0.468Zm5.923,-12.808l-7.528,1.744c0.245,1.1 0.463,2.209 0.658,3.324l8.68,-1.468l-1.81,-3.6Zm-6.54,7.101l6.255,-0.97l2.007,-1.912l-8.487,1.436c0.078,0.48 0.157,0.963 0.225,1.446Zm-2.592,-11.343c0.497,1.596 0.943,3.208 1.332,4.838l7.851,-1.818l3.514,-7.028l-12.697,4.008Zm-0.356,-1.123l12.571,-3.968l-6.74,-3.644l-7.434,3.231c0.58,1.447 1.115,2.906 1.603,4.381Zm-2.056,-5.467l7.14,-3.103l-0.634,-4.307l-8.182,3.697c0.593,1.222 1.15,2.459 1.676,3.713Zm-2.294,-4.954c0.117,0.234 0.237,0.469 0.353,0.705l7.237,-3.268l-3.05,-0.03l-4.54,2.593Zm-3.242,-5.717c0.104,0.161 0.199,0.322 0.299,0.482l4.716,-2.832l-1.431,0.134l-3.584,2.216Zm2.702,4.694l4.778,-2.547l-1.672,-4.275l-5.196,3.118c0.731,1.215 1.428,2.45 2.09,3.704Zm-3.333,-5.687l3.597,-2.227l-1.552,-3.248l-3.841,2.844c0.617,0.866 1.22,1.742 1.796,2.631Zm-4.532,-6.251c0.719,0.89 1.412,1.797 2.089,2.718l3.798,-2.897l-2.904,-2.716l-2.983,2.895Zm-0.43,-8.617l-3.766,3.827c0.848,0.891 1.672,1.8 2.47,2.725l4.44,-3.934l-3.144,-2.618Zm-0.319,7.7l3.49,-3.386l0.017,0.018l0.538,-1.233l-0.112,-0.096l-4.518,4.002l0.585,0.695Zm-8.226,-8.459c1.002,0.886 1.988,1.802 2.955,2.746l5.903,-6.708l-3.85,-1.937l-5.008,5.899Zm3.953,3.744l4.479,-4.553l0.084,0.083l0.329,-2.32l-5.465,6.214c0.19,0.191 0.385,0.381 0.573,0.576Zm-4.843,-4.519l5.211,-6.135l-1.375,-7.737l-7.758,10.739c1.341,1.001 2.649,2.046 3.922,3.133Zm-4.878,-3.827l7.678,-10.625l-7.585,1.097l-4.147,6.801c1.382,0.864 2.734,1.773 4.054,2.727Zm-5.056,-3.347l3.973,-6.518l-3.132,-3.133l-4.207,7.738c1.139,0.608 2.261,1.246 3.366,1.913Zm-4.774,-2.649c0.295,0.149 0.589,0.304 0.879,0.457l3.785,-6.956l-1.828,0.975l-2.836,5.524Zm-5.136,-2.361l2.345,-5.339l-0.009,-0.003l-0.977,0.91l-2.018,4.159l0.659,0.273Zm4.083,1.84l2.37,-4.614l-3.595,-2.247l-2.305,5.249c1.189,0.508 2.366,1.043 3.53,1.612Zm-5.838,-2.552l1.7,-3.503l-3.407,-1.816l-1.235,4.261c0.989,0.332 1.972,0.684 2.942,1.058Zm-2.828,-5.681l-3.881,-0.484l-0.665,3.762c1.113,0.301 2.218,0.626 3.31,0.977l1.236,-4.255Zm-5.915,-2.843l-4.086,-0.279l-0.763,5.006c1.24,0.223 2.474,0.476 3.699,0.761l1.15,-5.488Zm0.228,5.82l0.784,-4.459l0.025,0.005l-0.283,-1.315l-0.155,-0.011l-1.169,5.587c0.269,0.065 0.533,0.127 0.798,0.193Zm-6.238,-1.292l0.917,-6.012l-0.817,-1.671l-1.074,7.534c0.325,0.049 0.648,0.097 0.974,0.149Zm-0.366,-8.636l-0.095,-0.2l-4.381,0.704l-0.583,7.447c1.29,0.117 2.577,0.267 3.86,0.45l1.199,-8.401Zm-5.624,0.088l-5.646,-5.467l0,13.027c1.69,0.014 3.368,0.078 5.037,0.203l0.609,-7.763Zm-6.824,7.559l0,-12.892l-5.507,5.333l0.607,7.752c1.631,-0.118 3.265,-0.182 4.9,-0.193Zm-6.073,0.29l-0.584,-7.433l-4.213,-0.678l0.944,8.55c1.28,-0.18 2.565,-0.326 3.853,-0.439Zm-5.427,0.676c0.326,-0.052 0.656,-0.101 0.983,-0.149l-0.874,-7.935l-1.024,2.095l0.915,5.989Zm-7.045,-3.139l0.025,-0.005l0.782,4.433c0.133,-0.037 0.271,-0.067 0.404,-0.1l-1.044,-5.103l-0.167,0.775Zm5.882,3.335l-0.76,-4.98l-4.461,0.304l1.13,5.528c1.355,-0.323 2.719,-0.607 4.091,-0.852Zm-6.221,1.392l-0.656,-3.73l-3.743,0.488l1.565,4.056c0.939,-0.29 1.884,-0.562 2.834,-0.814Zm-3.956,1.179l-1.569,-4.069l-3.389,1.846l1.641,3.403c1.096,-0.42 2.203,-0.813 3.317,-1.18Zm-9.17,3.704c1.151,-0.557 2.32,-1.084 3.503,-1.58l-1.981,-5.286l-3.816,2.37l2.294,4.496Zm4.751,-2.093l-1.953,-4.049l0.023,-0.012l-0.599,-0.542l1.831,4.887c0.232,-0.096 0.464,-0.193 0.698,-0.284Zm-10.596,5.254c1.081,-0.647 2.181,-1.266 3.296,-1.86l-4.04,-7.677l-3.141,3.131l3.885,6.406Zm4.79,-2.635l-2.661,-5.465l-1.96,-0.98l3.652,6.942c0.324,-0.169 0.646,-0.335 0.969,-0.497Zm-5.796,3.247l-4.055,-6.686l-7.775,-1.139l7.641,10.62c1.365,-0.978 2.762,-1.91 4.189,-2.795Zm-5.142,3.491l-7.565,-10.521l-1.359,7.545l5.087,6.017c1.246,-1.055 2.526,-2.07 3.837,-3.041Zm-4.73,3.807l-4.883,-5.774l-3.883,1.94l6.052,6.327c0.884,-0.853 1.789,-1.684 2.714,-2.493Zm-8.402,-0.61l4.422,4.349c0.276,-0.279 0.556,-0.555 0.837,-0.829l-5.585,-5.84l0.326,2.32Zm3.598,5.193l-3.628,-3.706l-3.622,2.998l4.548,3.695c0.874,-1.02 1.775,-2.015 2.702,-2.987Zm-6.829,0.619l0.017,-0.018l3.351,3.266c0.119,-0.146 0.247,-0.285 0.369,-0.429l-3.883,-3.155l0.146,0.336Zm2.617,4.161l-2.841,-2.771l-2.981,2.801l3.906,2.432c0.62,-0.835 1.26,-1.654 1.916,-2.462Zm-2.614,3.417l-3.929,-2.449l-1.849,3.748l3.6,1.897c0.7,-1.087 1.427,-2.15 2.178,-3.196Zm-5.393,8.693c0.576,-1.087 1.178,-2.157 1.805,-3.209l-4.939,-3.292l-1.639,4.122l4.773,2.379Zm2.587,-4.499l-4.243,-2.232l0.012,-0.025l-0.93,-0.09l4.685,3.126c0.158,-0.26 0.315,-0.52 0.477,-0.779l-0.001,0Zm-12.593,7.547l7.162,2.932c0.453,-1.074 0.933,-2.136 1.434,-3.185l-7.974,-3.852l-0.622,4.105Zm9.461,-2.008l-5.632,-2.932l-2.611,0.459l7.635,3.69c0.198,-0.406 0.401,-0.812 0.608,-1.217Zm-2.746,6.03l-7.462,-3.055l-6.929,3.709l12.676,4.064c0.52,-1.598 1.093,-3.171 1.715,-4.718Zm-3.361,10.547c0.38,-1.589 0.807,-3.161 1.285,-4.709l-12.547,-4.024l3.394,6.873l7.868,1.86Zm-7.821,-0.638l-1.939,3.813l8.86,1.188c0.192,-1.079 0.403,-2.152 0.637,-3.215l-7.558,-1.786Zm0.241,6.242l6.334,0.898c0.075,-0.518 0.158,-1.035 0.244,-1.55l-8.318,-1.118l1.74,1.77Zm0.881,6.608l4.79,0.815c0.02,-0.344 0.042,-0.687 0.067,-1.03l-5.892,-0.385l1.035,0.6Zm-0.019,-5.392l-1.039,4.195l5.959,0.388c0.1,-1.253 0.227,-2.5 0.388,-3.734l-5.308,-0.849Zm1.137,15.19l3.653,-0.522c-0.058,-1.102 -0.092,-2.206 -0.102,-3.31l-4.46,0.12l0.909,3.712Zm-0.977,-4.885l4.523,-0.127c0.005,-0.929 0.028,-1.859 0.068,-2.782l-4.092,-0.73l-0.499,3.639Zm4.702,5.541l-4.34,0.622l-0.754,0.422l5.129,-0.584l-0.035,-0.46Zm-4.312,5.975l4.85,-0.807c-0.189,-1.367 -0.341,-2.739 -0.456,-4.113l-5.484,0.624l1.09,4.296Zm5.02,0.36l-5.871,0.862l-1.498,1.541l7.515,-1.503c-0.049,-0.3 -0.102,-0.603 -0.146,-0.9l0,0Zm-8.109,3.161l2.034,3.944l7.109,-1.722c-0.298,-1.292 -0.561,-2.592 -0.789,-3.897l-8.347,1.668l-0.007,0.007Zm9.414,3.364l-7.419,1.799l-3.438,7.066l12.238,-4.002c-0.516,-1.605 -0.977,-3.226 -1.381,-4.863Zm1.749,5.979l-12.112,3.969l6.782,3.574l7.054,-2.939c-0.626,-1.515 -1.201,-3.051 -1.724,-4.604Zm2.188,5.685l-6.764,2.819l0.686,4.358l7.769,-3.547c-0.597,-1.196 -1.162,-2.403 -1.691,-3.63Zm2.361,4.945c-0.137,-0.26 -0.269,-0.522 -0.402,-0.783l-6.977,3.186l2.06,0.284l5.319,-2.687Zm-0.715,7.604l3.909,-2.09c-0.084,-0.13 -0.165,-0.264 -0.249,-0.399l-4.634,2.612l0.984,-0.103l-0.01,-0.02Zm1.271,-6.567l-4.416,2.234l1.645,4.064l4.841,-2.73c-0.724,-1.169 -1.414,-2.359 -2.07,-3.568Zm3.283,5.465l-3.287,1.761l1.55,3.242l3.409,-2.582c-0.573,-0.796 -1.13,-1.603 -1.672,-2.421Zm4.312,5.882c-0.666,-0.825 -1.318,-1.658 -1.949,-2.507l-3.403,2.575l2.672,2.475l2.68,-2.543Zm0.672,8.297l3.544,-3.523c-0.952,-0.992 -1.876,-2.01 -2.773,-3.051l-4.173,3.681l3.402,2.893Zm0.079,-7.388l-3.219,3.021l-0.336,0.742l3.861,-3.406c-0.1,-0.116 -0.206,-0.236 -0.306,-0.357Zm5.147,5.565l-5.681,6.337l-0.023,0.148l3.939,2.035l4.889,-5.63c-1.069,-0.934 -2.11,-1.897 -3.124,-2.89Zm-0.86,-0.854l-4.356,4.164l-0.3,1.946l5.09,-5.678c-0.144,-0.144 -0.29,-0.285 -0.434,-0.432Zm4.878,4.518l-5.106,5.874l1.287,7.756l7.764,-10.5c-1.35,-0.999 -2.665,-2.043 -3.945,-3.13Zm4.9,3.825l-7.693,10.396l7.599,-1.009l4.168,-6.668c-1.386,-0.863 -2.745,-1.77 -4.074,-2.719Zm9.861,5.968c-0.337,-0.169 -0.673,-0.343 -1.009,-0.516l-4.059,7.136l2.175,-1.134l2.893,-5.486Zm-4.783,-2.632l-4.001,6.397l2.941,3.008l4.307,-7.572c-1.098,-0.583 -2.18,-1.195 -3.247,-1.833Zm10.591,5.244c-0.255,-0.104 -0.508,-0.206 -0.763,-0.313l-2.121,5.242l0.782,-0.71l2.102,-4.219Zm-4.748,-2.096l-2.426,4.597l3.676,2.356l2.185,-5.4c-1.158,-0.484 -2.303,-1.002 -3.435,-1.553Zm5.85,2.532l-1.786,3.58l3.342,1.795l1.438,-4.308c-1.005,-0.336 -2.003,-0.692 -2.994,-1.067Zm2.685,5.716l3.791,0.408l0.661,-3.814c-1.014,-0.272 -2.022,-0.566 -3.023,-0.883l-1.429,4.289Zm5.597,-3.104l-0.783,4.504l-0.024,-0.004l0.246,1.123l1.239,-5.458l-0.678,-0.165Zm0,5.846l4.319,0.282l0.756,-5.04c-1.279,-0.226 -2.552,-0.487 -3.817,-0.782l-1.258,5.54Zm6.966,4.269l4.128,-0.677l0.566,-7.464c-1.3,-0.116 -2.597,-0.267 -3.889,-0.454l-0.805,8.595Zm-0.729,-8.827l-0.907,6.046l1.089,2.215l0.762,-8.113c-0.317,-0.049 -0.63,-0.093 -0.944,-0.148Zm6.595,0.786l-0.587,7.777l5.659,5.456l-0.037,-13.029c-1.68,-0.014 -3.359,-0.082 -5.035,-0.204Zm6.216,0.202l0.035,12.892l5.493,-5.345l-0.625,-7.735c-1.632,0.116 -3.267,0.179 -4.903,0.188Zm6.075,-0.288l0.599,7.413l4.114,0.652l-0.786,-8.512c-1.302,0.187 -2.612,0.334 -3.927,0.447Zm5.428,-0.673c-0.302,0.051 -0.608,0.096 -0.912,0.144l0.749,8.093l1.204,-2.304l-1.041,-5.933Zm7.048,3.087l-0.028,0.003l-0.777,-4.36l-0.494,0.12l1.177,4.81l0.122,-0.573Zm-5.886,-3.279l0.77,4.938l4.567,-0.323l-1.329,-5.436c-1.329,0.313 -2.663,0.584 -4.008,0.821Zm6.223,-1.38l0.658,3.671l3.9,-0.403l-1.38,-4.192c-1.054,0.334 -2.111,0.643 -3.178,0.924Zm4.3,-1.281l1.392,4.226l3.465,-1.737l-1.749,-3.602c-1.029,0.396 -2.064,0.763 -3.108,1.113Zm4.206,-1.549l2.07,4.268l-0.022,0.007l1.001,0.9l0.035,-0.021l-2.447,-5.411c-0.213,0.087 -0.424,0.176 -0.637,0.257l0,0Zm4.741,-2.097c-1.17,0.566 -2.355,1.109 -3.552,1.614l2.405,5.314l3.563,-2.229l-2.416,-4.699Zm5.831,-3.152c-1.079,0.649 -2.172,1.264 -3.28,1.855l4.191,7.841l3.11,-3.113l-4.021,-6.583Zm-4.774,2.633l2.781,5.662l2.011,0.992l-3.825,-7.151c-0.318,0.169 -0.64,0.332 -0.967,0.497Zm5.778,-3.252l4.191,6.863l7.778,1.12l-7.801,-10.781c-1.356,0.981 -2.746,1.915 -4.168,2.798Zm5.121,-3.487l7.725,10.67l1.336,-7.547l-5.241,-6.166c-1.249,1.058 -2.519,2.074 -3.82,3.043Zm13.171,-3.595l-4.479,-3.973c-0.225,0.23 -0.453,0.457 -0.68,0.68l5.534,5.889l-0.375,-2.596Zm-8.465,-0.216l5.038,5.922l3.96,-1.995l-0.012,-0.09l-6.109,-6.499c-0.934,0.914 -1.894,1.801 -2.877,2.662Zm4.811,-4.597l4.067,3.602l3.056,-2.544l-4.595,-3.832c-0.82,0.945 -1.663,1.87 -2.528,2.774Zm6.945,-0.475l-0.016,0.018l-3.491,-3.389c-0.172,0.209 -0.348,0.411 -0.524,0.618l4.453,3.711l-0.422,-0.958Zm-2.758,-4.28l2.976,2.888l2.779,-2.661l-3.725,-2.843c-0.654,0.884 -1.332,1.758 -2.03,2.616Zm2.723,-3.57l3.72,2.839l1.652,-3.465l-3.597,-1.971c-0.573,0.878 -1.165,1.744 -1.775,2.597Zm5.033,-8.062c-0.664,1.232 -1.362,2.445 -2.092,3.639l5.173,2.976l1.721,-4.128l-4.802,-2.487Zm-2.616,4.477l4.228,2.31l-0.013,0.025l0.784,0.089l-4.795,-2.752c-0.067,0.105 -0.132,0.218 -0.204,0.328Zm3.162,-5.521l5.722,2.964l2.709,-0.347l-7.916,-3.628c-0.17,0.334 -0.341,0.675 -0.515,1.011Zm2.321,-4.92c-0.484,1.135 -1.002,2.258 -1.544,3.368l8.127,3.732l0.675,-3.991l-7.258,-3.109Zm0.459,-1.085l7.562,3.241l6.986,-3.591l-12.805,-4.359c-0.528,1.588 -1.11,3.159 -1.743,4.709Zm3.408,-10.496c-0.381,1.566 -0.817,3.111 -1.297,4.642l12.693,4.347l-3.283,-6.927l-8.113,-2.062Zm-72.849,-71.232c-29.436,0 -53.299,23.863 -53.299,53.298c0,29.435 23.863,53.3 53.299,53.3c29.433,0 53.296,-23.865 53.296,-53.3c0,-29.435 -23.863,-53.298 -53.296,-53.298Z" style="fill:#fff;fill-rule:nonzero;"/><path id="path9767" d="M189.183,55.786c-9.825,-9.825 -22.886,-15.236 -36.78,-15.236c-28.682,0 -52.015,23.334 -52.015,52.016c0,13.892 5.41,26.956 15.235,36.783c9.825,9.819 22.886,15.234 36.78,15.234c13.892,0 26.955,-5.415 36.78,-15.234c9.826,-9.827 15.235,-22.889 15.235,-36.783c0,-13.893 -5.409,-26.956 -15.235,-36.78Z" style="fill-rule:nonzero;"/><path id="path9771" d="M199.248,83.068c0.438,1.622 1.577,7.109 -0.812,13.897c-0.007,0.014 -0.003,0.036 -0.008,0.055c-0.572,0.343 -1.273,0.619 -1.333,0.645c0.26,-0.608 0.767,-1.638 1.252,-2.565c0.022,-0.042 0.034,-0.09 0.034,-0.138c0,-0.112 -0.063,-0.214 -0.163,-0.264c-0.042,-0.023 -0.09,-0.035 -0.139,-0.035c-0.109,0 -0.21,0.061 -0.261,0.158c-0.413,0.789 -1.331,2.575 -1.479,3.192c-0.088,0.047 -0.177,0.091 -0.267,0.134c0.211,-1.795 1.914,-4.597 1.932,-4.629c0.088,-0.142 0.042,-0.327 -0.099,-0.411c-0.14,-0.084 -0.326,-0.04 -0.413,0.098c-0.082,0.139 -2.037,3.349 -2.04,5.279c-0.102,0.055 -0.203,0.113 -0.301,0.169c0.29,-1.844 2.187,-6.189 2.206,-6.235c0.014,-0.036 0.022,-0.074 0.022,-0.112c0,-0.164 -0.135,-0.299 -0.299,-0.299c-0.115,0 -0.22,0.066 -0.27,0.17c-0.079,0.176 -1.673,3.825 -2.16,5.912c0.098,-1.215 0.41,-3.152 1.308,-5.346c0.016,-0.037 0.024,-0.076 0.024,-0.116c0,-0.121 -0.074,-0.231 -0.186,-0.276c-0.036,-0.015 -0.074,-0.022 -0.113,-0.022c-0.122,0 -0.232,0.074 -0.277,0.187c-1.392,3.39 -1.429,6.081 -1.366,6.856c-0.523,0.366 -1.023,0.764 -1.498,1.192c-0.202,-2.507 -1.352,-14.072 6.707,-17.496l-0.001,0Zm-2.548,24.105c-0.183,0.009 -0.366,-0.004 -0.545,-0.04c0.089,-0.134 0.182,-0.278 0.263,-0.447c0.022,-0.041 0.033,-0.088 0.033,-0.135c0,-0.113 -0.064,-0.216 -0.165,-0.267c-0.041,-0.021 -0.088,-0.032 -0.135,-0.032c-0.113,0 -0.217,0.064 -0.267,0.166c-0.111,0.222 -0.246,0.431 -0.403,0.624c-0.149,-0.007 -0.299,-0.008 -0.448,-0.004c0.178,-0.183 0.329,-0.357 0.438,-0.525c0.031,-0.049 0.048,-0.105 0.048,-0.163c0,-0.164 -0.136,-0.299 -0.3,-0.299c-0.101,0 -0.196,0.051 -0.251,0.136c-0.183,0.289 -0.529,0.612 -0.903,0.923c-0.345,0.04 -0.689,0.089 -1.031,0.148c1.322,-1.463 2.954,-3.498 3.987,-5.641c0.019,-0.04 0.03,-0.085 0.03,-0.129c0,-0.165 -0.136,-0.3 -0.3,-0.3c-0.116,0 -0.222,0.066 -0.271,0.17c-1.762,3.646 -5.437,7.121 -5.937,7.579c-0.082,0.028 -0.165,0.054 -0.249,0.075c0.235,-1.32 0.246,-2.671 0.031,-3.996c0.037,-0.04 1.451,-4.203 7.248,-6.688c0.042,-0.018 1.065,-0.404 1.858,-1.034c0.292,1.821 0.702,6.761 -2.731,9.879Zm-28.599,29.232c-0.399,-0.065 -2.857,-0.555 -4.486,-2.417c-0.057,-0.065 -0.139,-0.102 -0.225,-0.102c-0.073,0 -0.143,0.026 -0.197,0.074c-0.065,0.056 -0.103,0.137 -0.103,0.223c0,0.072 0.027,0.141 0.075,0.195c0.255,0.292 0.527,0.549 0.803,0.782c-0.279,0.786 -1.547,0.271 -1.601,0.261c-0.863,-0.385 -2.224,-1.56 -4.112,-4.787c-0.053,-0.092 -0.152,-0.149 -0.258,-0.149c-0.053,0 -0.106,0.015 -0.152,0.042c-0.092,0.053 -0.149,0.152 -0.149,0.258c0,0.054 0.015,0.107 0.042,0.153c1.357,2.313 2.604,3.869 3.729,4.651c-0.749,-0.003 -1.992,-0.429 -3.277,-2.691c-0.083,-0.141 -0.267,-0.19 -0.41,-0.109c-0.092,0.052 -0.15,0.151 -0.15,0.257c0,0.053 0.014,0.105 0.041,0.151c0.971,1.703 1.95,2.475 2.771,2.795c-0.554,0.051 -1.275,-0.004 -2.14,-0.331c-0.523,-0.697 -0.958,-1.457 -1.293,-2.262c-0.05,-0.104 -0.156,-0.17 -0.271,-0.17c-0.165,0 -0.301,0.136 -0.301,0.301c0,0.033 0.006,0.065 0.016,0.096c0.025,0.058 0.313,0.759 0.782,1.538c-0.414,-0.234 -1.457,0.104 -1.541,-1.645c-0.007,-0.166 -0.192,-0.264 -0.354,-0.234c-0.139,0.027 -0.241,0.151 -0.241,0.293c0,0.02 0.002,0.04 0.006,0.06c0.023,0.109 0.137,0.649 0.378,1.225c-0.873,-0.797 -1.522,-1.809 -1.881,-2.935l0,-2.482c-0.002,-0.218 -0.182,-0.396 -0.399,-0.396c-0.219,-0.001 -0.4,0.177 -0.403,0.396l0,2.448c-0.817,1.82 -1.74,3.004 -2.651,3.757c-0.093,-0.051 -1.111,0.309 -1.46,0.343c0.399,-0.581 0.638,-1.117 0.659,-1.164c0.065,-0.15 -0.005,-0.327 -0.155,-0.392c-0.038,-0.017 -0.08,-0.026 -0.122,-0.026c-0.118,0 -0.225,0.069 -0.273,0.177c-0.283,0.625 -0.661,1.202 -1.122,1.711c-0.369,0.175 -0.907,0.119 -1.359,0.01c0.696,-0.656 1.183,-1.459 1.215,-1.51c0.028,-0.046 0.042,-0.1 0.042,-0.154c0,-0.164 -0.135,-0.3 -0.3,-0.3c-0.105,0 -0.203,0.056 -0.257,0.146c-0.215,0.354 -0.754,1.113 -1.368,1.604c0,0 -0.502,-0.101 -0.664,-0.192c1.083,-0.677 1.865,-1.538 1.912,-1.589c0.11,-0.122 0.099,-0.313 -0.022,-0.422c-0.123,-0.108 -0.313,-0.099 -0.424,0.021c-0.014,0.018 -1.088,1.199 -2.407,1.83c-0.132,-0.018 -0.262,-0.048 -0.388,-0.09c0.898,-0.498 1.718,-1.125 2.435,-1.861c0.054,-0.056 0.084,-0.131 0.084,-0.209c0,-0.165 -0.135,-0.301 -0.3,-0.301c-0.081,0 -0.159,0.033 -0.215,0.091c-0.859,0.886 -1.879,1.6 -3.004,2.105c-0.35,0.061 -0.71,0.024 -1.039,-0.108c0.856,-0.471 1.406,-0.919 1.455,-0.961c0.068,-0.057 0.107,-0.141 0.107,-0.23c0,-0.164 -0.135,-0.299 -0.299,-0.299c-0.07,0 -0.139,0.025 -0.193,0.07l0.002,0c-0.014,0.011 -0.703,0.577 -1.742,1.092c0,0 -0.946,0.037 -1.148,-0.021c0.901,-0.292 1.764,-0.69 2.57,-1.185c0.089,-0.055 0.144,-0.152 0.144,-0.256c0,-0.164 -0.135,-0.299 -0.299,-0.299c-0.055,0 -0.109,0.015 -0.156,0.043c-3.769,2.294 -6.961,1.487 -7.817,1.199c-0.682,-0.453 -1.282,-1.02 -1.774,-1.675c2.201,0.789 5.808,1.57 9.466,0.133c0.044,-0.021 4.915,-3.869 5.856,-8.116c0.065,-0.024 0.566,-1.394 0.592,-1.995c0.309,0.037 0.737,0.058 1.296,0.025c0.112,0.385 0.151,0.861 0.037,1.438c-0.007,0.024 -0.01,0.049 -0.01,0.074c0,0.164 0.135,0.299 0.299,0.299c0.148,0 0.275,-0.11 0.296,-0.257c0.117,-0.534 0.111,-1.087 -0.018,-1.617c0.383,-0.048 0.811,-0.12 1.289,-0.231c0.174,0.498 0.255,1.157 0.074,1.992c-0.005,0.021 -0.008,0.043 -0.008,0.065c0,0.14 0.099,0.262 0.236,0.292c0.161,0.034 0.322,-0.07 0.357,-0.231c0.202,-0.933 0.118,-1.682 -0.077,-2.262c0.132,-0.037 0.492,-0.123 0.636,-0.144c0.041,0.168 0.056,0.342 0.046,0.515c-0.017,0.163 0.104,0.31 0.267,0.327c0.011,0.001 0.023,0.002 0.035,0.002c0.151,0 0.279,-0.115 0.295,-0.266c0.015,-0.217 -0.001,-0.436 -0.049,-0.648c0.16,-0.014 0.341,-0.029 0.533,-0.041c0.105,0.649 0.176,1.535 0.051,2.554c-0.018,0.162 0.1,0.317 0.262,0.333c0.012,0.001 0.025,0.002 0.038,0.002c0.15,0 0.277,-0.114 0.294,-0.263c0.106,-0.878 0.092,-1.766 -0.042,-2.64c0.2,0 0.406,0.007 0.617,0.014c0.014,0.454 0.01,0.972 -0.037,1.501c-0.018,0.162 0.107,0.31 0.271,0.324c0.163,0.014 0.309,-0.107 0.325,-0.267c0.047,-0.533 0.052,-1.048 0.04,-1.498c0.222,0.031 0.441,0.072 0.656,0.123c-0.018,0.244 -0.048,0.522 -0.093,0.835c-0.027,0.162 0.088,0.316 0.253,0.339c0.165,0.023 0.316,-0.089 0.339,-0.255c0.037,-0.267 0.067,-0.515 0.086,-0.735c0.227,0.09 0.663,0.415 0.691,0.454c0.106,6.091 5.449,10.176 5.678,10.349c2.774,2.1 6.295,1.798 8.264,1.39c-1.021,0.82 -2.224,1.383 -3.507,1.642Zm-45.116,-3.811l7.447,-23.327c0.782,1.037 1.638,2.029 2.573,2.964c2.799,2.806 6.167,4.979 9.877,6.372l-19.897,13.991Zm-16.821,-49.776c0.557,0.904 3.286,3.739 3.423,3.86c2.642,2.389 3.927,8.443 3.941,8.502c0,0 -0.206,1.891 -0.195,2.708c-0.207,-1.062 -0.358,-2.135 -0.45,-3.213c-0.011,-0.154 -0.14,-0.275 -0.295,-0.275c-0.009,0 -0.018,0 -0.027,0.001c-0.154,0.009 -0.275,0.139 -0.275,0.293c0,0.009 0,0.018 0.001,0.027c0.01,0.165 0.255,3.131 0.933,5.129c-1.004,-2.366 -1.265,-6.187 -1.271,-6.238c-0.01,-0.156 -0.142,-0.279 -0.298,-0.279c-0.007,0 -0.014,0 -0.022,0.001c-0.163,0.012 -0.288,0.156 -0.277,0.32c0.008,0.144 0.144,2.107 0.604,4.117c-0.564,-1.647 -0.924,-3.356 -1.072,-5.089c-0.01,-0.164 -0.153,-0.291 -0.316,-0.282c-0.165,0.011 -0.292,0.154 -0.282,0.319c0.009,0.142 0.169,2.652 1.138,5.365c-1.403,-3.551 -2.927,-9.377 -2.946,-9.451c-0.034,-0.132 -0.154,-0.225 -0.291,-0.225c-0.164,0 -0.299,0.136 -0.299,0.3c0,0.025 0.003,0.05 0.009,0.075c0.088,0.341 1.885,7.2 3.412,10.564c-0.593,-0.324 -1.203,-0.617 -1.826,-0.879c-4.393,-6.751 -3.86,-12.966 -3.319,-15.65Zm5.694,-13.992c0.021,-0.016 -0.016,0.019 0,0c0.026,-0.027 0.58,-0.642 1.157,-1.876c3.223,3.343 2.366,7.808 2.163,9.002l-2.434,0l-0.26,-3.651c-0.012,-0.156 -0.143,-0.278 -0.299,-0.278c-0.165,0 -0.3,0.136 -0.3,0.3c0,0.007 0,0.015 0.001,0.022l0.257,3.607l-3.064,0c-0.027,-0.919 0.054,-4.945 2.779,-7.126Zm23.408,-17.484c7.444,-5.237 10.967,-5.008 11.092,-4.85c0.031,0.037 0.276,0.413 -0.521,1.89c-0.036,0.077 -2.622,5.456 -5.382,7.247c-1.036,-0.047 -2.057,0 -3.055,0.125c1.049,-0.921 2.752,-2.364 3.693,-2.878c0.096,-0.051 0.157,-0.152 0.157,-0.261c0,-0.051 -0.013,-0.1 -0.038,-0.145c-0.052,-0.096 -0.153,-0.156 -0.262,-0.156c-0.05,0 -0.1,0.013 -0.144,0.037c-1.274,0.696 -3.756,2.899 -4.501,3.574c-0.809,0.149 -1.602,0.341 -2.37,0.576c1.8,-1.515 6.443,-5.33 9.146,-6.681c0.147,-0.075 0.207,-0.256 0.134,-0.403c-0.05,-0.101 -0.154,-0.166 -0.267,-0.166c-0.046,0 -0.092,0.011 -0.134,0.032c-2.711,1.354 -7.16,4.987 -9.086,6.606c1.184,-1.863 1.531,-3.403 1.538,-4.547Zm-9.611,24.61l-2.909,0l1.547,-0.693c0.108,-0.048 0.177,-0.155 0.177,-0.273c0,-0.042 -0.008,-0.084 -0.026,-0.122c-0.068,-0.15 -0.247,-0.218 -0.397,-0.151c0,0 -2.686,1.214 -2.713,1.239l-4.079,0c2.025,-1.114 6.685,-3.391 10.33,-2.969c-0.428,0.942 -1.191,2.378 -1.93,2.969Zm0.25,-3.996c-0.869,0.067 -1.73,0.21 -2.574,0.428c1.227,-0.651 2.395,-1.305 2.887,-1.688c0.073,-0.057 0.116,-0.144 0.116,-0.236c0,-0.165 -0.136,-0.3 -0.3,-0.3c-0.066,0 -0.131,0.022 -0.184,0.063c-1.16,0.902 -8.982,4.787 -9.576,5.133l0.019,-0.181c0.624,-0.469 5.681,-4.229 8.355,-4.959c0.13,-0.035 0.222,-0.154 0.222,-0.289c0,-0.164 -0.136,-0.3 -0.3,-0.3c-0.026,0 -0.053,0.004 -0.078,0.011c-2.474,0.673 -6.698,3.682 -8.136,4.744c0.024,-0.47 0.021,-0.94 -0.007,-1.41c1.575,-1.629 8.665,-8.458 16.805,-8.423c-0.624,1.334 -2.529,4.561 -7.249,7.407l0,0Z" style="fill:#fff;fill-rule:nonzero;"/><path id="path9773" d="M133.834,63.568c-0.703,-0.034 -1.409,-0.021 -2.111,0.038l2.062,-1.281c0.088,-0.055 0.141,-0.151 0.141,-0.255c0,-0.056 -0.016,-0.112 -0.046,-0.16c-0.054,-0.087 -0.15,-0.141 -0.254,-0.141c-0.056,0 -0.111,0.016 -0.159,0.046l-3.154,1.967c-1.107,0.185 -2.181,0.475 -3.213,0.835c2.055,-1.425 4.976,-3.422 6.272,-4.15c0.094,-0.052 0.153,-0.152 0.153,-0.26c0,-0.053 -0.014,-0.104 -0.04,-0.15c-0.081,-0.142 -0.264,-0.194 -0.407,-0.114c-2.118,1.194 -8.288,5.558 -8.548,5.745c-0.005,0.002 -0.009,0.007 -0.012,0.01c-0.958,0.47 -1.86,0.986 -2.7,1.521c0.123,-0.622 0.263,-1.426 0.392,-2.349c1.378,-1.346 9.538,-8.879 18.608,-8.214c-0.483,1.29 -2.139,4.588 -6.984,6.912l0,0Z" style="fill:#fff;fill-rule:nonzero;"/><path id="path9775" d="M134.008,49.828c0.341,0.821 0.976,3.504 -2.751,7.647c0,0 -3.784,1.971 -5.282,3.013c0.889,-1.339 2.18,-3.032 3.407,-3.753c0.091,-0.054 0.147,-0.152 0.147,-0.258c0,-0.165 -0.135,-0.3 -0.3,-0.3c-0.053,0 -0.105,0.014 -0.151,0.041c-1.813,1.067 -3.66,3.948 -4.418,5.225c-0.932,0.711 -1.7,1.365 -2.266,1.875l0.037,-0.402c1.28,-1.607 5.207,-6.434 7.919,-8.602c0.071,-0.056 0.113,-0.142 0.113,-0.233c0,-0.069 -0.024,-0.135 -0.067,-0.188c-0.057,-0.072 -0.143,-0.113 -0.234,-0.113c-0.067,0 -0.133,0.023 -0.186,0.065c-2.473,1.978 -5.829,5.987 -7.468,8.016c0.078,-1.331 -0.049,-4.048 -0.049,-4.048c0.048,-0.076 4.615,-7.035 11.549,-7.985Zm-12.771,6.724c0.874,4.296 -0.307,10.108 -0.606,11.458c-1.571,1.103 -3.05,2.332 -4.421,3.676c-0.024,-0.147 -0.051,-0.294 -0.081,-0.44c0.417,-0.587 2.897,-4.127 3.402,-5.899c0.007,-0.027 0.011,-0.055 0.011,-0.083c0,-0.164 -0.135,-0.3 -0.3,-0.3c-0.133,0 -0.251,0.089 -0.288,0.217c-0.265,0.93 -1.148,2.435 -1.942,3.678c1.13,-2.268 2.912,-6.1 3.456,-8.728c0.004,-0.02 0.006,-0.04 0.006,-0.061c0,-0.141 -0.1,-0.264 -0.238,-0.292c-0.02,-0.004 -0.041,-0.006 -0.061,-0.006c-0.142,0 -0.265,0.101 -0.293,0.24c-0.654,3.16 -3.252,8.302 -4.097,9.928c-0.31,-0.952 -0.749,-1.857 -1.303,-2.691c0.666,-3.825 5.1,-8.909 6.755,-10.697Zm8.433,20.398c-2.989,4.389 -4.653,9.548 -4.79,14.856l-19.727,-14.856l24.517,0Z" style="fill:#fff;fill-rule:nonzero;"/><path id="path9777" d="M152.668,65.735c7.117,-0.019 13.953,2.813 18.971,7.86c5.048,5.017 7.881,11.853 7.862,18.971c0,14.796 -12.037,26.83 -26.833,26.83c-7.116,0.02 -13.953,-2.812 -18.97,-7.86c-5.047,-5.017 -7.879,-11.854 -7.858,-18.97c-0.02,-7.117 2.812,-13.953 7.858,-18.971c5.018,-5.046 11.854,-7.878 18.97,-7.86Z" style="fill:#fff;fill-rule:nonzero;"/><path id="path9779" d="M144.427,66.004l7.968,-23.065l7.733,22.833c-5.147,-1.426 -10.598,-1.345 -15.701,0.232Zm36.038,27.075l4.226,-3.266c-1.004,2.276 -0.624,5.038 -0.452,5.982c-2.19,2.334 -2.169,6.084 -2.032,7.766c-0.257,0.714 -1.327,1.589 -1.334,1.596c-2.058,1.28 -3.608,3.237 -4.383,5.534l-0.829,-2.479c3.05,-4.464 4.721,-9.727 4.804,-15.133Zm11.224,2.317c0.009,0.096 0.046,1.04 0.025,1.418c-0.181,-0.594 -0.413,-1.172 -0.693,-1.726c-0.08,-0.143 -0.262,-0.198 -0.408,-0.123c-0.144,0.08 -0.197,0.263 -0.119,0.408c0.01,0.018 0.886,1.686 1.19,4.064l0.007,0.234l-0.436,0.46c-0.18,-1.344 -0.45,-2.675 -0.809,-3.983c-0.033,-0.128 -0.15,-0.218 -0.282,-0.218c-0.029,0 -0.058,0.004 -0.085,0.012c-0.13,0.036 -0.22,0.154 -0.22,0.289c0,0.026 0.004,0.053 0.011,0.079c0.007,0.028 0.622,2.225 0.845,4.387l-0.033,0.032c-0.635,-3.141 -2.298,-6.458 -2.389,-6.632c-0.051,-0.1 -0.154,-0.163 -0.266,-0.163c-0.165,0 -0.3,0.135 -0.3,0.299c0,0.047 0.012,0.094 0.033,0.136l-0.002,0c0.03,0.055 2.693,5.363 2.567,8.775c-0.085,0.197 -0.177,0.391 -0.278,0.581c-1.197,-4.471 -4.488,-7.587 -5.015,-8.066c-0.204,-1.135 -0.401,-5.948 2.166,-7.634c0.037,-0.023 0.42,0.088 0.916,1.48c0.022,0.067 3.327,2.901 3.575,5.891Zm-9.596,22.557c-0.322,0.072 -0.668,0.161 -1.011,0.255c0.427,-1.178 0.647,-2.421 0.65,-3.674c-0.014,-0.153 -0.144,-0.27 -0.297,-0.27c-0.158,0 -0.291,0.125 -0.298,0.284c0,0.024 0.026,2.028 -0.79,3.869c-0.388,0.112 -0.774,0.231 -1.158,0.357l-0.44,-1.312c0.575,-0.443 1.795,-1.668 2.119,-4.285c0.003,-0.032 0.2,-2.307 0.708,-3.516c0.016,-0.037 0.024,-0.077 0.024,-0.117c0,-0.12 -0.072,-0.228 -0.182,-0.275c-0.037,-0.016 -0.077,-0.024 -0.117,-0.024c-0.12,0 -0.228,0.072 -0.275,0.182c-0.547,1.294 -0.749,3.591 -0.76,3.688c-0.265,2.173 -1.19,3.271 -1.721,3.739l-1.594,-4.773c0.186,-0.982 1.027,-4.139 4.361,-6.259c0.037,-0.032 0.535,-0.382 0.994,-0.983c0.467,1.624 1.411,5.442 1.39,9.716c-0.641,1.079 -1.178,2.217 -1.603,3.398Z" style="fill:#fff;fill-rule:nonzero;"/><path id="path9781" d="M184.718,96.457c1.232,1.185 6.121,6.355 4.716,12.806c-0.003,0.014 0.002,0.025 0,0.041c-0.476,-0.011 -1.049,-0.173 -1.44,-0.313c0.424,-1.823 0.528,-3.776 0.533,-3.894c0,-0.005 0,-0.011 0,-0.016c0,-0.158 -0.125,-0.29 -0.283,-0.297c-0.007,0 -0.014,-0.001 -0.021,-0.001c-0.157,0 -0.288,0.126 -0.294,0.282c-0.001,0.025 -0.052,1.034 -0.237,2.259l-0.039,0.007c-0.58,0.224 -0.958,0.014 -1.063,-0.058c0.024,-2.054 -0.177,-4.106 -0.6,-6.117c-0.038,-0.16 -0.199,-0.262 -0.36,-0.227c-0.16,0.038 -0.261,0.2 -0.225,0.361c0.014,0.061 1.241,5.583 0.079,9.895c-0.221,0.184 -0.436,0.27 -0.636,0.255c-0.196,-0.024 -0.377,-0.116 -0.512,-0.261c-0.302,-2.993 -1.223,-6.804 -1.237,-6.894c-0.014,-0.054 -0.812,-5.071 1.619,-7.828Zm-15.028,29.603c-0.735,0.003 -1.661,0.123 -2.273,0.212c0.504,-0.608 0.97,-1.318 1.38,-2.139l2.809,1.902c-0.638,-0.058 -1.28,-0.049 -1.916,0.025Zm-9.11,3.123c-0.168,-0.254 -0.333,-0.515 -0.495,-0.785c0.773,-0.055 2.222,-0.22 2.772,-0.718c0.063,-0.056 0.1,-0.137 0.1,-0.222c0,-0.074 -0.028,-0.145 -0.077,-0.199c-0.11,-0.121 -0.298,-0.132 -0.42,-0.025c-0.401,0.36 -1.792,0.54 -2.695,0.584l-0.109,-0.21c0.624,0.021 1.64,-0.086 2.524,-0.782c0.072,-0.056 0.113,-0.142 0.113,-0.232c0,-0.068 -0.023,-0.134 -0.065,-0.186c-0.057,-0.071 -0.143,-0.113 -0.234,-0.113c-0.068,0 -0.134,0.023 -0.187,0.065c-0.901,0.71 -2.014,0.677 -2.438,0.631c-0.027,-0.057 -0.053,-0.116 -0.075,-0.175c1.002,-0.203 3.686,-0.862 4.614,-2.252c0.033,-0.049 0.05,-0.107 0.05,-0.166c0,-0.1 -0.051,-0.194 -0.134,-0.249c-0.049,-0.033 -0.107,-0.051 -0.166,-0.051c-0.1,0 -0.194,0.05 -0.249,0.134c-0.828,1.239 -3.5,1.854 -4.335,2.018c-0.08,-0.224 -0.152,-0.451 -0.216,-0.681c0.622,-0.047 1.65,-0.309 2.623,-1.369c0.11,-0.121 0.101,-0.312 -0.02,-0.422c-0.055,-0.052 -0.128,-0.081 -0.204,-0.081c-0.084,0 -0.165,0.036 -0.221,0.099c-0.772,0.847 -1.579,1.098 -2.097,1.163c0.226,-0.035 0.442,-0.121 0.631,-0.251c0.078,-0.056 0.124,-0.147 0.124,-0.244c0,-0.164 -0.135,-0.299 -0.299,-0.299c-0.063,0 -0.124,0.019 -0.175,0.056c-0.187,0.122 -0.407,0.181 -0.63,0.169c-0.082,-0.515 -0.124,-1.035 -0.124,-1.556c0.388,-0.494 1.696,-1.927 4.329,-2.767l5.339,3.616c-2.335,4.773 -6.905,5.432 -7.554,5.5l0,0Zm-18.73,-8.587c0.13,0.014 3.17,0.292 3.768,3.407c0.055,1.028 -0.125,2.056 -0.528,3.004c-0.195,-0.742 -0.244,-1.73 -0.244,-2.146c0,-0.164 -0.135,-0.299 -0.299,-0.299l-0.004,0c-0.162,0 -0.297,0.134 -0.297,0.297l0,0.002c0,0.051 0.004,0.831 0.132,1.645c-0.125,-0.36 -0.355,-1.494 -0.43,-1.645c-0.074,-0.146 -0.255,-0.206 -0.401,-0.134c-0.102,0.051 -0.166,0.155 -0.166,0.268c0,0.047 0.011,0.093 0.032,0.135c0.039,0.079 0.317,1.448 0.559,1.988c-1.529,-1.834 -2.809,-4.229 -2.825,-4.261c-0.077,-0.145 -0.259,-0.2 -0.404,-0.123c-0.098,0.051 -0.16,0.153 -0.16,0.264c0,0.049 0.012,0.097 0.035,0.14c0.074,0.137 1.776,3.328 3.672,5.219c-0.286,0.368 -0.614,0.701 -0.979,0.992c-0.234,0.031 -0.638,-0.076 -0.9,-0.18c-2.16,-1.582 -3.674,-4.799 -4.205,-6.055l3.644,-2.518Zm17.605,0.227c-0.622,-0.257 -2.745,-0.914 -6.602,0.035c-0.652,-0.09 -5.203,-0.677 -8.085,0.158l-0.007,0.004c-0.606,-0.497 -1.312,-0.859 -2.069,-1.062l1.35,-0.947c2.75,0.893 5.652,1.362 8.626,1.362c2.948,0.001 5.878,-0.465 8.681,-1.38l0.618,0.508c-0.891,0.329 -1.736,0.774 -2.512,1.322l0,0Zm-31.631,-6.678c-0.097,-0.753 -0.15,-1.511 -0.158,-2.27c0,-0.164 -0.135,-0.299 -0.299,-0.299c-0.165,0 -0.3,0.135 -0.3,0.299c0,0.09 0.003,2.089 0.385,3.444l-0.164,0.505c-0.917,-2.472 -0.446,-3.829 -0.439,-3.843l0,0.003c0.013,-0.034 0.02,-0.071 0.02,-0.108c0,-0.125 -0.078,-0.237 -0.194,-0.28c-0.035,-0.014 -0.072,-0.021 -0.109,-0.021c-0.124,0 -0.236,0.077 -0.28,0.193c-0.026,0.072 -0.659,1.813 0.717,4.95l-0.107,0.336c-1.554,-2.798 -1.232,-7.64 -1.229,-7.691c0.011,-0.163 -0.114,-0.306 -0.277,-0.32c-0.008,0 -0.015,0 -0.022,0c-0.156,0 -0.288,0.122 -0.298,0.278c-0.016,0.231 -0.375,5.604 1.585,8.484l-0.418,1.311l-0.594,-0.144c-1.331,-1.264 -3.41,-3.934 -3.238,-8.144c0,-0.058 0.199,-3.962 1.993,-6.332c0.319,0.415 0.851,1.167 1.236,1.937c0.025,0.048 -0.037,-0.037 0,0c0.023,0.025 2.435,2.5 2.827,5.713l-0.637,1.999Zm-7.091,-2.108c-0.71,-3.602 -0.132,-11.639 -0.126,-11.725c0.012,-0.163 -0.113,-0.308 -0.276,-0.32c-0.009,0 -0.017,-0.001 -0.026,-0.001c-0.155,0 -0.285,0.121 -0.296,0.276c-0.025,0.332 -0.527,7.344 0.026,11.227c-0.494,-0.36 -1.06,-0.738 -1.698,-1.106c-0.506,-1.149 -2.025,-5.161 -0.747,-8.893c0.004,-0.017 -0.003,0.011 0,0c0.009,-0.037 0.819,-3.282 2.967,-5.767c0.285,0.634 0.714,1.559 1.048,2.146c0.033,0.048 2.231,3.704 1.399,6.833c-0.715,1.139 -1.111,2.468 -1.329,3.595c-0.334,-2.943 -0.14,-4.889 -0.137,-4.917c0.002,-0.011 0.002,-0.022 0.002,-0.033c0,-0.165 -0.135,-0.3 -0.3,-0.3c-0.151,0 -0.281,0.115 -0.298,0.266c-0.014,0.141 -0.309,3.076 0.468,7.283c-0.002,0.113 -0.005,1.487 0.06,2.074c-0.24,-0.219 -0.485,-0.432 -0.737,-0.638l0,0Zm-5.824,-10.475c-0.119,-0.336 -1.889,-5.604 1.567,-11.405c0.024,-0.042 0.771,-1.512 1.794,-2.08l1.677,1.266c0.032,0.459 0.213,3.298 0.037,5.53c-0.85,0.953 -1.566,2.017 -2.13,3.163c0.386,-1.751 1.253,-3.862 1.265,-3.894c0.016,-0.036 0.024,-0.075 0.024,-0.114c0,-0.121 -0.074,-0.229 -0.185,-0.274c-0.151,-0.065 -0.336,0.003 -0.39,0.161c-1.017,2.908 -1.53,6.012 -1.563,6.102c-0.081,-3.032 1.297,-6.228 1.313,-6.265c0.067,-0.151 -0.004,-0.329 -0.155,-0.396c-0.151,-0.066 -0.327,0.004 -0.392,0.155c-0.04,0.09 -0.51,1.178 -0.888,2.681c0.359,-1.769 0.772,-3.108 0.781,-3.138c0.009,-0.029 0.014,-0.059 0.014,-0.09c0,-0.164 -0.135,-0.299 -0.3,-0.299c-0.13,0 -0.246,0.085 -0.285,0.21c-0.079,0.251 -1.806,5.85 -1.197,9.42c-0.322,-0.253 -0.651,-0.498 -0.987,-0.733Zm-0.576,-16.446l3.09,2.325c-1.092,0.802 -1.788,2.169 -1.823,2.236c-0.051,0.085 -0.095,0.169 -0.144,0.253c0.149,-0.652 0.29,-1.243 0.343,-1.397c0.051,-0.156 -0.035,-0.327 -0.19,-0.38c-0.156,-0.051 -0.327,0.034 -0.38,0.19c-0.07,0.211 -0.263,1.044 -0.439,1.812c0.051,-1.005 0.091,-2.085 0.091,-2.916l0,-0.002c0,-0.163 -0.134,-0.298 -0.297,-0.299l-0.002,0c-0.164,0 -0.298,0.135 -0.298,0.299l0,0.002c0,2.095 -0.264,5.801 -0.266,5.84l0.002,0.017c-0.308,-1.06 -0.682,-2.099 -1.118,-3.113c0.139,-1.58 0.541,-4.076 1.431,-4.867Zm14.727,25.156c-0.777,-2.403 -2.301,-4.085 -2.616,-4.419c-0.682,-1.339 -1.592,-2.385 -1.631,-2.431c-0.088,-0.1 -0.213,-0.161 -0.346,-0.169c-0.097,-0.002 -0.192,0.024 -0.274,0.076c0.056,-3.008 -1.64,-5.821 -1.727,-5.968c-0.504,-0.883 -1.292,-2.713 -1.299,-2.73c-0.032,-0.078 -0.085,-0.146 -0.153,-0.195c0.088,-1.57 0.032,-3.28 -0.019,-4.307l3.878,2.92c0.078,5.432 1.759,10.722 4.832,15.202l-0.645,2.021Zm-18.028,-27.647l0.08,4.243c-0.596,-0.735 -1.262,-1.41 -1.988,-2.018c-0.559,-1.429 -0.678,-3.257 -0.699,-4.185l2.607,1.96Zm-1.438,16.93c0.423,0.219 4.971,2.601 6.516,4.291c-0.061,0.917 -0.025,1.839 0.107,2.749c-0.877,-1.218 -1.738,-2.097 -2.166,-2.31c-0.147,-0.072 -0.328,-0.013 -0.404,0.134c-0.021,0.041 -0.032,0.087 -0.032,0.134c0,0.114 0.065,0.218 0.168,0.268c0.406,0.202 1.641,1.503 2.733,3.314c0.086,0.346 0.178,0.673 0.271,0.968c-1.983,-2.691 -7.083,-7.597 -7.323,-7.827c-0.12,-0.113 -0.312,-0.109 -0.426,0.007c-0.114,0.116 -0.111,0.309 0.009,0.422c0.058,0.057 5.166,4.974 7.177,7.646c-1.208,-0.506 -2.465,-0.889 -3.751,-1.142c-1.739,-1.539 -3.859,-5.872 -3.881,-5.916c-0.05,-0.103 -0.156,-0.169 -0.27,-0.169c-0.165,0 -0.3,0.135 -0.3,0.3c0,0.045 0.01,0.09 0.03,0.131c0.067,0.137 1.158,2.363 2.445,4.219c-3.691,-3.721 -4.732,-7.705 -5.024,-9.607c1.041,0.8 2.748,1.999 4.121,2.388Zm12.206,14.876c0.114,0.426 0.25,0.832 0.401,1.21c-0.664,-0.667 -1.37,-1.291 -2.111,-1.871c-0.052,-0.039 -0.115,-0.061 -0.181,-0.061c-0.093,0 -0.182,0.045 -0.238,0.119c-0.102,0.131 -0.087,0.336 0.055,0.419c0.947,0.543 3.672,3.628 3.711,3.684c-1.468,-1.163 -2.772,-2.392 -2.79,-2.406c-0.119,-0.113 -0.31,-0.108 -0.424,0.01c-0.112,0.12 -0.106,0.31 0.013,0.422c0.045,0.048 0.601,0.566 1.381,1.243c-2.452,-1.466 -4.829,-3.056 -7.121,-4.762c-0.052,-0.039 -0.115,-0.061 -0.181,-0.061c-0.165,0 -0.3,0.136 -0.3,0.301c0,0.094 0.044,0.183 0.119,0.24c0.051,0.035 4.481,3.375 8.74,5.681c-1.555,-0.091 -3.115,-0.064 -4.667,0.079c-6.439,-2.406 -7.659,-6.623 -7.671,-6.664c-0.387,-1.15 -0.944,-2.235 -1.653,-3.22c8.651,0.483 12.917,5.637 12.917,5.637l0,0Zm3.37,5.469c0.255,0.23 0.476,0.411 0.645,0.54l-0.369,1.16c-0.8,0.192 -1.586,-0.021 -1.594,-0.021l0.001,0c-0.028,-0.009 -0.057,-0.013 -0.086,-0.013c-0.132,0 -0.249,0.088 -0.285,0.215c-0.045,0.159 0.048,0.327 0.206,0.374c0.035,0.008 0.735,0.196 1.551,0.094l-0.285,0.896c-1.762,-0.251 -5.799,-2.324 -5.842,-2.345c-0.145,-0.075 -0.326,-0.018 -0.402,0.127c-0.075,0.146 -0.018,0.327 0.126,0.404c0.175,0.09 4.015,2.06 5.933,2.389l-0.74,2.313c-4.634,-1.649 -7.184,-4.758 -8.09,-6.07c1.634,-0.253 5.733,-0.757 9.231,-0.063Zm7.111,7.341c0.14,-0.062 6.474,-2.976 7.817,2.709c-2.045,-0.093 -5.42,-0.608 -7.188,-0.879c-0.876,-0.137 -1.183,-0.183 -1.282,-0.183c-0.164,0 -0.298,0.135 -0.298,0.299l0,0.003c0,0.166 0.131,0.299 0.298,0.299l-0.003,0c0.083,0.004 0.599,0.083 1.195,0.173c2.105,0.323 6.487,0.995 8.28,0.893c0.044,-0.004 0.714,0.555 1.276,0.755c-0.157,0.131 -0.334,0.237 -0.524,0.313c-1.014,0.101 -3.31,-0.133 -3.364,-0.133c-0.164,0 -0.299,0.135 -0.299,0.299c0,0.163 0.135,0.298 0.299,0.298l-0.002,0c0.032,0 1.663,0.169 2.514,0.173c-5.107,1.657 -10.134,-1.206 -10.187,-1.236c-0.624,-0.35 -1.742,-0.649 -2.644,-0.851l4.112,-2.932Zm30.806,4.479c2.02,1.322 3.781,0.71 3.866,0.677c0.119,-0.041 0.199,-0.154 0.199,-0.28c0,-0.034 -0.006,-0.069 -0.018,-0.102c-0.058,-0.154 -0.232,-0.234 -0.387,-0.179c-0.072,0.025 -1.622,0.547 -3.422,-0.684c0.277,-0.256 0.789,-0.467 1.517,-0.608c0,0 4.981,0.104 6.644,-0.127c0.162,-0.025 0.277,-0.176 0.257,-0.339c-0.024,-0.161 -0.176,-0.276 -0.338,-0.255c-1.48,0.206 -3.932,0.18 -5.922,0.104c0.39,-0.954 3.723,-1.573 4.831,-1.573c0.164,0 0.299,-0.135 0.299,-0.299c0,-0.164 -0.135,-0.299 -0.299,-0.299c-1.296,0 -2.625,0.306 -3.674,0.619c-0.095,-0.144 -0.354,-1.058 0.307,-1.422c0.356,-0.062 4.174,-0.491 5.789,-0.155l5.536,3.753c-1.15,2.104 -11.045,6.121 -15.185,1.169l0,0Zm-0.652,-13.108c3.718,-1.395 7.093,-3.572 9.897,-6.383c0.942,-0.94 1.816,-1.948 2.612,-3.015l7.708,23.1l-20.217,-13.702Zm19.024,6.966c0.379,-0.058 0.912,-0.206 1.307,-0.559c0.122,-0.109 0.133,-0.3 0.023,-0.422c-0.056,-0.064 -0.137,-0.101 -0.223,-0.101c-0.073,0 -0.144,0.027 -0.199,0.077c-0.319,0.284 -0.794,0.392 -1.098,0.428l-0.209,-0.618c0.719,-0.109 2.353,-0.44 2.944,-1.206c0.099,-0.13 0.074,-0.319 -0.056,-0.419c-0.052,-0.039 -0.116,-0.061 -0.181,-0.061c-0.093,0 -0.18,0.043 -0.236,0.116c-0.439,0.566 -1.921,0.886 -2.661,0.988l-0.953,-2.846c0.457,-0.151 1.143,-0.364 1.974,-0.563c0.079,0 0.158,-0.017 0.225,-0.058c2.234,-0.522 5.369,-0.933 7.773,0.035c-0.576,0.54 -1.089,1.144 -1.525,1.802c-0.029,0.041 -2.723,3.966 -6.348,5.068l-0.557,-1.661Zm6.569,-6.495c-0.022,-0.058 -0.062,-0.107 -0.114,-0.141c-0.202,-0.12 -0.385,-0.268 -0.544,-0.439c0.738,-0.501 1.43,-1.066 2.068,-1.69c0.055,-0.056 0.087,-0.132 0.087,-0.211c0,-0.164 -0.136,-0.299 -0.3,-0.299c-0.08,0 -0.157,0.032 -0.213,0.088c-0.621,0.605 -1.294,1.154 -2.013,1.639c-0.082,-0.118 -0.157,-0.241 -0.225,-0.368l1.031,-0.748c0.076,-0.057 0.122,-0.147 0.122,-0.242c0,-0.165 -0.135,-0.3 -0.3,-0.3c-0.064,0 -0.126,0.02 -0.178,0.058l-0.928,0.68c-0.04,-0.1 -0.063,-0.165 -0.07,-0.184c1.056,-0.883 2.182,-1.762 2.69,-1.971c0.152,-0.065 0.224,-0.242 0.161,-0.395c-0.064,-0.151 -0.24,-0.224 -0.392,-0.162c-0.794,0.327 -2.668,1.902 -3.832,2.915c-1,0.479 -1.756,0.457 -1.765,0.457c-0.086,0 -0.183,0.01 -0.285,0.021c0.32,-0.821 0.809,-1.862 1.4,-2.843c0.037,-0.04 -0.023,0.055 0,0c1.269,-2.074 3.238,-4.25 6.05,-5.154c0.027,-0.007 3.126,-0.94 6.112,-1.761c-0.381,2.049 -2.041,8.851 -7.757,11.189c-0.266,-0.059 -0.535,-0.105 -0.805,-0.139Zm-7.568,-27.265c-0.126,-5.312 -1.785,-10.476 -4.776,-14.868l24.028,0l-19.252,14.868Zm12.585,-15.866l-0.125,-1.719c-0.013,-0.165 -0.159,-0.29 -0.324,-0.278c-0.154,0.012 -0.275,0.143 -0.275,0.298c0,0.008 0.001,0.016 0.001,0.023l0.122,1.676l-2.428,0c-0.171,-0.807 -0.575,-3.393 0.626,-5.638c0.014,-0.016 0.557,-0.852 0.696,-2.213c1.244,1.452 3.885,4.746 5.094,7.851l-3.387,0Zm-3.087,-6.046c-0.614,1.143 -0.854,2.34 -0.923,3.395c-0.322,-0.527 -0.684,-1.028 -1.083,-1.5c0.03,-0.054 -1.691,-7.261 -1.703,-7.297c-0.054,-0.156 -0.227,-0.241 -0.383,-0.188c-0.12,0.041 -0.202,0.155 -0.202,0.282c0,0.033 0.006,0.066 0.017,0.098c0.011,0.035 0.937,3.071 1.45,6.168c-0.344,-0.348 -0.531,-0.45 -0.902,-0.757c0.029,-1.582 -0.943,-4.047 -0.986,-4.154c-0.062,-0.153 -0.238,-0.228 -0.392,-0.167c-0.113,0.045 -0.188,0.156 -0.188,0.278c0,0.038 0.007,0.075 0.021,0.11c0.007,0.027 0.783,1.989 0.925,3.448c-0.162,-0.119 -0.326,-0.236 -0.49,-0.352c-0.535,-1.624 -1.306,-3.161 -2.287,-4.562c-0.206,-3.209 0.147,-6.335 0.316,-7.558c4.655,2.598 7.197,11.526 7.223,11.617c0.007,0.021 -0.41,1.132 -0.413,1.139Zm-7.963,-8.548c-0.772,-1.378 -1.937,-2.616 -2.009,-2.691c-0.057,-0.059 -0.135,-0.093 -0.217,-0.093c-0.077,0 -0.151,0.03 -0.207,0.084c-0.118,0.113 -0.122,0.303 -0.011,0.422l0,-0.002c0.023,0.025 1.969,2.095 2.419,3.721c0.002,0.271 0.005,0.547 0.014,0.818c-0.393,-0.46 -0.813,-0.897 -1.257,-1.31c-1.736,-3.438 -4.946,-7.634 -4.983,-7.68c-0.056,-0.073 -0.143,-0.116 -0.235,-0.116c-0.066,0 -0.13,0.023 -0.182,0.063c-0.074,0.057 -0.118,0.145 -0.118,0.238c0,0.066 0.022,0.13 0.062,0.182c0.03,0.037 2.463,3.221 4.217,6.281c-1.512,-1.117 -3.192,-1.987 -4.978,-2.575c-0.357,-0.429 -3.444,-4.319 -2.649,-9.289c0.471,0.301 1.144,0.711 1.51,0.846c0.074,0.026 6.258,2.166 8.684,8.689c0.022,0.046 -0.03,1.577 -0.06,2.412Zm-8.768,-3.043c-0.173,-0.056 -0.337,-0.136 -0.487,-0.237c-3.704,-4.3 -10.627,-9.774 -10.695,-9.827c-0.053,-0.041 -0.118,-0.064 -0.186,-0.064c-0.164,0 -0.299,0.135 -0.299,0.299c0,0.091 0.042,0.178 0.114,0.235c0.065,0.052 6.448,5.101 10.196,9.276l-0.331,-0.065c-0.012,-0.037 -3.649,-3.978 -6.852,-6.168c-0.049,-0.033 -0.106,-0.05 -0.164,-0.05c-0.101,0 -0.195,0.052 -0.249,0.137c-0.033,0.049 -0.05,0.106 -0.05,0.165c0,0.101 0.052,0.196 0.138,0.25c0.04,0.027 4.006,2.626 6.337,5.522c-0.475,-0.072 -0.935,-0.129 -1.385,-0.173c-1.183,-1.585 -3.5,-3.487 -3.601,-3.57c-0.127,-0.103 -0.316,-0.083 -0.42,0.044c-0.045,0.054 -0.07,0.121 -0.07,0.191c0,0.09 0.041,0.175 0.111,0.231c0.023,0.018 1.956,1.601 3.162,3.036c-0.596,-0.041 -1.751,-0.143 -1.807,-0.167c-3.674,-1.712 -6.56,-8.644 -6.588,-8.714c-0.372,-0.709 -0.805,-1.384 -1.294,-2.018c5.901,-0.687 11.291,3.713 12.126,4.43c-0.011,3.284 1.397,5.905 2.294,7.237Z" style="fill:#fff;fill-rule:nonzero;"/><path id="path9783" d="M184.011,68.564c-0.925,-0.54 -1.888,-1.011 -2.881,-1.41c-1.461,-1.95 -1.702,-2.136 -6.68,-4.752c-0.147,-0.076 -0.33,-0.019 -0.408,0.127c-0.074,0.146 -0.017,0.328 0.129,0.404c0.036,0.02 3.209,1.698 5.691,3.75c-0.986,-0.341 -1.995,-0.613 -3.02,-0.812c-0.947,-1.036 -4.037,-2.382 -4.412,-2.546c-0.037,-0.016 -0.077,-0.024 -0.118,-0.024c-0.12,0 -0.229,0.072 -0.275,0.182c-0.017,0.038 -0.026,0.079 -0.026,0.12c0,0.119 0.072,0.227 0.182,0.272c1.136,0.489 2.765,1.292 3.683,1.946c-0.443,-0.018 -0.886,-0.031 -1.329,-0.038c-0.631,-0.493 -1.274,-0.969 -1.93,-1.428c-0.051,-0.036 -0.111,-0.056 -0.174,-0.056c-0.097,0 -0.188,0.048 -0.243,0.128c-0.095,0.134 -0.063,0.322 0.07,0.417c0.443,0.313 0.902,0.647 1.282,0.932l-0.575,0.007c-3.959,-2.103 -7.459,-5.961 -8.68,-7.399c3.09,-0.29 15.36,-0.723 19.714,10.18l0,0Z" style="fill:#fff;fill-rule:nonzero;"/><path id="path9785" d="M176.728,66.662c0.288,0.052 9.825,2.51 12.196,8.154c0.032,0.067 0.225,0.89 0.274,1.136l-1.788,0c-0.313,-0.727 -0.724,-1.408 -1.221,-2.023c-0.057,-0.068 -0.141,-0.107 -0.229,-0.107c-0.071,0 -0.139,0.026 -0.193,0.072c-0.068,0.056 -0.106,0.14 -0.106,0.228c0,0.071 0.025,0.139 0.071,0.193c0.005,0.009 0.585,0.705 1.023,1.637l-0.301,0c-2.628,-2.301 -8.248,-6.49 -8.306,-6.532c-0.051,-0.04 -0.114,-0.061 -0.179,-0.061c-0.096,0 -0.186,0.046 -0.241,0.124c-0.039,0.052 -0.06,0.114 -0.06,0.179c0,0.094 0.045,0.183 0.122,0.239c0.054,0.039 4.98,3.711 7.745,6.051l-0.948,0c-1.355,-0.684 -2.809,-1.972 -2.821,-1.988c-0.124,-0.108 -0.314,-0.097 -0.424,0.024c-0.108,0.124 -0.097,0.314 0.025,0.424c0.053,0.048 0.956,0.849 2.027,1.54l-3.041,0c-4.863,-2.639 -7.644,-7.71 -8.436,-9.331c1.603,-0.073 3.209,-0.059 4.811,0.041Z" style="fill:#fff;fill-rule:nonzero;"/><path id="path9787" d="M200.448,75.952l-3.164,0c-1.573,-4.34 -5.852,-8.962 -6.038,-9.162c-0.116,-0.123 -0.297,-0.16 -0.452,-0.093c-0.084,0.038 -0.152,0.105 -0.193,0.188c-1.043,-2.946 -3.581,-8.9 -7.608,-10.707c-0.112,-0.05 -0.24,-0.045 -0.348,0.012c-0.111,0.058 -0.188,0.164 -0.208,0.287c0,0.014 -0.061,0.376 -0.135,0.991c-2.807,-5.949 -8.413,-7.88 -8.666,-7.963c-0.389,-0.144 -1.456,-0.835 -1.836,-1.086c-0.109,-0.074 -0.248,-0.087 -0.37,-0.037c-0.123,0.049 -0.214,0.157 -0.241,0.286c-0.107,0.48 -0.174,0.949 -0.217,1.408c-1.764,-1.42 -7.112,-5.184 -12.983,-4.113c-0.189,0.035 -0.327,0.202 -0.327,0.394c0,0.093 0.033,0.184 0.093,0.256c0.011,0.013 1.042,1.245 1.614,2.386c0.098,0.247 2.538,6.098 5.973,8.516c-1.143,0.053 -1.853,0.16 -1.886,0.166c-0.193,0.031 -0.336,0.2 -0.336,0.395c0,0.089 0.03,0.176 0.084,0.246c0.162,0.208 3.745,4.729 8.284,7.528c-0.132,0.008 -0.206,0.017 -0.22,0.019c-0.126,0.012 -0.239,0.084 -0.303,0.193c-0.063,0.109 -0.072,0.242 -0.024,0.359c0.111,0.267 2.601,6.087 7.854,9.533l-3.822,0c-0.806,-1.079 -1.689,-2.098 -2.642,-3.05c-3.093,-3.105 -6.882,-5.43 -11.051,-6.782l-8.248,-24.361c13.338,0.16 25.853,5.425 35.301,14.876c5.456,5.432 9.6,12.038 12.115,19.315Zm-83.978,-19.319c9.448,-9.448 21.964,-14.713 35.3,-14.875l-8.516,24.643c-5.131,1.857 -9.608,5.178 -12.872,9.551l-3.365,0c0.946,-1.211 1.965,-3.728 1.965,-3.728c0,0 -1.047,-0.204 -1.285,-0.232c4.678,-3.207 6.228,-6.598 6.585,-7.533c6.564,-3.148 7.647,-7.937 7.689,-8.146l0.113,-0.536l-0.167,-0.019c2.594,-2.314 4.713,-6.716 4.811,-6.925c0.752,-1.394 0.888,-2.373 0.408,-2.969c-0.561,-0.698 -4.386,-0.749 -11.984,4.323c-0.154,-0.723 -0.613,-1.431 -0.613,-1.431c0,0 -6.205,-0.169 -12.307,7.655c-0.07,-0.342 -0.481,-1.821 -0.481,-1.821c0,0 -6.665,6.759 -8.052,11.629c-0.161,-0.188 -0.335,-0.366 -0.52,-0.531c-0.123,-0.108 -0.29,-0.146 -0.446,-0.108c-0.158,0.039 -0.287,0.152 -0.347,0.303c-0.562,1.432 -1.141,2.136 -1.218,2.224c-3.043,2.473 -3.124,6.725 -3.088,7.845l-3.722,0c2.514,-7.278 6.657,-13.886 12.112,-19.319l0,0Zm-14.884,35.933c0,-5.267 0.8,-10.411 2.334,-15.296l3.504,2.613c-0.004,0.087 -0.044,1.699 0.232,3.32c-0.61,-0.772 -1.062,-1.506 -1.1,-1.995c-0.017,-0.26 -0.236,-0.466 -0.497,-0.466c-0.21,0 -0.398,0.133 -0.469,0.331c-0.121,0.328 -2.759,7.722 2.182,16.49c-0.902,-0.581 -1.766,-1.22 -2.586,-1.912c0,-0.274 -0.226,-0.499 -0.499,-0.499c-0.274,0 -0.499,0.225 -0.499,0.499c0,0.145 0.063,0.283 0.172,0.378c0,0.27 0.074,6.358 5.836,11.848c-0.802,-0.075 -1.608,-0.108 -2.414,-0.097c-0.271,0.006 -0.49,0.231 -0.49,0.502c0,0.142 0.059,0.276 0.163,0.372c0.011,0.01 1.254,1.163 2.126,3.652c0.037,0.148 1.111,3.966 6.62,6.606c-0.684,0.104 -1.118,0.189 -1.185,0.199c-0.233,0.047 -0.402,0.254 -0.402,0.491c0,0.083 0.02,0.164 0.059,0.237c0.113,0.205 2.722,4.917 9.052,7.147l-1.955,6.128c-1.87,-1.415 -3.641,-2.957 -5.3,-4.614c-9.598,-9.6 -14.884,-22.357 -14.884,-35.934Zm21.258,41.346l4.203,-2.956c0.94,0.182 2.582,0.546 3.27,0.933c0.054,0.028 0.386,0.22 0.933,0.468c0.005,0.021 0.005,0.04 0.016,0.061c0.021,0.055 2.475,5.249 10.398,4.291c0.035,-0.007 1.007,-0.155 3.48,0.714c0.03,0.01 4.762,1.888 8.019,-4.439c0.841,1.776 3.427,5.476 10.149,4.525c0.033,-0.007 1.766,-0.324 3.083,-0.134c0.195,0.014 3.99,0.162 6.745,-2.986c0.678,-0.227 4.465,-1.567 5.792,-3.389l3.612,2.448c-8.717,6.463 -19.29,9.948 -30.142,9.936c-10.753,0 -20.992,-3.319 -29.558,-9.472Zm60.929,-1.394l-1.506,-4.517c3.886,-1.189 6.636,-5.205 6.757,-5.381c0.879,-1.315 1.826,-2.025 1.837,-2.032c0.112,-0.082 0.173,-0.216 0.162,-0.354c-0.012,-0.136 -0.092,-0.258 -0.213,-0.323c-0.262,-0.133 -0.531,-0.252 -0.805,-0.357c6.363,-3.261 7.423,-11.577 7.474,-12.017c4.305,-4.203 2.662,-10.853 2.588,-11.141c-0.038,-0.148 -0.157,-0.261 -0.306,-0.292c-0.069,-0.013 -0.139,-0.008 -0.206,0.014c2.386,-7.801 0.392,-13.555 0.306,-13.806c-0.064,-0.156 -0.217,-0.259 -0.385,-0.259c-0.069,0 -0.136,0.017 -0.197,0.05c-0.536,0.32 -1.051,0.676 -1.54,1.065c0.043,-1.188 -0.098,-2.702 -0.161,-3.301l3.322,-2.563c1.544,4.94 2.327,10.087 2.322,15.263c-0.003,16.192 -7.617,30.64 -19.449,39.951l0,0Zm-64.048,-18.273l0.002,0l-0.002,0Zm5.942,-4.874l0,-0.004l0,0.004Zm56.936,12.263l-1.598,-0.199c-0.008,-0.001 -0.015,-0.001 -0.023,-0.001c-0.164,0 -0.299,0.135 -0.299,0.299c0,0.145 0.105,0.27 0.248,0.294l1.598,0.199c0.162,0.021 0.313,-0.095 0.335,-0.257c0.002,-0.012 0.003,-0.026 0.003,-0.038c0,-0.152 -0.114,-0.28 -0.264,-0.297Zm7.767,-52.866l0.002,0l-0.002,0Zm-23.253,-42.789l-3.394,11.386l3.595,0.8l3.394,-11.386l-3.595,-0.8Zm-67.983,47.809l-8.324,-11.454l1.73,-3.595l13.718,1.199l-1.865,2.995l-2.529,-0.198l-2.997,5.526l1.466,2.198l-1.199,3.329Z" style="fill:#fff;fill-rule:nonzero;"/><path id="path9789" d="M93.94,61.536l2.995,4.129l2.131,-3.729l-5.126,-0.4Z" style="fill-rule:nonzero;"/><path id="path9795" d="M99.066,49.617l8.724,8.324l2.197,-2.728l-4.862,-4.464l7.859,1.467l-1.132,-8.721l4.66,5.456l2.398,-1.795l-7.657,-9.39l-2.532,2.264l1.199,8.52l-8.989,-1.063l-1.865,2.13Zm19.976,-16.647l5.328,10.523c0,0 9.122,-4.196 13.782,-5.595l-0.997,-2.53c0,0 -6.792,2.131 -11.053,4.462l-1.066,-2.064c0,0 3.461,-1.8 8.391,-3.463l-1.067,-2.597c0,0 -5.126,2.064 -8.523,3.729l-0.799,-1.665c0,0 6.725,-3.064 11.985,-4.793l-0.733,-2.265c0,0 -6.459,1.997 -15.248,6.258Zm22.773,-7.72l1.065,11.785l3.263,-0.466l-0.132,-3.664l6.059,-0.332l1.864,3.663l4.396,0.333l-2.665,-4.196c0,0 3.131,-0.733 2.931,-4.128c0,0 0.066,-3.197 -3.463,-3.862c0,-0.002 -7.524,-0.202 -13.318,0.867Z" style="fill:#fff;fill-rule:nonzero;"/><path id="path9797" d="M145.477,27.444l0.133,2.93l7.258,-0.399c0,0 1.867,0 1.732,-1.865c0,0 0.265,-1.331 -2.001,-1.199c0.002,0 -4.792,0.267 -7.122,0.533Z" style="fill-rule:nonzero;"/><path id="path9799" d="M185.894,41.76l0.068,3.131c0,0 -4.727,0.265 -10.122,-3.53c0,0 -4.795,-2.864 -1.399,-8.123c0,0 2.598,-3.662 8.858,-1.732c0,0 5.126,1.863 6.922,6.458l-2.861,1.4c0,0 -1.199,-4.796 -7.192,-5.327c0,0 -4.729,0 -2.6,4.527c0.004,0 1.134,2.797 8.326,3.196Zm14.05,20.442l10.321,-6.191c0,0 1.931,2.728 1.931,3.261l-2.861,10.123l6.991,-2.732c0,0 1,2.398 1.2,2.996l-11.521,4.795c0,0 -0.467,-2.73 -0.8,-2.997l3.53,-10.851l-7.323,3.995l-1.468,-2.399Zm-85.329,71.981l-7.592,8.591c0,0 3.996,4.693 8.89,7.392l2.496,-2.4c0,0 -4.794,-3.296 -6.492,-4.992l5.594,-6.394c0,0 -2.597,-1.696 -2.896,-2.197Zm10.753,7.591l-5.493,10.489c0,0 7.691,3.992 12.186,5.09l1.098,-2.596c0,0 -6.592,-1.999 -8.889,-3.196l0.8,-1.599c0,0 4.194,1.599 5.393,1.998l1.097,-2.492c0,0 -2.996,-0.904 -4.993,-2.002l0.898,-1.799c0,0 4.596,2.301 7.892,3.098l1.198,-2.396c0,-0.002 -7.991,-2.597 -11.187,-4.595Zm25.568,10.788l2.098,-1.999c0,0 -2.298,-2.597 -9.09,-2.396c0,0 -6.893,0.8 -6.991,6.79c0,0 0.399,6.095 10.187,6.29c0,0 3.897,0.104 5.793,-1.498l0,-5.99l-8.689,-0.199l0,2.094l5.193,0.402l0,1.798c0,0 -4.393,1.398 -7.49,-0.998c0,0 -2.298,-1.7 -0.399,-4.196c0.001,0.002 2.898,-3.797 9.388,-0.098Zm7.325,-3.998l1.001,11.688l3.296,-0.1l-0.999,-11.985l-3.298,0.397Zm22.942,-8.023l6.489,10.389l3.097,-1.898l-3.894,-5.995l8.189,2.4l3.496,-2.296l-7.49,-9.591l-2.298,1.999l4.295,5.593l-8.89,-2.197l-2.994,1.596Zm1.19,7.921c-1.058,-3.48 -5.595,-5.187 -10.135,-3.804c-4.539,1.377 -7.359,5.321 -6.301,8.804c1.062,3.484 5.601,5.19 10.136,3.807c4.541,-1.382 7.362,-5.323 6.3,-8.807Z" style="fill:#fff;fill-rule:nonzero;"/><path id="path9801" d="M179.005,149.698c-0.457,-1.707 -2.945,-2.521 -5.555,-1.823c-2.611,0.699 -4.358,2.647 -3.899,4.354c0.455,1.707 2.941,2.524 5.553,1.823c2.609,-0.702 4.356,-2.647 3.901,-4.354Zm-26.602,-82.935c-14.251,0 -25.802,11.553 -25.802,25.802c0,14.25 11.551,25.804 25.802,25.804c14.249,0 25.802,-11.553 25.802,-25.804c0,-14.249 -11.551,-25.802 -25.802,-25.802Z" style="fill-rule:nonzero;"/><path id="path9803" d="M152.403,67.277c-13.966,0 -25.291,11.322 -25.291,25.289c0,13.964 11.323,25.288 25.291,25.288c13.968,0 25.29,-11.322 25.29,-25.288c0,-13.967 -11.322,-25.289 -25.29,-25.289Z" style="fill:#fff;fill-rule:nonzero;"/><path id="path9805" d="M152.403,67.277c-13.966,0 -25.291,11.322 -25.291,25.289c0,13.964 11.323,25.288 25.291,25.288c13.968,0 25.29,-11.322 25.29,-25.288c0,-13.967 -11.322,-25.289 -25.29,-25.289Z" style="fill:#fff;fill-rule:nonzero;"/><path id="path9807" d="M152.403,70.596c-12.135,0 -21.973,9.835 -21.973,21.97c0,12.134 9.836,21.975 21.973,21.975c12.131,0 21.97,-9.841 21.97,-21.975c0,-12.135 -9.837,-21.97 -21.97,-21.97Z" style="fill-rule:nonzero;"/><path id="path9809" d="M152.403,71.25c-11.774,0 -21.32,9.545 -21.32,21.316c0,11.774 9.546,21.319 21.32,21.319c11.77,0 21.317,-9.545 21.317,-21.319c0,-11.773 -9.545,-21.316 -21.317,-21.316Z" style="fill:#fff;fill-rule:nonzero;"/><path id="path9811" d="M152.403,72.086c-11.312,0 -20.478,9.169 -20.478,20.48c0,11.311 9.168,20.477 20.478,20.477c11.31,0 20.477,-9.167 20.477,-20.477c0.002,-11.311 -9.167,-20.48 -20.477,-20.48Z" style="fill-rule:nonzero;"/><path id="path9813" d="M152.403,72.695c-10.975,0 -19.871,8.896 -19.871,19.871c0,10.974 8.896,19.874 19.871,19.874c10.971,0 19.874,-8.898 19.874,-19.874c0,-10.975 -8.903,-19.871 -19.874,-19.871Z" style="fill:#fff;fill-rule:nonzero;"/><path id="path9815" d="M153.89,90.428l-0.001,0c-1.039,0 -1.893,0.854 -1.893,1.893c0,1.039 0.854,1.893 1.893,1.893l0.001,0c1.038,0 1.892,-0.855 1.892,-1.893c0,-1.038 -0.854,-1.893 -1.892,-1.893Zm-0.895,-9.18c-1.251,0.267 -1.777,0.635 -1.777,2.834l0,10.623c0,1.967 -0.318,4.931 -1.273,6.43c-1.139,1.798 -3.116,2.431 -4.484,2.431c-1,0 -3.141,-0.199 -4.62,-2.097c-0.977,-1.267 -1.571,-2.431 -1.571,-6.029l0,-11.128c0,-2.798 -0.593,-2.865 -1.867,-3.066l0,-0.831l7.692,0l0,0.831c-1.501,0.102 -2.206,0.134 -2.206,3.066l0,11.128c0,1.898 0,6.495 3.277,6.495c4.004,0 4.05,-5.098 4.05,-7.23l0,-10.159c0,-2.032 -0.272,-3.166 -2.231,-3.3l0,-0.831l5.008,0l0,0.833l0.002,0Z" style="fill-rule:nonzero;"/><path id="path9817" d="M166.116,87.113c-0.452,-2.333 -1.955,-6.163 -4.914,-6.163c-1.302,0 -2.68,0.998 -2.68,3.164c0,1.8 0.476,2.531 2.582,3.932l3.684,2.432c0.851,0.566 2.757,2.494 2.757,6.127c0,2.933 -1.605,6.963 -6.214,6.963c-2.382,0 -3.511,-1.133 -4.286,-1.133c-0.526,0 -0.652,0.601 -0.752,1.133l-0.726,0l0,-8.226l0.726,0c0.501,3.364 1.953,7.128 5.138,7.128c3.008,0 3.131,-3.3 3.131,-3.732c0,-2.233 -1.178,-3.029 -2.806,-4.063l-1.68,-1.067c-4.286,-2.731 -4.286,-5.595 -4.286,-7.128c0,-2.034 0.779,-6.562 5.541,-6.562c2.005,0 3.181,1.099 3.911,1.099c0.576,0 0.698,-0.5 0.824,-1.132l0.755,0l0,7.228l-0.705,0Zm-13.705,-19.046c-0.012,-0.001 -0.025,-0.001 -0.038,-0.001c-0.445,0 -0.812,0.366 -0.812,0.812c0,0.445 0.367,0.812 0.812,0.812c0.013,0 0.026,0 0.038,-0.001c0.431,-0.02 0.775,-0.38 0.775,-0.811c0,-0.432 -0.344,-0.791 -0.775,-0.811Z" style="fill-rule:nonzero;"/><path id="path9819" d="M152.412,68.328c-0.301,0 -0.549,0.247 -0.55,0.549c0,0.3 0.247,0.548 0.548,0.548c0.301,0 0.549,-0.248 0.549,-0.548c0,-0.301 -0.247,-0.548 -0.547,-0.549Z" style="fill:#fff;fill-rule:nonzero;"/><path id="path9821" d="M161.897,69.963c-0.098,-0.041 -0.203,-0.062 -0.31,-0.062c-0.443,0 -0.808,0.365 -0.808,0.809c0,0.443 0.365,0.808 0.808,0.808c0.324,0 0.618,-0.194 0.744,-0.492c0.171,-0.41 -0.024,-0.889 -0.434,-1.063Z" style="fill-rule:nonzero;"/><path id="path9823" d="M161.795,70.206c-0.278,-0.117 -0.602,0.016 -0.719,0.293c-0.028,0.067 -0.042,0.139 -0.042,0.212c0,0.301 0.247,0.548 0.548,0.548c0.301,0 0.549,-0.247 0.549,-0.548c0,-0.22 -0.133,-0.42 -0.336,-0.505Z" style="fill:#fff;fill-rule:nonzero;"/><path id="path9825" d="M168.944,74.452c-0.149,-0.135 -0.344,-0.211 -0.546,-0.211c-0.445,0 -0.811,0.367 -0.811,0.812c0,0.228 0.096,0.446 0.265,0.6c0.331,0.302 0.844,0.28 1.143,-0.053c0.139,-0.149 0.216,-0.345 0.216,-0.548c0,-0.229 -0.097,-0.447 -0.267,-0.6Z" style="fill-rule:nonzero;"/><path id="path9827" d="M168.769,74.648c-0.101,-0.092 -0.233,-0.143 -0.37,-0.143c-0.301,0 -0.548,0.248 -0.548,0.549c0,0.154 0.065,0.302 0.179,0.406c0.101,0.092 0.233,0.142 0.369,0.142c0.302,0 0.549,-0.247 0.549,-0.548c0,-0.155 -0.065,-0.302 -0.179,-0.406Z" style="fill:#fff;fill-rule:nonzero;"/><path id="path9829" d="M174.079,81.048c-0.141,-0.264 -0.417,-0.43 -0.716,-0.43c-0.446,0 -0.812,0.367 -0.812,0.812c0,0.134 0.032,0.265 0.095,0.383c0.141,0.264 0.417,0.429 0.717,0.429c0.445,0 0.811,-0.366 0.811,-0.812c0,-0.133 -0.032,-0.264 -0.095,-0.382Z" style="fill-rule:nonzero;"/><path id="path9831" d="M173.847,81.173c-0.095,-0.179 -0.282,-0.291 -0.484,-0.291c-0.301,0 -0.549,0.247 -0.549,0.548c0,0.09 0.023,0.179 0.065,0.258c0.142,0.267 0.476,0.369 0.743,0.228c0.265,-0.143 0.366,-0.477 0.225,-0.743Z" style="fill:#fff;fill-rule:nonzero;"/><path id="path9833" d="M176.702,88.986c-0.057,-0.397 -0.401,-0.695 -0.802,-0.695c-0.445,0 -0.811,0.366 -0.811,0.811c0,0.039 0.003,0.078 0.008,0.116c0.058,0.397 0.402,0.695 0.803,0.695c0.444,0 0.81,-0.366 0.81,-0.811c0,-0.039 -0.002,-0.077 -0.008,-0.116Z" style="fill-rule:nonzero;"/><path id="path9835" d="M176.44,89.024c-0.039,-0.267 -0.27,-0.467 -0.54,-0.467c-0.027,0 -0.055,0.002 -0.083,0.006c-0.267,0.04 -0.468,0.272 -0.468,0.543c0,0.301 0.248,0.548 0.548,0.548c0.301,0 0.549,-0.247 0.549,-0.548c0,-0.028 -0.002,-0.055 -0.006,-0.082Z" style="fill:#fff;fill-rule:nonzero;"/><path id="path9837" d="M176.507,97.34c0.083,-0.437 -0.204,-0.866 -0.64,-0.955c-0.033,-0.004 -0.065,-0.006 -0.098,-0.006c-0.448,0 -0.816,0.369 -0.816,0.816c0,0.366 0.246,0.689 0.599,0.787c0.438,0.085 0.869,-0.204 0.955,-0.642Z" style="fill-rule:nonzero;"/><path id="path9839" d="M176.248,97.289c0.056,-0.296 -0.139,-0.586 -0.434,-0.645c-0.035,-0.007 -0.07,-0.01 -0.106,-0.01c-0.302,0 -0.551,0.249 -0.551,0.551c0,0.262 0.188,0.49 0.446,0.54c0.296,0.057 0.587,-0.14 0.645,-0.436Z" style="fill:#fff;fill-rule:nonzero;"/><path id="path9841" d="M173.517,105.146c0.075,-0.126 0.115,-0.27 0.115,-0.416c0,-0.286 -0.151,-0.551 -0.396,-0.696c-0.126,-0.076 -0.27,-0.116 -0.417,-0.116c-0.445,0 -0.811,0.366 -0.811,0.811c0,0.284 0.15,0.549 0.394,0.695c0.387,0.23 0.884,0.107 1.115,-0.278Z" style="fill-rule:nonzero;"/><path id="path9843" d="M173.29,105.013c0.052,-0.086 0.079,-0.184 0.079,-0.284c0,-0.302 -0.248,-0.55 -0.55,-0.55c-0.302,0 -0.55,0.248 -0.55,0.55c0,0.193 0.101,0.372 0.267,0.472c0.264,0.154 0.599,0.07 0.754,-0.188Z" style="fill:#fff;fill-rule:nonzero;"/><path id="path9853" d="M143.232,69.963c0.098,-0.04 0.203,-0.061 0.308,-0.061c0.444,0 0.809,0.365 0.809,0.808c0,0.444 -0.365,0.809 -0.809,0.809c-0.323,0 -0.617,-0.194 -0.744,-0.493c-0.171,-0.411 0.025,-0.89 0.436,-1.063Z" style="fill-rule:nonzero;"/><path id="path9855" d="M143.334,70.206c0.067,-0.028 0.139,-0.043 0.212,-0.043c0.3,0 0.548,0.248 0.548,0.549c0,0.221 -0.134,0.421 -0.338,0.506c-0.067,0.028 -0.138,0.042 -0.21,0.042c-0.301,0 -0.549,-0.248 -0.549,-0.548c0,-0.221 0.133,-0.421 0.337,-0.506Z" style="fill:#fff;fill-rule:nonzero;"/><path id="path9857" d="M136.181,74.452c0.15,-0.135 0.345,-0.211 0.547,-0.211c0.446,0 0.814,0.368 0.814,0.814c0,0.23 -0.097,0.449 -0.267,0.603c-0.15,0.136 -0.345,0.211 -0.547,0.211c-0.447,0 -0.814,-0.367 -0.814,-0.814c0,-0.229 0.097,-0.448 0.267,-0.603Z" style="fill-rule:nonzero;"/><path id="path9859" d="M136.358,74.648c0.101,-0.092 0.233,-0.143 0.369,-0.143c0.302,0 0.549,0.248 0.549,0.549c0,0.154 -0.065,0.302 -0.179,0.406c-0.101,0.092 -0.233,0.142 -0.37,0.142c-0.301,0 -0.548,-0.247 -0.548,-0.548c0,-0.155 0.065,-0.302 0.179,-0.406Z" style="fill:#fff;fill-rule:nonzero;"/><path id="path9861" d="M131.048,81.048c0.141,-0.265 0.417,-0.431 0.717,-0.431c0.446,0 0.812,0.367 0.812,0.813c0,0.445 -0.366,0.812 -0.812,0.812c-0.133,0 -0.264,-0.033 -0.381,-0.095c-0.265,-0.141 -0.431,-0.418 -0.431,-0.717c0,-0.133 0.033,-0.264 0.095,-0.382Z" style="fill-rule:nonzero;"/><path id="path9863" d="M131.28,81.173c0.091,-0.191 0.285,-0.313 0.497,-0.313c0.301,0 0.55,0.248 0.55,0.55c0,0.098 -0.027,0.195 -0.076,0.28c-0.099,0.167 -0.28,0.27 -0.474,0.27c-0.302,0 -0.551,-0.248 -0.551,-0.55c0,-0.082 0.019,-0.163 0.054,-0.237Z" style="fill:#fff;fill-rule:nonzero;"/><path id="path9865" d="M128.427,88.986c0.058,-0.396 0.402,-0.694 0.803,-0.694c0.445,0 0.811,0.366 0.811,0.811c0,0.039 -0.003,0.078 -0.009,0.117c-0.058,0.397 -0.401,0.694 -0.802,0.694c-0.445,0 -0.811,-0.366 -0.811,-0.811c0,-0.039 0.003,-0.078 0.008,-0.117Z" style="fill-rule:nonzero;"/><path id="path9867" d="M128.687,89.024c0.039,-0.267 0.27,-0.467 0.54,-0.467c0.028,0 0.056,0.002 0.084,0.006c0.268,0.038 0.469,0.27 0.469,0.54c0,0.027 -0.002,0.054 -0.006,0.081c-0.055,0.252 -0.28,0.434 -0.538,0.434c-0.302,0 -0.55,-0.248 -0.55,-0.55c0,-0.015 0,-0.03 0.001,-0.044Z" style="fill:#fff;fill-rule:nonzero;"/><path id="path9869" d="M128.621,97.34c-0.084,-0.437 0.205,-0.867 0.641,-0.955c0.051,-0.01 0.103,-0.015 0.155,-0.015c0.446,0 0.812,0.367 0.812,0.813c0,0.445 -0.366,0.812 -0.812,0.812c-0.386,0 -0.722,-0.276 -0.796,-0.655Z" style="fill-rule:nonzero;"/><path id="path9871" d="M128.881,97.289c-0.058,-0.295 0.136,-0.585 0.43,-0.645c0.026,-0.003 0.051,-0.005 0.077,-0.005c0.303,0 0.552,0.249 0.552,0.552c0,0.251 -0.171,0.472 -0.414,0.534c-0.297,0.057 -0.587,-0.14 -0.645,-0.436Z" style="fill:#fff;fill-rule:nonzero;"/><path id="path9873" d="M131.611,105.146c-0.076,-0.125 -0.116,-0.269 -0.116,-0.416c0,-0.286 0.152,-0.551 0.399,-0.696c0.125,-0.076 0.269,-0.115 0.415,-0.115c0.445,0 0.811,0.365 0.811,0.81c0,0.284 -0.151,0.549 -0.395,0.695c-0.126,0.076 -0.271,0.116 -0.418,0.116c-0.285,0 -0.55,-0.15 -0.696,-0.394Z" style="fill-rule:nonzero;"/><path id="path9875" d="M131.837,105.013c-0.154,-0.261 -0.07,-0.602 0.19,-0.756c0.26,-0.155 0.598,-0.069 0.754,0.191c0.051,0.086 0.078,0.183 0.078,0.282c0,0.302 -0.248,0.55 -0.55,0.55c-0.193,0 -0.372,-0.102 -0.472,-0.267Z" style="fill:#fff;fill-rule:nonzero;"/><path id="path9887" d="M152.601,116.868c0.302,-0.002 0.549,-0.251 0.549,-0.552c-0.002,-0.302 -0.251,-0.549 -0.552,-0.549c-0.303,0.008 -0.547,0.255 -0.545,0.556c0.002,0.301 0.246,0.545 0.548,0.545Zm-16.932,9.164c0,0 1.045,-0.037 1.493,0.223c0,0 0.184,-0.745 -0.411,-0.858c0,0 -1.192,-0.111 -1.082,0.635Zm2.108,-1.621c0.011,0.025 0.274,0.58 0.726,1.26c0.068,0.101 0.206,0.128 0.308,0.062c0.064,-0.042 0.102,-0.113 0.102,-0.189c0,-0.044 -0.013,-0.087 -0.037,-0.124c-0.433,-0.645 -0.689,-1.195 -0.693,-1.199c-0.053,-0.112 -0.184,-0.162 -0.297,-0.109c-0.112,0.053 -0.16,0.186 -0.109,0.299l0,0Zm1.278,1.958c0.028,0.041 0.61,1.027 1.136,1.7c0.042,0.054 0.107,0.086 0.176,0.086c0.123,0 0.224,-0.101 0.224,-0.224c0,-0.05 -0.016,-0.099 -0.047,-0.138c-0.396,-0.531 -0.764,-1.082 -1.102,-1.651c-0.039,-0.068 -0.112,-0.111 -0.191,-0.111c-0.041,0 -0.081,0.011 -0.115,0.032c-0.069,0.04 -0.112,0.113 -0.112,0.193c0,0.04 0.011,0.079 0.031,0.113l0,0Zm-26.786,-42.373c0,0 -0.225,2.608 -0.076,3.354c0,0 0.522,-2.31 0.709,-2.945l-0.633,-0.409Z" style="fill:#fff;fill-rule:nonzero;"/><path id="path9769" d="M196.861,83.933c-0.297,0.253 -0.614,0.484 -0.946,0.691c0.134,-1.009 0.004,-1.669 -0.005,-1.709c-0.029,-0.138 -0.152,-0.237 -0.293,-0.237c-0.165,0 -0.3,0.135 -0.3,0.3c0,0.021 0.002,0.041 0.006,0.062c0.004,0.008 0.155,0.787 -0.076,1.933c-0.177,0.104 -0.346,0.22 -0.506,0.348c0.051,-1.056 0.109,-2.041 0.109,-2.058c0.01,-0.164 -0.115,-0.309 -0.279,-0.322c-0.165,-0.008 -0.308,0.12 -0.319,0.285c-0.005,0.091 -0.084,1.491 -0.142,2.732c-0.058,0.084 -0.663,1.408 -0.986,1.981c0.183,-1.345 0.387,-2.352 0.39,-2.373c0.004,-0.02 0.006,-0.04 0.006,-0.061c0,-0.141 -0.101,-0.265 -0.24,-0.293c-0.16,-0.033 -0.319,0.071 -0.353,0.231c-0.021,0.109 -0.36,1.805 -0.555,3.749l-0.232,0.359c-0.006,-1.417 0.096,-2.983 0.441,-4.374c0.005,-0.022 0.008,-0.045 0.008,-0.068c0,-0.165 -0.136,-0.301 -0.301,-0.301c-0.136,0 -0.257,0.093 -0.291,0.225c-0.494,2.009 -0.513,4.317 -0.416,6.081c-0.04,0.085 -0.11,0.154 -0.197,0.191c-0.215,0.078 -0.517,-0.028 -0.649,-0.091c-0.531,-0.714 -1.452,-1.677 -1.455,-1.684c-0.487,-1.832 0.05,-3.21 0.05,-3.21c0.016,-0.035 0.016,-0.07 0.02,-0.107l7.481,-5.775c0.097,1.085 0.19,2.702 0.03,3.495l0,0Z" style="fill:#fff;fill-rule:nonzero;"/><path id="path9791" d="M187,47.919l13.489,-4.292l2.868,2.773l-5.455,12.643l-2.257,-2.714l0.986,-2.338l-4.303,-4.585l-2.547,0.698l-2.781,-2.185Z" style="fill:#fff;fill-rule:nonzero;"/><path id="path9793" d="M200.262,46.847l-4.86,1.545l2.867,3.196l1.993,-4.741Z" style="fill-rule:nonzero;"/><path id="path9845" d="M168.081,111.496c0.201,-0.153 0.319,-0.392 0.319,-0.645c0,-0.446 -0.366,-0.812 -0.812,-0.812c-0.2,0 -0.393,0.074 -0.542,0.207c-0.172,0.154 -0.27,0.374 -0.27,0.605c0,0.445 0.367,0.812 0.812,0.812c0.178,0 0.352,-0.059 0.493,-0.167Z" style="fill-rule:nonzero;"/><path id="path9847" d="M167.914,111.292c0.113,-0.104 0.178,-0.251 0.178,-0.405c0,-0.302 -0.249,-0.55 -0.551,-0.55c-0.117,0 -0.232,0.038 -0.326,0.108c-0.127,0.104 -0.201,0.26 -0.201,0.424c0,0.301 0.248,0.549 0.55,0.549c0.128,0 0.252,-0.045 0.35,-0.126Z" style="fill:#fff;fill-rule:nonzero;"/><path id="path9849" d="M160.83,115.653c0.33,-0.111 0.553,-0.422 0.553,-0.77c0,-0.445 -0.367,-0.812 -0.812,-0.812c-0.101,0 -0.202,0.019 -0.296,0.056c-0.311,0.122 -0.516,0.423 -0.516,0.756c0,0.446 0.366,0.813 0.812,0.813c0.088,0 0.176,-0.015 0.259,-0.043Z" style="fill-rule:nonzero;"/><path id="path9851" d="M160.739,115.406c0.282,-0.104 0.431,-0.42 0.33,-0.704c-0.078,-0.216 -0.285,-0.362 -0.516,-0.362c-0.3,0 -0.548,0.248 -0.548,0.549c0,0.063 0.011,0.126 0.033,0.186c0.102,0.282 0.418,0.431 0.701,0.331Z" style="fill:#fff;fill-rule:nonzero;"/><path id="path9877" d="M137.046,111.496c-0.187,-0.153 -0.295,-0.383 -0.295,-0.624c0,-0.19 0.066,-0.373 0.188,-0.518c0.153,-0.188 0.383,-0.296 0.625,-0.296c0.189,0 0.372,0.066 0.517,0.187c0.344,0.285 0.393,0.801 0.109,1.146c-0.286,0.34 -0.801,0.387 -1.144,0.105Z" style="fill-rule:nonzero;"/><path id="path9879" d="M137.215,111.292c-0.235,-0.192 -0.267,-0.54 -0.074,-0.772c0.194,-0.232 0.538,-0.267 0.774,-0.075c0.113,0.104 0.177,0.251 0.177,0.404c0,0.302 -0.248,0.55 -0.55,0.55c-0.118,0 -0.232,-0.037 -0.327,-0.107Z" style="fill:#fff;fill-rule:nonzero;"/><path id="path9881" d="M144.299,115.653c-0.332,-0.11 -0.558,-0.423 -0.558,-0.773c0,-0.446 0.367,-0.814 0.814,-0.814c0.102,0 0.204,0.02 0.3,0.058c0.309,0.122 0.514,0.423 0.514,0.756c0,0.447 -0.368,0.814 -0.814,0.814c-0.087,0 -0.173,-0.014 -0.256,-0.041Z" style="fill-rule:nonzero;"/><path id="path9883" d="M144.389,115.406c-0.217,-0.079 -0.362,-0.286 -0.362,-0.516c0,-0.064 0.011,-0.127 0.033,-0.188c0.078,-0.216 0.285,-0.361 0.515,-0.361c0.301,0 0.548,0.247 0.548,0.547c0,0.064 -0.011,0.127 -0.033,0.187c-0.102,0.283 -0.418,0.432 -0.701,0.331Z" style="fill:#fff;fill-rule:nonzero;"/><path id="path9885" d="M152.605,117.13c0.444,-0.002 0.809,-0.369 0.809,-0.814c0,-0.446 -0.367,-0.814 -0.814,-0.814c-0.002,0 -0.004,0 -0.006,0c-0.444,0.004 -0.808,0.37 -0.808,0.814c0,0.447 0.368,0.814 0.814,0.814l0.005,0Z" style="fill-rule:nonzero;"/><text id="text10442" x="74.571px" y="207.543px" style="font-family:'Copperplate';font-size:36.441px;">POST 16</text></svg>