<?xml version="1.0" encoding="UTF-8" standalone="no"?><!DOCTYPE svg PUBLIC "-//W3C//DTD SVG 1.1//EN" "http://www.w3.org/Graphics/SVG/1.1/DTD/svg11.dtd"><svg width="100%" height="100%" viewBox="0 0 300 210" version="1.1" xmlns="http://www.w3.org/2000/svg" xmlns:xlink="http://www.w3.org/1999/xlink" xml:space="preserve" xmlns:serif="http://www.serif.com/" style="fill-rule:evenodd;clip-rule:evenodd;stroke-linejoin:round;stroke-miterlimit:1.41421;"><g id="text887"></g><rect id="Artboard1" x="0" y="0" width="300" height="210" style="fill:none;"/><g id="g1017"><g id="g1003"><path id="path16" d="M138.485,153.549c-0.831,0.269 -1.967,0.498 -3.379,0.674c-0.672,0.088 -1.42,0.132 -2.296,0.132c-1.471,0 -3.065,-0.117 -4.607,-0.238l-0.054,-0.002c-1.429,-0.107 -2.782,-0.209 -4.079,-0.209c-0.927,0 -1.776,0.055 -2.591,0.159c-2.425,0.301 -4.336,1.063 -4.336,1.063l0.02,-0.198c0.47,-4.861 4.555,-9.012 9.498,-9.668c0.456,-0.054 0.926,-0.084 1.395,-0.084c4.657,0 9.174,3.531 10.516,8.221l0.034,0.121l-0.121,0.029Zm5.69,2.064l-0.001,-0.066c-0.022,-0.313 -0.081,-0.819 -0.147,-1.362c-0.127,-0.987 -0.342,-1.958 -0.64,-2.894c-2.248,-7.091 -8.266,-11.667 -15.331,-11.667c-0.705,0 -1.433,0.045 -2.152,0.143c-9.06,1.165 -15.214,9.377 -14.015,18.693c1.089,8.434 7.875,14.212 16.133,14.212c0.697,0 1.423,-0.048 2.156,-0.136c4.401,-0.559 8.268,-2.403 11.166,-5.987c0.162,-0.205 0.243,-0.466 0.213,-0.699c-0.026,-0.208 -0.148,-0.405 -0.367,-0.564c-0.486,-0.349 -2.221,-1.191 -3.165,-1.641c-0.277,-0.138 -0.501,-0.246 -0.625,-0.308c-0.286,-0.147 -0.491,-0.214 -0.678,-0.214c-0.229,0 -0.446,0.117 -0.658,0.375c-1.868,2.171 -4.232,3.312 -6.647,3.629c-0.479,0.058 -0.943,0.089 -1.395,0.089c-4.401,0 -8.843,-2.947 -10.132,-6.992l-0.032,-0.106l0.095,-0.045c0.228,-0.114 2.288,-1.073 5.34,-1.073c0.378,0 0.764,0.016 1.141,0.049c0.875,0.069 1.754,0.183 2.681,0.3c1.712,0.227 3.487,0.461 5.559,0.461c1.276,0 2.532,-0.092 3.812,-0.27c5.038,-0.971 7.036,-2.384 7.052,-2.397c0.711,-0.46 0.685,-0.842 0.637,-1.53" style="fill:#2151a1;fill-rule:nonzero;"/><path id="path18" d="M223.096,141.48c0,-0.423 -0.347,-0.763 -0.766,-0.763l-4.17,0c-0.415,0 -0.759,0.34 -0.759,0.763l0,29.647c0,0.419 0.344,0.765 0.759,0.765l4.17,0c0.419,0 0.766,-0.346 0.766,-0.765l0,-29.647" style="fill:#2151a1;fill-rule:nonzero;"/><path id="path20" d="M220.249,130.143c-2.073,0 -3.764,1.692 -3.764,3.768c0,2.071 1.691,3.76 3.764,3.76c2.078,0 3.764,-1.689 3.764,-3.76c0,-2.076 -1.686,-3.768 -3.764,-3.768" style="fill:#2151a1;fill-rule:nonzero;"/><path id="path22" d="M165.053,145.254c5.909,0 10.54,4.863 10.54,11.076c0,6.249 -4.394,10.957 -10.222,10.957c-2.943,0 -5.67,-1.055 -7.666,-2.967c-2.059,-1.966 -3.188,-4.742 -3.188,-7.804c0,-6.21 4.726,-11.262 10.536,-11.262m-0.185,27.428c0.264,0.011 0.537,0.022 0.802,0.022c4.284,0 8.265,-1.654 11.224,-4.635c2.999,-3.038 4.646,-7.205 4.646,-11.739c0,-9.367 -7.211,-16.706 -16.419,-16.706c-7.494,0 -13.819,4.934 -15.754,12.274c-0.329,1.247 -0.669,4.425 -0.669,7.594l0,23.262c0,0.424 0.34,0.769 0.764,0.769l4.136,0c0.428,0 0.774,-0.35 0.774,-0.775l-0.004,-14.654l0.217,0.211c2.032,1.974 5.799,4.167 10.283,4.377" style="fill:#2151a1;fill-rule:nonzero;"/><path id="path24" d="M90.747,145.254c5.904,0 10.536,4.863 10.536,11.076c0,6.249 -4.392,10.957 -10.225,10.957c-2.95,0 -5.665,-1.055 -7.66,-2.967c-2.062,-1.966 -3.196,-4.742 -3.196,-7.804c0,-6.21 4.73,-11.262 10.545,-11.262m-0.184,27.428c0.264,0.011 0.535,0.022 0.796,0.022c4.289,0 8.272,-1.654 11.225,-4.635c3,-3.038 4.653,-7.205 4.653,-11.739c0,-9.367 -7.218,-16.706 -16.428,-16.706c-7.491,0 -13.823,4.934 -15.752,12.274c-0.335,1.247 -0.671,4.425 -0.671,7.594l0,23.262c0,0.424 0.344,0.769 0.758,0.769l4.148,0c0.425,0 0.772,-0.35 0.772,-0.775l-0.007,-14.654l0.209,0.211c2.032,1.974 5.8,4.167 10.297,4.377" style="fill:#2151a1;fill-rule:nonzero;"/><path id="path26" d="M185.525,167.489c3.601,3.295 7.534,5.178 12.641,5.178l0.162,0c8.815,-0.057 12.754,-4.875 12.754,-9.622c0,-6.566 -6.195,-8.361 -8.093,-8.759c-0.609,-0.119 -1.242,-0.238 -1.892,-0.367c-1.534,-0.295 -3.127,-0.6 -4.574,-1c-1.015,-0.279 -4.323,-1.381 -4.323,-3.854c0,-2.723 3.022,-4.191 5.86,-4.191c2.385,0 4.373,0.401 6.917,2.388c0.199,0.156 0.478,0.336 0.819,0.336c0.251,0 0.492,-0.087 0.752,-0.273c0.704,-0.519 1.993,-1.606 2.844,-2.457c0.201,-0.204 0.295,-0.426 0.283,-0.659c-0.02,-0.361 -0.288,-0.656 -0.426,-0.77c-3.402,-2.699 -6.676,-3.803 -11.293,-3.815l-0.034,0c-6.604,0 -11.589,4.245 -11.589,9.873c0,4.46 3.666,7.628 10.312,8.933l4.162,0.798c2.735,0.502 4.273,1.954 4.219,3.988c-0.049,1.983 -2.48,4.036 -6.475,4.036c-3.26,0 -6.133,-1.274 -8.539,-3.458l-0.035,-0.034c-0.17,-0.154 -0.373,-0.342 -0.646,-0.342c-0.191,0 -0.394,0.089 -0.613,0.259c-0.25,0.204 -3.029,2.401 -3.326,2.712c-0.136,0.146 -0.2,0.3 -0.197,0.462c0.007,0.257 0.177,0.497 0.33,0.638" style="fill:#2151a1;fill-rule:nonzero;"/></g><g id="g994"><path id="path30" d="M192.74,112.036c-24.243,24.249 -63.565,24.246 -87.807,0c-24.255,-24.252 -24.255,-63.571 0,-87.815c24.247,-24.247 63.564,-24.247 87.803,0.002c24.254,24.241 24.254,63.56 0.004,87.812" style="fill:#fff;fill-rule:nonzero;"/><path id="path32" d="M197.173,36.795c1.162,3.767 1.8,7.767 1.8,11.913c0,13.378 -6.577,25.141 -16.581,32.512c-17.395,12.812 -42.75,12.829 -77.758,23.86c10.566,12.629 26.443,20.667 44.2,20.667c31.823,0 57.62,-25.796 57.62,-57.618c0,-11.552 -3.419,-22.307 -9.281,-31.334" style="fill:#2151a1;fill-rule:nonzero;"/><path id="path34" d="M183.389,22.026c-9.628,-7.236 -21.59,-11.518 -34.553,-11.518c-31.822,0 -57.618,25.803 -57.618,57.621c0,12.807 4.178,24.637 11.245,34.202c38.753,-11.283 69.352,-41.682 80.926,-80.305" style="fill:#eb1933;fill-rule:nonzero;"/></g></g><text x="72.632px" y="201.111px" style="font-family:'LucidaGrande', 'Lucida Grande', sans-serif;font-weight:500;font-size:18.402px;fill:#2151a1;">bottling ventures</text></svg>