<?xml version="1.0" encoding="UTF-8" standalone="no"?>
<!-- Created with Inkscape (http://www.inkscape.org/) -->

<svg
   version="1.1"
   id="svg2"
   width="1205.9276"
   height="844.36322"
   viewBox="0 0 1205.9276 844.36322"
   sodipodi:docname="SOMERSETHEALTHDPT.SVG.svg"
   inkscape:version="1.1.2 (0a00cf5339, 2022-02-04)"
   xmlns:inkscape="http://www.inkscape.org/namespaces/inkscape"
   xmlns:sodipodi="http://sodipodi.sourceforge.net/DTD/sodipodi-0.dtd"
   xmlns="http://www.w3.org/2000/svg"
   xmlns:svg="http://www.w3.org/2000/svg">
  <defs
     id="defs6" />
  <sodipodi:namedview
     id="namedview4"
     pagecolor="#ffffff"
     bordercolor="#666666"
     borderopacity="1.0"
     inkscape:pageshadow="2"
     inkscape:pageopacity="0.0"
     inkscape:pagecheckerboard="0"
     showgrid="false"
     fit-margin-top="0"
     fit-margin-left="0"
     fit-margin-right="0"
     fit-margin-bottom="0"
     inkscape:zoom="0.57689565"
     inkscape:cx="161.20766"
     inkscape:cy="550.35949"
     inkscape:window-width="2560"
     inkscape:window-height="1340"
     inkscape:window-x="0"
     inkscape:window-y="33"
     inkscape:window-maximized="1"
     inkscape:current-layer="g8" />
  <g
     inkscape:groupmode="layer"
     inkscape:label="Image"
     id="g8"
     transform="translate(860.15893,-70.304273)">
    <rect
       style="fill:none;stroke:none;stroke-width:5"
       id="rect849"
       width="522.38788"
       height="601.7652"
       x="54.436443"
       y="50.965466"
       ry="27.776501"
       inkscape:export-filename="/home/terminal/Downloads/rect8749.png"
       inkscape:export-xdpi="483.69696"
       inkscape:export-ydpi="483.69696" />
    <g
       transform="matrix(0.03414881,0,0,-0.03414881,-705.23036,964.54653)"
       fill="#000000"
       stroke="none"
       id="g1709">
      <path
         style="fill:#cfab79;fill-opacity:1;stroke:none;stroke-width:29.2836px;stroke-linecap:butt;stroke-linejoin:miter;stroke-opacity:1"
         d="m 6957.6405,23082.654 c 4771.7475,3748.428 8838.7815,3307.092 12502.6135,166.854 -1004.26,-3720.073 -2469.566,-7203.888 -6230.215,-9511.475 -4206.6883,2269.18 -5372.7804,5753.647 -6272.3985,9344.621 z"
         id="path29077"
         sodipodi:nodetypes="cccc" />
      <path
         d="m 12800,26180 c -52,-4 -121,-13 -152,-18 -31,-6 -146,-16 -255,-22 -109,-6 -232,-17 -273,-25 -41,-8 -131,-19 -200,-25 -69,-6 -154,-17 -190,-25 -36,-8 -119,-22 -185,-30 -66,-8 -135,-19 -154,-24 -18,-6 -68,-15 -110,-20 -42,-6 -114,-20 -161,-31 -47,-11 -116,-27 -155,-36 -38,-9 -106,-24 -150,-34 -44,-9 -102,-24 -130,-33 -27,-8 -77,-22 -110,-30 -212,-52 -469,-129 -567,-168 -26,-10 -52,-19 -58,-19 -6,0 -42,-11 -78,-26 -37,-14 -98,-37 -137,-50 -156,-57 -341,-127 -390,-149 -16,-7 -91,-40 -165,-73 -74,-32 -164,-71 -199,-87 -35,-15 -159,-76 -275,-135 -821,-417 -1540,-928 -2169,-1539 -119,-116 -131,-137 -122,-209 9,-78 51,-334 75,-462 11,-58 29,-159 40,-225 59,-344 236,-1070 361,-1485 87,-286 240,-743 318,-945 11,-27 45,-114 75,-192 31,-78 56,-145 56,-148 0,-7 49,-125 75,-180 8,-16 28,-64 45,-105 17,-41 42,-97 54,-125 13,-27 34,-72 46,-100 70,-158 172,-372 238,-500 31,-60 80,-157 110,-215 60,-118 123,-236 175,-325 20,-33 57,-98 83,-145 54,-97 188,-322 214,-360 10,-14 54,-83 98,-155 45,-71 103,-162 129,-202 165,-247 214,-317 268,-389 33,-45 98,-135 145,-199 47,-65 114,-154 150,-199 36,-45 103,-130 150,-191 46,-60 107,-137 136,-170 29,-33 99,-114 156,-181 217,-255 309,-354 583,-634 296,-301 676,-651 933,-858 37,-30 100,-82 142,-116 87,-72 174,-140 315,-245 55,-40 135,-101 178,-133 43,-33 187,-132 320,-221 211,-141 324,-212 592,-370 125,-74 424,-219 461,-224 34,-4 56,4 159,57 129,67 313,176 465,275 52,34 129,84 170,110 89,58 359,251 473,339 45,34 113,86 151,114 37,29 89,70 115,92 25,21 94,79 152,127 309,255 568,493 889,814 275,275 368,374 654,699 81,92 315,372 376,451 293,376 383,498 623,842 84,122 86,124 162,242 170,262 284,443 340,541 11,19 38,65 61,102 149,244 495,895 620,1167 26,55 73,155 105,223 33,68 59,125 59,128 0,2 21,50 46,106 172,382 415,1013 564,1468 52,160 72,221 146,465 14,44 33,107 44,140 51,163 197,719 226,860 8,38 20,90 28,115 8,25 18,65 21,90 4,25 15,74 25,110 10,36 23,97 30,135 6,39 18,92 26,119 7,27 14,70 14,94 0,40 -6,52 -57,111 -174,199 -596,597 -808,761 -38,30 -93,73 -120,95 -53,42 -399,291 -470,336 -370,240 -788,472 -1090,606 -147,65 -212,95 -228,104 -10,5 -46,20 -80,33 -34,13 -87,34 -117,46 -30,12 -80,31 -110,42 -30,10 -70,26 -88,34 -17,8 -51,21 -75,29 -23,8 -114,39 -202,70 -185,65 -271,91 -530,160 -33,9 -89,25 -125,35 -36,10 -83,22 -105,25 -22,4 -69,15 -105,26 -70,20 -105,28 -465,99 -55,11 -142,25 -193,31 -52,6 -108,15 -125,20 -18,5 -97,16 -177,24 -80,8 -185,22 -235,30 -49,8 -173,19 -275,25 -102,6 -225,18 -275,27 -103,17 -859,27 -1025,13 z m 945,-851 c 202,-9 815,-69 855,-83 8,-3 62,-13 120,-21 58,-8 137,-22 175,-30 315,-68 417,-92 530,-122 72,-19 157,-41 190,-49 77,-19 361,-109 442,-140 34,-13 66,-24 72,-24 6,0 25,-7 43,-15 18,-8 121,-49 228,-91 220,-86 238,-94 477,-210 95,-46 175,-84 178,-84 8,0 263,-144 350,-198 28,-18 61,-37 75,-43 14,-5 39,-21 57,-35 17,-13 34,-24 37,-24 10,0 372,-249 450,-310 146,-113 271,-214 276,-220 3,-4 25,-24 50,-45 173,-142 516,-485 523,-522 2,-13 -4,-60 -13,-106 -10,-45 -25,-118 -34,-162 -21,-99 -60,-266 -86,-365 -11,-41 -26,-102 -34,-135 -13,-56 -52,-198 -98,-360 -32,-113 -75,-265 -92,-330 -9,-33 -23,-76 -30,-95 -8,-19 -44,-125 -80,-235 -36,-110 -80,-238 -97,-285 -17,-47 -39,-110 -49,-140 -37,-107 -66,-185 -72,-196 -8,-12 -49,-119 -79,-203 -10,-30 -23,-59 -28,-65 -4,-6 -14,-29 -21,-51 -7,-22 -18,-49 -25,-60 -6,-11 -18,-38 -25,-60 -12,-39 -38,-100 -86,-200 -13,-28 -24,-53 -24,-57 0,-4 -23,-56 -51,-115 -53,-113 -76,-161 -153,-328 -26,-55 -51,-107 -57,-115 -5,-8 -16,-31 -24,-50 -9,-19 -20,-42 -25,-50 -6,-8 -20,-35 -33,-60 -136,-261 -173,-329 -225,-420 -84,-146 -153,-264 -179,-308 -12,-20 -32,-55 -44,-77 -12,-22 -30,-51 -39,-65 -17,-23 -139,-212 -198,-305 -14,-22 -41,-62 -60,-90 -19,-27 -68,-99 -109,-160 -41,-60 -88,-128 -104,-150 -16,-22 -50,-69 -75,-105 -48,-69 -57,-80 -199,-267 -130,-171 -355,-443 -559,-677 -264,-302 -741,-780 -1006,-1007 -41,-35 -83,-72 -93,-82 -26,-26 -364,-305 -443,-365 -221,-169 -414,-308 -564,-404 -52,-34 -124,-80 -160,-103 -93,-60 -130,-82 -175,-105 -22,-11 -67,-35 -100,-54 -33,-20 -69,-35 -79,-36 -26,0 -318,150 -438,226 -21,13 -55,34 -75,47 -21,13 -58,36 -83,52 -25,16 -61,38 -80,50 -74,46 -325,217 -405,276 -22,16 -51,37 -65,47 -72,49 -382,291 -425,331 -11,10 -69,58 -128,106 -60,48 -116,94 -126,103 -10,10 -53,49 -97,87 -276,244 -592,556 -860,850 -135,148 -454,528 -571,681 -216,282 -488,675 -702,1015 -22,36 -41,69 -41,72 0,3 -17,32 -39,64 -21,32 -48,76 -60,98 -12,22 -34,61 -49,87 -104,180 -183,328 -312,588 -135,271 -190,386 -190,394 0,4 -14,37 -31,74 -17,37 -39,85 -49,107 -10,22 -32,74 -50,115 -17,41 -37,89 -45,105 -8,17 -24,57 -35,90 -48,134 -58,163 -69,181 -10,18 -30,72 -71,196 -11,31 -24,65 -29,75 -6,10 -29,74 -51,143 -22,69 -47,139 -55,157 -8,17 -15,39 -15,48 0,9 -11,49 -23,88 -59,179 -159,526 -182,627 -7,30 -19,80 -27,110 -26,91 -83,344 -117,515 -10,50 -25,122 -34,160 -20,92 -65,332 -77,420 -6,39 -16,97 -24,130 -17,80 -3,107 110,210 48,44 100,91 114,105 84,79 293,257 395,336 107,82 172,131 195,147 14,10 57,40 95,68 64,46 272,184 370,247 22,14 51,33 65,42 23,15 174,100 378,213 184,101 686,336 797,372 22,7 112,41 200,75 136,52 359,128 575,195 139,44 589,153 825,200 134,27 373,65 510,80 72,9 185,22 251,30 388,48 881,59 1449,34 z"
         id="path1589"
         style="fill:#00295c;fill-opacity:1" />
      <path
         style="fill:#fefefd;fill-opacity:1;stroke:none;stroke-width:29.2836px;stroke-linecap:butt;stroke-linejoin:miter;stroke-opacity:1"
         d="m 9469.268,22528.863 c 834.521,-32.81 1629.284,-257.432 2409.919,-550.214 l 16.202,1819.496 2464.61,-15.836 47.405,-1771.089 c 780.609,302.886 1563.896,592.402 2414.823,544.132 l -3.384,-2401.342 c -1910.19,-221.935 -2592.79,-1615.805 -2463.006,-3785.229 l -2452.605,19.771 c 95.361,3637.001 -1331.849,3247.523 -2433.9854,3717.712 z"
         id="path33195"
         sodipodi:nodetypes="ccccccccccc" />
      <path
         d="m 11760,23973 c -40,-15 -40,-4 -40,-892 -1,-680 -3,-859 -13,-873 -12,-15 -19,-14 -83,16 -122,58 -183,86 -188,86 -4,0 -25,9 -49,19 -81,37 -172,73 -222,86 -27,8 -66,21 -85,29 -31,13 -86,30 -305,96 -160,48 -497,115 -655,131 -58,5 -132,14 -165,20 -90,14 -517,32 -590,24 -39,-4 -69,-13 -77,-22 -11,-13 -13,-268 -13,-1373 0,-1321 1,-1358 19,-1379 17,-19 30,-21 131,-21 112,0 472,-42 521,-60 14,-6 58,-17 97,-26 40,-9 83,-22 97,-29 14,-7 41,-16 60,-20 39,-8 144,-51 238,-99 34,-17 75,-37 90,-45 100,-50 272,-169 397,-275 177,-150 383,-397 493,-591 34,-61 142,-285 142,-295 0,-5 11,-38 24,-72 38,-99 73,-216 92,-308 9,-47 21,-105 27,-130 6,-27 11,-375 13,-865 2,-451 6,-835 10,-853 11,-65 -66,-62 1386,-62 745,0 1330,4 1352,10 77,17 70,-59 77,908 l 6,867 26,120 c 15,66 36,149 47,185 10,36 22,79 26,95 28,123 185,437 298,600 216,309 563,600 916,767 93,44 323,120 475,157 110,26 352,51 502,51 104,0 113,2 127,22 14,20 16,167 16,1378 0,1234 -1,1358 -16,1379 l -16,23 -227,-5 c -251,-5 -522,-27 -681,-57 -58,-10 -130,-22 -160,-25 -30,-4 -73,-11 -95,-17 -22,-6 -85,-21 -140,-33 -55,-13 -131,-32 -170,-43 -169,-48 -251,-73 -270,-82 -11,-6 -40,-17 -65,-24 -137,-45 -320,-118 -488,-197 -46,-21 -87,-39 -92,-39 -5,0 -12,10 -15,23 -3,12 -6,396 -8,854 -2,784 -3,833 -20,850 -17,17 -87,18 -1380,20 -749,1 -1369,-1 -1377,-4 z m 2406,-321 c 33,-22 34,-45 34,-987 0,-626 3,-943 10,-956 17,-31 49,-23 150,37 77,46 430,227 565,289 137,64 516,193 675,230 30,7 93,22 140,34 286,69 543,105 742,106 107,0 150,-3 160,-13 19,-19 25,-2055 7,-2089 -15,-28 -47,-37 -209,-59 -540,-71 -1050,-326 -1466,-730 -79,-78 -196,-213 -272,-317 -141,-191 -287,-479 -360,-708 -124,-391 -133,-472 -139,-1281 -4,-599 -6,-639 -23,-660 l -18,-23 -1031,-3 -1030,-2 -20,21 c -19,21 -20,39 -24,638 -3,567 -5,629 -25,776 -97,707 -437,1300 -997,1741 -314,247 -709,423 -1120,499 -77,14 -168,29 -203,32 -40,4 -72,13 -88,25 l -24,19 v 1038 c 0,1031 0,1038 20,1056 20,18 31,18 213,6 106,-6 225,-18 265,-26 40,-8 110,-19 155,-25 45,-6 114,-19 152,-29 39,-11 90,-22 115,-26 25,-4 74,-15 110,-26 36,-10 115,-32 175,-50 183,-51 400,-130 560,-204 146,-66 384,-189 495,-255 74,-44 142,-80 150,-80 47,0 45,-46 50,998 4,810 7,982 19,995 12,16 98,17 1045,17 567,0 1036,-4 1042,-8 z"
         id="path1591"
         style="fill:#00285c;fill-opacity:1" />
      <path
         d="m 7010,11319 c -58,-21 -139,-45 -180,-54 -166,-37 -207,-44 -242,-45 -49,0 -83,-17 -97,-47 -11,-25 -15,-221 -5,-260 8,-30 52,-43 144,-43 129,0 115,127 118,-1034 l 2,-1005 26,-20 c 24,-19 40,-21 178,-21 h 151 l 56,60 c 63,67 80,72 137,36 131,-82 238,-116 397,-123 90,-4 126,-1 197,16 152,36 244,94 382,239 74,79 146,207 171,307 7,28 21,77 30,110 25,90 32,346 12,455 -42,225 -101,350 -227,483 -157,166 -321,223 -570,197 -99,-10 -159,-28 -277,-86 -29,-14 -64,-24 -80,-22 l -28,3 -5,425 c -4,320 -8,431 -18,448 -12,20 -20,22 -90,21 -63,-1 -97,-8 -182,-40 z m 699,-1186 c 140,-71 197,-241 181,-538 -6,-112 -12,-141 -39,-210 -70,-178 -203,-263 -358,-226 -63,15 -138,79 -166,140 -20,43 -21,67 -25,379 l -4,334 46,43 c 32,29 70,51 128,73 108,39 166,41 237,5 z"
         id="path1593"
         style="fill:#00295c;fill-opacity:1" />
      <path
         d="m 9015,11314 c -162,-53 -336,-94 -403,-94 -43,0 -54,-4 -71,-26 -19,-24 -21,-40 -21,-160 0,-164 0,-164 130,-164 61,0 92,-4 108,-16 l 22,-15 v -795 c 0,-765 -1,-796 -19,-833 -28,-54 -39,-60 -132,-75 -57,-9 -86,-19 -96,-31 -9,-14 -13,-55 -13,-147 0,-118 2,-129 22,-148 22,-20 29,-20 1033,-20 h 1012 l 21,23 c 20,21 22,34 22,148 0,112 -2,128 -20,147 -15,16 -33,22 -61,22 -59,0 -125,19 -146,42 -17,19 -18,60 -21,699 l -3,679 -31,16 c -41,21 -150,14 -205,-14 -65,-34 -242,-80 -387,-102 -204,-30 -190,-17 -194,-186 -3,-176 -2,-177 127,-182 70,-3 90,-8 109,-25 l 22,-20 -1,-396 c 0,-280 -4,-406 -12,-431 -22,-62 -60,-75 -222,-75 -164,0 -216,15 -234,68 -8,20 -11,368 -11,1073 0,1214 14,1085 -117,1082 -62,-1 -104,-10 -208,-44 z"
         id="path1595"
         style="fill:#00295c;fill-opacity:1" />
      <path
         d="m 9965,11331 c -60,-27 -131,-95 -160,-151 -27,-53 -38,-138 -25,-206 20,-106 83,-183 189,-232 46,-21 63,-24 135,-20 98,6 162,34 223,101 69,75 78,99 78,212 0,92 -2,104 -30,154 -83,150 -261,211 -410,142 z"
         id="path1597"
         style="fill:#00295c;fill-opacity:1" />
      <path
         d="m 12904,11306 c -17,-13 -19,-27 -19,-160 0,-105 4,-149 13,-158 8,-8 50,-15 112,-18 93,-5 100,-7 125,-35 15,-16 31,-42 36,-59 13,-45 12,-1536 -1,-1573 -20,-57 -97,-92 -201,-93 -80,0 -84,-8 -84,-164 0,-116 2,-138 18,-153 16,-17 53,-18 520,-21 276,-2 526,0 554,3 29,4 63,15 75,25 22,17 23,25 23,149 0,86 -4,134 -12,142 -6,6 -50,15 -98,20 -95,10 -108,15 -145,54 l -25,27 -5,296 c -3,163 -1,310 4,325 5,16 19,33 33,38 27,10 771,13 798,3 40,-16 45,-51 45,-337 0,-311 -3,-329 -69,-372 -29,-20 -56,-27 -112,-32 -108,-8 -109,-10 -109,-163 0,-111 3,-131 19,-151 l 19,-24 504,-3 c 276,-2 527,0 556,3 78,10 87,29 87,176 0,148 -4,154 -110,162 -89,6 -140,33 -161,83 -12,27 -14,171 -14,810 0,763 0,777 20,809 26,42 64,55 155,55 106,0 110,6 110,175 0,117 -2,135 -19,154 -19,21 -23,21 -573,21 -540,0 -553,0 -573,-20 -18,-18 -20,-33 -20,-158 0,-172 -2,-169 129,-174 92,-3 94,-4 121,-36 15,-19 31,-47 34,-64 3,-17 6,-133 6,-258 v -227 l -26,-24 -26,-24 -371,-3 c -205,-2 -387,0 -404,3 -56,10 -59,25 -53,309 l 5,256 32,31 c 29,29 38,32 110,36 113,6 131,15 139,69 3,24 4,90 2,145 -3,91 -6,103 -27,120 -22,18 -50,19 -575,19 -461,0 -555,-2 -572,-14 z"
         id="path1599"
         style="fill:#00295c;fill-opacity:1" />
      <path
         d="m 19895,11304 c -22,-9 -67,-24 -100,-34 -33,-10 -72,-23 -87,-29 -33,-12 -251,-57 -326,-67 -86,-11 -91,-19 -93,-164 -1,-69 1,-135 5,-148 11,-32 44,-42 136,-42 59,0 83,-4 99,-17 l 22,-18 -3,-735 c -3,-669 -5,-738 -20,-766 -32,-59 -54,-65 -221,-67 -148,-2 -153,-1 -185,23 -68,51 -66,36 -73,550 -4,332 -10,476 -19,505 -31,99 -81,165 -171,225 -141,94 -275,131 -496,138 -137,4 -166,1 -284,-23 -73,-15 -153,-36 -178,-47 -130,-57 -176,-86 -251,-160 -75,-74 -78,-79 -100,-159 -19,-70 -20,-88 -10,-127 26,-106 74,-160 164,-186 68,-20 104,-20 173,0 70,20 114,60 159,143 75,136 98,165 158,195 52,26 63,28 127,23 81,-7 134,-38 169,-100 30,-53 40,-209 16,-255 -9,-18 -22,-32 -29,-32 -108,-1 -459,-63 -610,-109 -226,-68 -392,-228 -411,-396 -4,-33 -9,-77 -12,-97 -7,-43 1,-48 -127,78 -73,73 -113,104 -132,104 -3,0 -34,-27 -70,-60 -115,-107 -237,-172 -365,-195 -237,-43 -441,96 -504,343 -21,83 -20,94 7,112 19,13 108,16 577,20 l 554,5 13,25 c 23,46 16,175 -16,285 -51,174 -107,277 -210,383 -105,107 -214,167 -382,207 -106,25 -124,27 -264,22 -222,-8 -358,-49 -522,-155 -171,-110 -297,-276 -361,-474 -25,-78 -27,-94 -27,-273 0,-186 1,-192 31,-282 69,-203 185,-352 377,-485 81,-55 166,-93 277,-123 127,-33 363,-36 484,-5 160,41 244,77 361,158 93,64 124,90 222,183 l 72,69 15,-48 c 24,-83 64,-150 129,-216 201,-205 563,-211 897,-16 91,53 111,52 185,-12 68,-58 137,-92 234,-114 77,-19 212,-20 291,-4 37,7 224,11 560,11 284,-1 523,3 545,9 68,16 77,36 73,171 -4,145 -9,153 -104,162 -77,7 -110,22 -138,60 -21,28 -21,34 -26,1024 -5,970 -5,995 -24,1009 -26,19 -130,17 -181,-2 z m -3217,-1013 c 65,-33 112,-80 138,-139 28,-62 30,-94 9,-112 -18,-15 -522,-15 -541,1 -23,19 -22,48 5,102 40,81 108,138 201,168 42,14 142,3 188,-20 z m 1829,-688 c 19,-25 17,-206 -2,-244 -29,-55 -232,-137 -312,-127 -142,20 -211,138 -141,241 36,54 80,83 167,111 138,46 263,54 288,19 z"
         id="path1601"
         style="fill:#00295c;fill-opacity:1" />
      <path
         d="m 22340,11295 c -160,-57 -295,-91 -484,-120 -49,-8 -91,-17 -95,-21 -3,-3 -6,-73 -6,-154 0,-109 4,-153 13,-162 8,-8 48,-14 112,-16 74,-3 102,-8 112,-19 20,-24 19,-1499 -1,-1536 -21,-39 -69,-57 -149,-57 -75,0 -86,6 -98,55 -4,17 -11,35 -16,42 -12,15 -59,7 -110,-18 -91,-46 -251,-62 -342,-35 -67,20 -130,76 -152,133 -16,42 -18,93 -22,433 -3,328 -1,388 12,405 14,19 28,20 262,23 211,3 251,5 266,19 16,14 18,36 18,174 0,146 -1,159 -19,169 -12,6 -112,10 -248,11 -125,1 -241,4 -258,8 l -30,6 -5,273 c -6,336 7,312 -171,312 -150,0 -161,-7 -189,-129 -33,-138 -90,-240 -189,-341 -68,-68 -102,-94 -163,-123 -42,-20 -84,-47 -92,-59 -13,-17 -16,-51 -16,-149 0,-161 1,-162 136,-167 83,-4 96,-7 109,-25 13,-18 15,-88 15,-457 0,-452 4,-506 40,-604 44,-115 193,-234 354,-280 233,-68 478,-49 735,57 52,21 54,21 65,3 6,-10 21,-31 33,-45 l 21,-26 h 467 467 l 24,28 c 22,26 24,36 23,135 -1,130 -7,155 -39,163 -104,28 -113,33 -137,78 -23,44 -23,47 -23,407 0,235 4,371 11,386 23,51 178,132 292,154 121,23 190,-1 223,-79 17,-38 19,-81 22,-407 2,-201 1,-384 -3,-408 -9,-61 -53,-108 -109,-116 -73,-11 -81,-28 -81,-172 0,-115 2,-125 23,-146 l 23,-23 h 460 461 l 25,29 c 24,28 24,33 21,153 -4,146 -8,153 -95,153 -61,0 -109,17 -138,50 -19,21 -20,41 -26,499 -7,510 -10,543 -59,641 -32,62 -113,145 -180,182 -100,56 -174,73 -315,72 -156,0 -255,-25 -405,-99 -77,-38 -100,-45 -120,-38 l -25,8 -5,384 c -5,364 -6,383 -24,397 -30,22 -130,17 -206,-11 z"
         id="path1603"
         style="fill:#00295c;fill-opacity:1" />
      <path
         d="m 2373,11215 c -22,-15 -23,-23 -23,-150 0,-133 0,-135 25,-151 14,-9 60,-20 104,-25 98,-9 118,-20 141,-73 18,-39 19,-85 20,-791 1,-459 -2,-762 -8,-781 -25,-80 -56,-100 -175,-111 -104,-9 -107,-15 -107,-170 0,-71 4,-133 8,-139 21,-32 51,-34 587,-34 461,0 540,2 565,15 l 30,16 v 139 c 0,165 0,164 -117,173 -92,7 -141,30 -159,73 -20,49 -20,512 0,540 14,18 32,19 333,24 346,6 359,8 528,77 107,45 222,134 297,231 70,92 105,122 141,122 49,0 110,-40 124,-80 8,-25 12,-159 12,-462 1,-235 6,-460 11,-501 7,-50 22,-94 45,-139 114,-214 381,-305 693,-234 115,26 188,55 293,117 87,50 105,50 118,2 5,-21 11,-51 13,-68 5,-52 19,-53 391,-46 320,6 339,7 353,25 10,15 14,53 14,148 0,115 -2,130 -20,148 -11,11 -28,20 -37,21 -125,7 -176,26 -192,72 -7,20 -11,247 -11,668 0,620 -1,640 -19,658 -11,11 -35,23 -53,26 -18,3 -183,2 -365,-3 -415,-10 -383,5 -383,-183 0,-119 2,-130 22,-149 16,-14 35,-20 72,-20 68,0 134,-33 152,-76 11,-26 14,-112 16,-393 1,-319 0,-362 -15,-385 -9,-13 -54,-48 -99,-76 -184,-113 -347,-121 -415,-20 l -23,33 v 603 c 0,347 -4,613 -9,627 -17,45 -52,48 -358,41 -330,-8 -326,-9 -338,78 -20,145 -116,305 -252,417 -72,61 -142,98 -263,139 l -105,36 -770,3 c -695,4 -772,2 -792,-12 z m 1238,-389 c 89,-12 112,-19 153,-47 121,-81 160,-151 160,-284 0,-70 -4,-100 -20,-135 -28,-59 -93,-132 -149,-164 -60,-36 -214,-59 -363,-54 -99,3 -116,6 -128,23 -11,15 -14,77 -14,325 0,321 1,333 45,343 43,10 215,6 316,-7 z"
         id="path1605"
         style="fill:#00295c;fill-opacity:1" />
      <path
         d="m 11455,10570 c -316,-24 -603,-217 -740,-495 -127,-261 -129,-553 -5,-810 119,-246 351,-427 619,-481 190,-38 379,-30 573,26 106,30 215,95 348,206 140,117 199,189 184,228 -8,21 -164,161 -202,180 -32,16 -33,16 -67,-10 -20,-15 -39,-32 -43,-39 -9,-16 -127,-115 -137,-115 -4,0 -19,-9 -34,-19 -106,-75 -290,-98 -409,-51 -193,76 -312,273 -312,515 0,114 28,229 75,309 42,71 121,138 196,164 77,27 99,27 164,5 68,-24 113,-72 175,-189 63,-117 109,-165 185,-193 71,-27 129,-27 202,0 213,79 257,304 96,496 -51,60 -165,148 -243,186 -109,53 -199,77 -330,87 -138,10 -150,10 -295,0 z"
         id="path1607"
         style="fill:#00295c;fill-opacity:1" />
      <path
         d="m 2355,8313 c -11,-3 -27,-11 -36,-19 -15,-13 -12,-18 22,-53 l 39,-39 v -375 -375 l -51,-45 -50,-44 30,-12 c 37,-16 255,-17 294,-2 34,13 34,22 -2,44 -16,9 -41,31 -56,49 -26,31 -27,34 -23,151 4,155 1,153 175,159 220,9 315,54 371,178 62,135 8,280 -132,352 -36,19 -66,22 -241,29 -223,9 -310,9 -340,2 z m 489,-101 c 53,-38 95,-113 96,-170 0,-87 -67,-179 -147,-201 -21,-6 -76,-11 -123,-11 -67,0 -92,4 -117,20 l -33,20 v 159 c 0,144 2,161 20,184 26,33 44,36 164,32 90,-3 102,-6 140,-33 z"
         id="path1609"
         style="fill:#00295c;fill-opacity:1" />
      <path
         d="m 9880,8313 c -14,-3 -32,-11 -42,-20 -15,-13 -13,-17 20,-48 l 37,-33 3,-378 3,-377 -47,-44 c -36,-33 -45,-46 -36,-55 18,-18 132,-28 222,-19 89,9 119,25 85,43 -11,6 -35,26 -53,45 l -34,33 4,124 c 4,166 -1,162 171,169 217,9 309,50 363,164 30,65 36,166 11,224 -30,73 -106,138 -183,157 -42,11 -482,23 -524,15 z m 456,-89 c 19,-9 51,-36 70,-60 50,-61 58,-138 22,-216 -42,-90 -100,-118 -249,-118 -132,0 -133,1 -137,188 -4,167 7,216 50,226 46,10 209,-3 244,-20 z"
         id="path1611"
         style="fill:#00295c;fill-opacity:1" />
      <path
         d="m 17905,8313 c -10,-3 -30,-12 -43,-21 l -24,-16 34,-17 c 67,-34 69,-50 66,-444 -3,-349 -3,-351 -26,-380 -13,-16 -37,-35 -53,-42 -36,-15 -37,-30 -1,-44 41,-16 264,-14 297,3 l 27,14 -36,28 c -79,60 -78,57 -74,198 2,85 7,131 16,140 8,8 60,15 150,19 191,9 265,32 326,99 94,105 102,249 20,357 -35,46 -117,91 -179,97 -77,8 -477,15 -500,9 z m 408,-72 c 94,-15 175,-106 179,-198 1,-48 -32,-125 -69,-158 -39,-35 -114,-55 -204,-55 -79,0 -127,11 -141,33 -11,18 -10,311 2,342 5,14 20,30 32,35 28,11 136,12 201,1 z"
         id="path1613"
         style="fill:#00295c;fill-opacity:1" />
      <path
         d="m 8020,8155 c -30,-60 -51,-90 -75,-105 -32,-20 -65,-60 -65,-78 0,-5 20,-17 45,-26 25,-10 46,-18 47,-19 1,-1 4,-115 7,-254 6,-234 7,-254 27,-280 38,-51 78,-65 173,-57 47,3 95,11 107,16 20,9 39,56 28,68 -3,2 -27,-3 -53,-13 -67,-23 -75,-22 -121,19 l -40,36 v 222 c 0,172 3,226 14,241 10,14 31,20 87,24 60,5 74,9 77,23 4,21 -33,38 -84,38 -36,0 -73,15 -86,34 -4,6 -8,37 -8,69 0,50 -20,127 -33,127 -3,0 -24,-38 -47,-85 z"
         id="path1615"
         style="fill:#00295c;fill-opacity:1" />
      <path
         d="m 15188,8182 c -14,-15 -29,-37 -32,-49 -4,-12 -31,-44 -60,-70 -29,-26 -58,-58 -65,-70 -10,-20 -8,-24 29,-43 23,-11 45,-31 50,-44 5,-13 10,-127 12,-253 3,-200 5,-232 21,-256 26,-40 76,-67 123,-67 48,0 155,19 167,30 15,13 -3,52 -20,46 -8,-3 -32,-9 -54,-12 -36,-6 -42,-3 -79,34 l -41,41 3,225 c 2,150 7,229 14,236 6,7 31,14 55,16 88,10 109,15 109,28 0,17 -43,36 -80,36 -41,0 -77,16 -90,40 -6,11 -14,49 -17,85 -3,36 -9,68 -13,70 -4,2 -18,-8 -32,-23 z"
         id="path1617"
         style="fill:#00295c;fill-opacity:1" />
      <path
         d="m 23250,8177 c -14,-17 -32,-45 -40,-61 -8,-16 -30,-41 -49,-55 -48,-37 -81,-72 -81,-87 0,-7 16,-18 35,-24 63,-21 66,-32 69,-281 2,-180 5,-231 18,-261 31,-69 92,-89 213,-68 82,14 97,24 84,57 -8,21 -10,21 -36,8 -15,-8 -40,-15 -55,-15 -37,0 -85,44 -98,88 -13,50 -13,390 1,430 11,33 16,35 117,46 56,6 63,13 33,37 -15,12 -39,19 -68,19 -64,0 -93,31 -93,102 0,56 -8,98 -19,98 -3,0 -17,-15 -31,-33 z"
         id="path1619"
         style="fill:#00295c;fill-opacity:1" />
      <path
         d="m 20757,8193 c -2,-4 -10,-24 -16,-44 -6,-19 -28,-51 -47,-70 -74,-69 -94,-91 -94,-101 0,-5 15,-15 33,-23 62,-26 62,-26 64,-282 2,-208 4,-238 20,-266 28,-46 78,-77 128,-77 54,0 157,19 173,32 26,22 6,72 -21,50 -24,-19 -85,-23 -115,-8 -58,30 -64,58 -60,292 4,249 6,254 90,254 27,0 58,5 69,11 20,10 20,11 3,30 -13,14 -31,19 -69,19 -72,0 -88,20 -95,114 -5,68 -6,71 -32,74 -14,2 -28,0 -31,-5 z"
         id="path1621"
         style="fill:#00295c;fill-opacity:1" />
      <path
         d="m 3664,8006 c -28,-13 -55,-29 -58,-35 -4,-6 -22,-11 -40,-11 -24,0 -38,7 -55,31 -20,27 -27,30 -57,24 -19,-3 -55,-15 -79,-25 -43,-18 -44,-21 -33,-44 6,-14 19,-28 28,-31 34,-11 40,-51 40,-257 v -202 l -52,-48 -51,-47 29,-12 c 38,-15 241,-14 279,1 l 30,12 -24,16 c -37,27 -73,65 -82,90 -5,13 -9,90 -9,171 0,135 2,152 23,192 17,33 37,51 76,73 l 54,29 51,-22 c 90,-37 126,-26 126,41 0,29 -6,41 -26,54 -42,28 -112,28 -170,0 z"
         id="path1623"
         style="fill:#00295c;fill-opacity:1" />
      <path
         d="m 4352,8019 c -171,-30 -278,-190 -258,-386 11,-111 54,-190 135,-248 73,-53 169,-68 291,-45 83,16 201,106 181,139 -10,16 -70,5 -77,-14 -3,-7 -37,-27 -75,-45 -58,-26 -78,-31 -111,-26 -96,16 -164,78 -191,176 -26,91 -23,134 11,161 26,21 31,21 228,16 186,-6 203,-5 218,12 21,23 20,56 -3,107 -25,54 -76,111 -122,134 -45,24 -153,33 -227,19 z m 167,-87 c 45,-36 59,-72 43,-107 l -12,-26 -137,3 -138,3 -3,39 c -3,33 1,43 25,63 81,69 157,77 222,25 z"
         id="path1625"
         style="fill:#00295c;fill-opacity:1" />
      <path
         d="m 6134,8016 c -128,-29 -191,-88 -234,-218 -46,-137 -13,-283 86,-382 59,-59 96,-76 183,-83 137,-10 261,34 304,109 15,26 15,29 -2,37 -13,7 -25,4 -47,-10 -63,-43 -139,-74 -180,-73 -55,1 -138,48 -175,100 -34,46 -55,134 -45,187 12,63 44,71 262,64 198,-7 224,-1 224,48 0,43 -45,129 -88,167 -63,57 -178,79 -288,54 z m 157,-72 c 31,-16 69,-64 69,-88 0,-9 -9,-25 -20,-36 -18,-18 -33,-20 -134,-20 -91,0 -118,3 -130,16 -25,24 -19,57 17,91 62,61 129,73 198,37 z"
         id="path1627"
         style="fill:#00295c;fill-opacity:1" />
      <path
         d="m 7188,8011 c -31,-10 -72,-28 -91,-40 -42,-26 -80,-20 -103,15 -23,35 -45,37 -119,13 -63,-21 -66,-24 -60,-48 3,-14 20,-36 36,-49 l 29,-23 v -212 -211 l -47,-43 c -58,-54 -50,-66 49,-73 145,-11 265,14 213,44 -11,6 -35,26 -52,44 l -33,33 v 159 c 0,88 5,171 11,187 28,75 124,133 222,133 58,0 65,-2 95,-33 18,-18 37,-49 42,-68 6,-18 10,-111 10,-205 0,-189 2,-182 -74,-242 -21,-16 -26,-26 -19,-33 17,-17 145,-28 222,-19 102,11 114,24 57,58 -65,39 -68,49 -71,280 -4,233 -10,262 -66,305 -66,49 -154,59 -251,28 z"
         id="path1629"
         style="fill:#00295c;fill-opacity:1" />
      <path
         d="m 11210,8018 c -14,-7 -48,-22 -77,-35 -56,-26 -72,-23 -117,19 -24,22 -65,18 -125,-11 -44,-21 -44,-46 -1,-89 l 30,-30 v -208 -207 l -46,-45 c -32,-31 -43,-47 -36,-54 26,-26 278,-26 304,0 7,7 3,16 -13,29 -13,10 -36,31 -51,47 l -28,28 v 165 c 0,185 8,215 65,259 45,34 93,40 148,19 39,-15 49,-15 73,-3 31,14 46,53 32,81 -20,39 -106,58 -158,35 z"
         id="path1631"
         style="fill:#00295c;fill-opacity:1" />
      <path
         d="m 11870,8020 c -65,-12 -99,-27 -146,-65 -67,-55 -103,-120 -116,-211 -22,-155 17,-267 125,-358 l 49,-41 150,-3 150,-3 55,33 c 125,76 179,232 142,410 -39,183 -197,275 -409,238 z m 131,-65 c 71,-25 106,-68 136,-163 29,-92 28,-146 -2,-246 -13,-44 -29,-70 -62,-102 -83,-81 -163,-83 -244,-7 -39,37 -53,59 -69,110 -25,82 -25,160 0,241 29,92 79,149 155,173 31,11 40,10 86,-6 z"
         id="path1633"
         style="fill:#00295c;fill-opacity:1" />
      <path
         d="m 12905,7995 c -112,-51 -107,-51 -129,-10 -23,42 -43,44 -128,13 -55,-20 -59,-23 -53,-47 4,-14 10,-27 15,-29 5,-2 20,-12 34,-23 l 26,-20 v -210 c 0,-231 5,-213 -70,-271 -27,-21 -32,-30 -23,-39 29,-29 237,-33 291,-6 23,11 22,12 -30,58 l -53,47 v 179 179 l 29,35 c 74,88 198,120 264,69 17,-14 35,-36 39,-50 5,-14 8,-112 8,-219 v -193 l -50,-44 c -38,-34 -47,-46 -37,-56 27,-27 227,-31 279,-6 22,11 21,12 -22,56 l -45,45 v 180 c 0,211 5,225 98,279 44,25 68,32 110,32 46,0 56,-4 85,-32 l 32,-32 3,-211 3,-210 -48,-45 c -44,-41 -47,-46 -30,-58 34,-26 245,-27 287,-1 7,4 -7,25 -39,57 l -51,51 v 201 c 0,111 -5,218 -10,238 -23,80 -98,128 -201,128 -51,0 -168,-40 -207,-71 -25,-19 -25,-19 -61,3 -80,48 -117,62 -176,66 -52,2 -71,-2 -140,-33 z"
         id="path1635"
         style="fill:#00295c;fill-opacity:1" />
      <path
         d="m 14305,8016 c -78,-21 -97,-31 -142,-74 -92,-90 -124,-227 -88,-380 22,-93 79,-166 163,-211 33,-18 283,-15 325,3 57,24 115,84 149,154 31,62 33,74 33,167 0,88 -4,107 -28,161 -35,75 -106,148 -167,169 -61,22 -183,28 -245,11 z m 162,-67 c 12,-4 40,-25 63,-45 32,-29 45,-51 62,-108 27,-86 27,-150 3,-236 -16,-54 -28,-74 -72,-117 -82,-80 -148,-82 -240,-7 -109,90 -115,341 -11,460 59,67 116,83 195,53 z"
         id="path1637"
         style="fill:#00295c;fill-opacity:1" />
      <path
         d="m 15953,8015 c -77,-17 -98,-27 -151,-79 -72,-69 -110,-186 -98,-305 18,-174 130,-287 294,-298 107,-7 180,8 240,51 54,40 82,84 60,97 -20,13 -27,11 -67,-19 -20,-15 -56,-37 -81,-47 -128,-56 -269,31 -302,187 -12,57 -8,91 16,123 14,19 26,20 224,20 261,0 266,2 222,117 -36,94 -86,135 -188,157 -65,14 -90,13 -169,-4 z m 131,-56 c 53,-15 109,-75 101,-109 -10,-44 -30,-50 -156,-50 -110,0 -119,1 -133,22 -9,12 -16,30 -16,40 0,31 105,104 155,107 6,1 27,-4 49,-10 z"
         id="path1639"
         style="fill:#00295c;fill-opacity:1" />
      <path
         d="m 19216,8005 c -32,-13 -64,-29 -69,-34 -18,-18 -50,-12 -78,15 -32,31 -75,34 -136,9 -56,-22 -58,-52 -8,-91 l 35,-26 v -209 -210 l -47,-44 c -43,-39 -46,-46 -33,-59 25,-24 243,-26 275,-2 19,13 18,16 -22,59 -50,54 -58,97 -51,275 4,107 6,120 32,158 47,71 96,84 203,54 58,-17 93,4 93,54 0,30 -5,37 -43,55 -55,27 -78,26 -151,-4 z"
         id="path1641"
         style="fill:#00295c;fill-opacity:1" />
      <path
         d="m 19905,8020 c -79,-14 -124,-37 -175,-90 -39,-42 -51,-64 -75,-141 -21,-68 -26,-102 -21,-135 17,-126 66,-221 144,-278 43,-31 45,-31 180,-34 82,-2 152,1 174,8 51,15 134,100 167,169 22,48 26,70 26,156 0,91 -3,106 -31,165 -38,81 -100,143 -162,165 -58,20 -161,27 -227,15 z m 142,-71 c 110,-41 171,-218 131,-377 -16,-65 -41,-104 -96,-149 -41,-33 -53,-38 -98,-38 -65,0 -124,39 -169,110 -29,47 -30,52 -30,169 0,107 3,126 23,166 58,110 146,154 239,119 z"
         id="path1643"
         style="fill:#00295c;fill-opacity:1" />
      <path
         d="m 21535,8020 c -96,-24 -167,-79 -213,-165 -25,-46 -27,-59 -27,-175 0,-112 2,-130 24,-170 49,-93 120,-154 203,-171 83,-18 278,3 278,30 0,4 13,15 30,24 16,10 38,30 49,46 17,24 18,31 7,46 -12,17 -14,17 -44,-1 -18,-10 -32,-22 -32,-26 0,-14 -99,-58 -145,-65 -36,-5 -54,-1 -99,22 -70,35 -111,86 -130,163 -23,86 -21,118 10,149 l 26,26 203,-6 c 237,-7 241,-6 233,66 -7,56 -47,128 -91,161 -59,45 -196,68 -282,46 z m 144,-66 c 73,-29 118,-119 71,-144 -12,-6 -72,-9 -152,-8 l -133,3 -3,34 c -4,42 24,75 93,107 59,28 72,29 124,8 z"
         id="path1645"
         style="fill:#00295c;fill-opacity:1" />
      <path
         d="m 22421,8015 c -123,-35 -200,-118 -227,-247 -13,-61 -14,-87 -4,-158 15,-113 57,-177 164,-249 36,-24 48,-26 135,-26 166,0 187,7 280,92 44,40 45,43 29,59 -17,17 -20,16 -70,-18 -88,-59 -119,-72 -178,-72 -95,0 -174,64 -211,169 -43,122 -9,279 75,353 97,85 196,60 284,-72 35,-53 81,-62 108,-21 37,56 -26,146 -129,183 -61,21 -191,25 -256,7 z"
         id="path1647"
         style="fill:#00295c;fill-opacity:1" />
      <path
         d="m 4965,7990 c -18,-20 -18,-21 12,-53 36,-39 66,-88 86,-142 18,-48 63,-158 83,-202 8,-17 14,-34 14,-38 0,-6 45,-106 73,-165 7,-13 25,-31 40,-40 45,-25 75,0 114,95 18,44 39,94 47,110 8,17 31,68 51,115 77,177 97,215 136,261 l 40,47 -23,16 c -23,16 -129,22 -175,10 -33,-9 -37,-33 -8,-60 29,-27 32,-69 8,-129 -8,-22 -25,-67 -38,-100 -12,-33 -27,-73 -34,-88 -6,-16 -11,-30 -11,-33 0,-3 -7,-21 -15,-40 l -15,-35 -29,17 c -23,14 -40,44 -90,169 -68,171 -76,223 -38,250 l 22,16 -24,20 c -19,16 -39,19 -116,19 -80,0 -94,-3 -110,-20 z"
         id="path1649"
         style="fill:#00295c;fill-opacity:1" />
      <path
         d="m 8679,7471 c -67,-68 -7,-162 84,-132 49,16 66,59 44,107 -28,59 -83,69 -128,25 z"
         id="path1651"
         style="fill:#00295c;fill-opacity:1" />
      <path
         d="m 16733,7490 c -29,-12 -55,-63 -47,-94 14,-56 79,-79 130,-47 55,34 49,112 -11,139 -30,14 -42,14 -72,2 z"
         id="path1653"
         style="fill:#00295c;fill-opacity:1" />
      <path
         d="m 23904,7485 c -39,-16 -59,-61 -45,-99 11,-29 64,-57 90,-49 45,14 61,28 67,60 12,65 -51,114 -112,88 z"
         id="path1655"
         style="fill:#00295c;fill-opacity:1" />
      <path
         d="m 1941,6174 c -22,-16 -23,-18 -19,-191 3,-159 5,-176 22,-189 17,-12 1564,-14 11186,-14 8671,0 11169,3 11178,12 8,8 12,66 12,195 0,170 -1,183 -19,193 -14,7 -3505,10 -11178,10 -10251,0 -11160,-1 -11182,-16 z"
         id="path1657"
         style="fill:#002244;fill-opacity:1" />
      <path
         d="m 6145,5216 c -96,-28 -135,-45 -189,-85 -64,-47 -87,-75 -122,-147 -23,-48 -26,-63 -22,-128 6,-91 45,-165 121,-229 72,-62 129,-88 329,-153 274,-89 328,-126 328,-225 0,-65 -16,-102 -58,-136 -67,-54 -80,-58 -192,-58 -101,0 -108,2 -174,35 -83,43 -158,121 -197,205 -52,115 -111,146 -161,86 -23,-27 -24,-32 -15,-92 20,-137 66,-350 77,-364 21,-26 73,-18 105,15 36,38 57,38 128,-1 83,-44 197,-63 309,-49 103,12 117,17 191,64 111,71 182,164 193,253 9,76 -1,185 -21,224 -25,47 -102,120 -166,157 -56,32 -163,73 -254,97 -283,76 -375,159 -314,282 22,44 30,51 94,76 88,36 150,33 247,-11 80,-36 145,-97 214,-202 45,-68 52,-75 85,-78 30,-3 41,2 59,25 18,23 21,36 16,76 -9,80 -67,301 -84,320 -20,23 -69,22 -126,-3 -25,-10 -48,-15 -51,-11 -10,18 -172,63 -235,67 -38,2 -86,-2 -115,-10 z"
         id="path1659"
         style="fill:#00295c;fill-opacity:1" />
      <path
         d="m 14850,5224 c -76,-15 -180,-49 -218,-73 -152,-92 -271,-234 -308,-366 -52,-188 -54,-223 -17,-383 33,-147 81,-237 181,-343 135,-143 294,-196 504,-170 143,17 235,67 361,192 90,90 97,100 97,137 0,43 -11,57 -53,64 -24,5 -38,-5 -102,-67 -162,-159 -352,-203 -522,-120 -102,49 -161,122 -210,260 -26,73 -28,91 -27,215 0,125 3,141 31,216 32,87 94,179 143,214 16,12 58,33 93,47 81,33 183,29 267,-10 85,-40 122,-82 209,-236 24,-43 42,-63 63,-70 49,-17 88,16 88,75 0,36 -79,335 -93,352 -6,7 -23,20 -38,27 -24,13 -32,12 -75,-6 l -47,-21 -91,31 c -89,30 -186,44 -236,35 z"
         id="path1661"
         style="fill:#00295c;fill-opacity:1" />
      <path
         d="m 13267,5102 c -20,-21 -30,-46 -39,-92 -14,-84 -52,-135 -126,-175 -64,-34 -87,-69 -77,-115 8,-37 31,-50 84,-50 30,0 43,-5 51,-19 6,-12 10,-119 10,-279 0,-339 0,-341 64,-409 44,-47 59,-56 111,-69 76,-17 155,-6 225,32 63,34 79,53 87,97 4,29 1,38 -19,51 -22,14 -28,14 -88,-10 -70,-29 -135,-28 -156,1 -27,37 -33,556 -6,587 8,11 39,17 100,20 49,3 98,10 109,16 27,15 35,59 17,94 -16,30 -39,37 -149,41 l -70,2 -12,35 c -7,19 -12,78 -12,131 -1,103 -9,124 -51,134 -19,5 -32,-1 -53,-23 z"
         id="path1663"
         style="fill:#00295c;fill-opacity:1" />
      <path
         d="m 19123,5111 c -11,-10 -32,-58 -47,-105 -33,-102 -50,-126 -123,-169 -31,-17 -65,-44 -76,-59 -20,-26 -20,-30 -5,-62 13,-27 24,-34 55,-39 81,-13 77,0 83,-324 6,-321 5,-316 82,-399 46,-50 84,-64 174,-64 111,0 215,52 234,117 9,35 8,40 -14,60 l -25,21 -58,-24 c -32,-13 -69,-24 -83,-24 -37,0 -88,35 -97,67 -4,15 -8,141 -8,279 0,198 3,254 14,267 10,13 30,17 84,17 38,0 97,5 131,11 48,8 70,8 101,-3 45,-15 65,-45 116,-173 18,-44 76,-184 130,-311 69,-161 99,-244 99,-270 0,-44 -55,-171 -95,-221 -32,-40 -85,-53 -118,-29 -67,50 -113,76 -133,76 -34,0 -82,-46 -90,-86 -9,-47 9,-85 59,-125 41,-33 44,-34 137,-34 111,0 134,10 219,89 44,41 65,73 109,166 30,63 60,131 68,150 7,19 27,68 43,108 72,169 94,222 127,307 19,50 43,108 53,130 10,22 24,56 31,75 6,19 24,57 38,85 22,40 35,53 68,65 56,20 74,38 74,69 -1,60 -30,71 -197,71 -76,0 -148,-3 -160,-6 -12,-3 -27,-19 -34,-35 -17,-42 1,-75 50,-95 22,-8 42,-22 45,-30 3,-8 -8,-49 -25,-92 -60,-152 -109,-268 -130,-301 l -21,-35 -19,25 c -10,13 -25,42 -33,64 -8,22 -40,101 -70,175 -31,74 -56,143 -56,152 0,10 16,26 40,38 22,11 47,31 56,44 14,22 14,27 0,54 -8,16 -26,32 -40,36 -13,3 -155,5 -314,5 -314,-1 -340,2 -353,51 -4,14 -7,71 -8,126 -1,105 -5,115 -47,128 -13,4 -27,-1 -41,-13 z"
         id="path1665"
         style="fill:#00295c;fill-opacity:1" />
      <path
         d="m 7235,4826 c -112,-38 -201,-105 -261,-196 -40,-60 -74,-176 -74,-252 0,-185 122,-396 265,-459 105,-46 285,-45 378,3 70,35 172,146 212,229 35,73 35,74 35,210 0,134 -1,138 -34,210 -46,101 -127,188 -214,231 -60,30 -76,33 -167,35 -64,2 -115,-2 -140,-11 z m 180,-147 c 34,-9 52,-22 80,-57 20,-25 38,-58 41,-72 3,-14 12,-52 20,-85 8,-33 15,-76 16,-95 2,-58 -41,-239 -65,-272 -32,-44 -86,-68 -153,-68 -80,0 -140,34 -179,103 l -30,52 v 170 c 0,167 0,171 27,215 63,105 133,137 243,109 z"
         id="path1667"
         style="fill:#00295c;fill-opacity:1" />
      <path
         d="m 8060,4816 c -25,-13 -66,-26 -92,-30 -34,-5 -53,-15 -68,-33 -39,-50 -15,-123 40,-123 16,0 41,-5 55,-12 l 25,-11 v -256 -255 l -27,-28 c -17,-17 -37,-28 -54,-28 -34,0 -59,-32 -59,-76 0,-60 14,-64 237,-64 181,0 201,2 216,18 37,41 12,115 -43,127 -57,13 -65,39 -68,238 -2,98 -1,199 3,223 9,60 64,113 148,142 88,31 120,29 165,-12 l 37,-34 3,-251 3,-251 -25,-25 c -14,-14 -39,-28 -56,-32 -55,-10 -78,-73 -44,-121 15,-21 20,-22 213,-22 179,0 199,2 214,18 36,39 11,122 -35,122 -9,0 -26,9 -39,19 -23,19 -24,24 -27,208 -5,244 0,283 40,322 17,17 62,42 101,57 90,34 140,30 179,-18 l 27,-33 1,-251 c 0,-281 4,-267 -75,-300 -22,-9 -43,-21 -47,-28 -12,-18 -9,-91 4,-104 9,-9 69,-12 209,-12 183,0 198,1 223,21 49,39 18,119 -47,119 -18,0 -32,9 -44,27 -16,24 -19,62 -24,298 -6,300 -9,318 -71,384 -60,62 -118,86 -213,86 -69,0 -89,-5 -148,-33 -38,-17 -82,-43 -97,-56 -32,-26 -72,-25 -93,3 -21,28 -80,67 -121,81 -61,20 -170,9 -236,-25 -30,-15 -62,-34 -71,-41 -23,-21 -56,-5 -77,36 -15,30 -22,35 -57,37 -26,2 -56,-6 -85,-21 z"
         id="path1669"
         style="fill:#00295c;fill-opacity:1" />
      <path
         d="m 9828,4817 c -115,-49 -193,-125 -249,-243 -33,-68 -33,-71 -34,-214 v -145 l 37,-70 c 20,-38 52,-88 71,-111 44,-50 147,-120 201,-136 52,-15 212,-14 251,1 90,36 235,168 235,215 0,26 -32,56 -60,56 -9,0 -50,-25 -90,-55 -40,-30 -74,-55 -75,-55 -1,0 -27,-5 -59,-11 -89,-16 -160,2 -208,55 -21,22 -43,57 -48,76 -46,179 -47,213 -7,224 12,3 127,6 255,6 184,0 240,3 268,15 l 36,15 -4,68 c -3,58 -9,78 -45,138 -25,42 -61,85 -92,109 -87,69 -113,78 -225,82 -89,3 -108,1 -158,-20 z m 236,-148 c 13,-6 30,-26 39,-44 15,-31 14,-34 -2,-49 -14,-13 -42,-16 -144,-16 -116,0 -127,2 -137,20 -9,16 -5,26 22,56 19,20 49,39 68,44 40,10 120,4 154,-11 z"
         id="path1671"
         style="fill:#00295c;fill-opacity:1" />
      <path
         d="m 10614,4816 c -28,-13 -69,-27 -91,-31 -45,-7 -78,-36 -88,-77 -10,-38 31,-78 78,-78 65,0 67,-7 67,-282 0,-278 -1,-283 -79,-307 -70,-21 -93,-82 -45,-120 25,-20 40,-21 223,-21 227,0 241,4 241,70 0,41 -26,70 -61,70 -10,0 -32,12 -49,26 l -31,27 3,221 c 3,214 4,222 27,252 45,62 129,78 241,47 45,-13 101,5 117,38 7,13 13,43 13,66 0,33 -6,48 -30,71 -64,65 -161,67 -259,7 -32,-19 -67,-35 -78,-35 -12,0 -29,15 -44,38 -20,31 -30,37 -64,40 -26,1 -58,-6 -91,-22 z"
         id="path1673"
         style="fill:#00295c;fill-opacity:1" />
      <path
         d="m 11459,4827 c -175,-65 -250,-248 -154,-373 48,-63 113,-99 345,-190 142,-56 172,-84 162,-152 -7,-50 -64,-76 -153,-70 -108,8 -160,41 -285,182 -46,52 -79,59 -111,24 -34,-38 -34,-43 -4,-136 59,-179 100,-229 161,-197 36,19 63,19 98,1 80,-41 238,-39 321,3 99,52 181,167 181,256 0,49 -44,130 -93,171 -71,59 -121,84 -281,140 -83,29 -152,68 -166,94 -15,27 -12,66 5,80 24,20 95,29 148,19 71,-13 131,-59 174,-135 36,-61 39,-64 76,-64 27,0 45,7 62,25 30,29 31,47 6,101 -10,23 -22,64 -26,93 -7,53 -40,105 -73,115 -10,3 -38,0 -62,-7 -41,-12 -48,-11 -79,7 -44,26 -197,33 -252,13 z"
         id="path1675"
         style="fill:#00295c;fill-opacity:1" />
      <path
         d="m 12450,4831 c -122,-42 -246,-160 -295,-282 -28,-68 -30,-83 -29,-194 0,-117 1,-122 37,-199 45,-97 138,-191 236,-239 60,-29 71,-31 170,-31 102,0 108,1 166,33 78,44 195,157 195,189 0,63 -60,84 -109,38 -61,-56 -130,-94 -184,-100 -96,-12 -158,7 -214,66 -27,28 -36,49 -53,133 -24,123 -24,121 0,145 19,19 33,20 280,20 h 260 l 16,25 c 26,40 13,131 -31,209 -36,64 -117,140 -185,173 -39,19 -218,28 -260,14 z m 216,-172 c 36,-33 49,-66 34,-84 -19,-23 -272,-22 -295,1 -15,15 -14,19 7,43 12,14 26,30 29,34 31,40 185,43 225,6 z"
         id="path1677"
         style="fill:#00295c;fill-opacity:1" />
      <path
         d="m 15875,4826 c -79,-27 -122,-56 -186,-123 -112,-119 -153,-246 -132,-411 13,-96 65,-214 121,-268 92,-90 134,-114 233,-131 194,-33 331,22 449,183 29,39 45,76 64,150 32,121 32,149 2,269 -38,148 -110,241 -236,306 -60,31 -73,34 -170,36 -69,2 -119,-2 -145,-11 z m 187,-146 c 38,-11 94,-65 125,-122 15,-28 18,-58 18,-193 v -160 l -34,-66 c -28,-55 -42,-70 -78,-88 -87,-42 -203,-16 -256,60 -43,60 -73,212 -58,299 18,114 39,166 84,215 54,60 117,77 199,55 z"
         id="path1679"
         style="fill:#00295c;fill-opacity:1" />
      <path
         d="m 16580,4830 c -63,-13 -87,-28 -99,-61 -16,-46 18,-78 92,-88 32,-4 63,-13 70,-20 9,-9 13,-88 15,-283 l 4,-270 33,-62 c 65,-118 169,-174 298,-160 102,11 155,30 276,102 20,12 23,10 41,-33 26,-60 48,-68 186,-63 133,5 164,19 164,71 0,47 -18,65 -77,79 -38,9 -55,19 -62,36 -7,15 -11,147 -11,370 0,191 -4,353 -8,360 -30,47 -295,41 -348,-9 -32,-30 -35,-53 -9,-85 19,-24 32,-29 81,-34 83,-7 84,-9 84,-273 v -219 l -32,-32 c -49,-48 -186,-99 -265,-98 -71,1 -80,4 -119,51 l -29,35 -5,328 c -4,294 -7,329 -23,345 -13,14 -37,18 -115,20 -53,1 -117,-2 -142,-7 z"
         id="path1681"
         style="fill:#00295c;fill-opacity:1" />
      <path
         d="m 17912,4820 c -19,-12 -57,-25 -85,-31 -88,-16 -122,-57 -101,-118 8,-21 19,-28 59,-36 28,-5 56,-14 63,-18 15,-10 18,-518 2,-546 -5,-11 -26,-21 -47,-24 -59,-10 -83,-32 -83,-75 0,-68 -3,-67 227,-70 235,-3 256,2 261,55 5,48 -11,67 -71,86 -30,10 -58,25 -62,35 -12,26 -18,391 -8,437 12,52 76,99 175,126 96,27 131,26 177,-4 33,-22 39,-32 45,-73 10,-75 7,-463 -4,-484 -5,-10 -27,-24 -47,-31 -70,-23 -84,-37 -81,-83 5,-61 20,-66 240,-66 201,0 234,6 245,47 10,41 -12,71 -71,97 -29,13 -57,30 -62,37 -5,8 -11,140 -14,294 l -5,281 -36,49 c -19,28 -61,68 -93,90 -58,40 -58,40 -154,40 -105,-1 -146,-14 -244,-76 -26,-17 -52,-28 -57,-24 -6,3 -13,21 -17,41 -3,19 -16,41 -27,49 -30,21 -86,18 -125,-5 z"
         id="path1683"
         style="fill:#00295c;fill-opacity:1" />
      <path
         d="m 8417,3184 c -27,-14 -72,-28 -100,-31 -62,-7 -86,-31 -87,-84 0,-42 15,-59 53,-59 30,0 67,-16 79,-34 4,-6 8,-223 8,-482 v -470 l -29,-28 c -28,-27 -35,-28 -139,-32 -97,-4 -112,-3 -133,15 l -24,19 -5,284 -5,283 -28,47 c -16,26 -53,68 -82,93 -78,67 -172,82 -364,57 -106,-14 -168,-53 -244,-153 -22,-29 -27,-46 -27,-93 0,-50 4,-61 29,-87 44,-43 93,-41 137,8 19,20 34,45 34,55 0,74 87,147 174,148 94,0 158,-58 171,-156 8,-65 1,-70 -103,-83 -45,-6 -91,-15 -101,-20 -10,-6 -51,-16 -92,-22 -95,-15 -175,-56 -243,-127 -50,-52 -55,-62 -61,-114 -11,-94 0,-130 61,-196 54,-59 83,-74 176,-92 80,-15 248,32 327,92 36,27 60,22 100,-23 29,-33 49,-44 103,-59 62,-17 72,-17 135,-3 37,8 73,14 78,13 6,-1 110,-4 232,-7 195,-4 225,-2 248,13 51,34 23,99 -48,111 -74,12 -71,-12 -77,629 -5,545 -6,573 -24,593 -25,28 -69,26 -129,-5 z m -587,-943 c 30,-56 -2,-154 -60,-183 -14,-7 -37,-20 -51,-30 -51,-34 -183,-41 -250,-14 -17,7 -29,47 -29,92 0,28 55,94 79,94 9,0 35,9 56,21 35,18 104,30 222,38 13,0 27,-7 33,-18 z"
         id="path1685"
         style="fill:#00295c;fill-opacity:1" />
      <path
         d="m 9617,3184 c -27,-14 -71,-28 -99,-31 -42,-5 -53,-11 -69,-37 -40,-64 -14,-107 74,-121 29,-5 40,-12 48,-32 6,-16 9,-198 7,-477 l -3,-451 -23,-32 c -13,-18 -32,-33 -43,-33 -11,0 -33,-7 -49,-15 -24,-13 -30,-22 -30,-50 0,-60 18,-65 233,-65 224,0 257,8 257,63 0,36 -17,50 -76,62 -22,4 -37,16 -48,38 -15,28 -17,60 -14,255 l 3,224 39,31 c 63,51 171,90 233,85 33,-3 61,-12 74,-24 44,-39 49,-69 49,-317 0,-218 -1,-236 -20,-260 -12,-14 -35,-28 -57,-32 -51,-9 -63,-21 -63,-61 0,-59 18,-64 240,-64 221,0 243,5 248,59 4,37 -14,56 -64,65 -17,4 -40,16 -50,27 -17,19 -19,45 -24,298 l -5,277 -35,58 c -73,121 -163,159 -326,138 -81,-10 -101,-17 -144,-47 -57,-40 -61,-41 -83,-17 -13,15 -16,53 -19,246 -3,226 -3,228 -27,247 -32,26 -77,24 -134,-7 z"
         id="path1687"
         style="fill:#00295c;fill-opacity:1" />
      <path
         d="m 4956,3123 c -14,-15 -26,-36 -26,-46 0,-26 54,-77 82,-77 55,-1 53,20 56,-495 2,-414 1,-479 -13,-505 -9,-18 -23,-30 -36,-30 -11,0 -37,-9 -58,-19 -34,-18 -37,-23 -33,-51 8,-54 35,-60 257,-60 226,0 265,9 265,61 0,33 -26,53 -82,63 -61,11 -68,35 -68,236 0,126 4,180 14,205 l 15,35 h 238 c 131,0 243,-4 249,-8 29,-19 34,-56 34,-234 0,-208 -4,-221 -77,-234 -46,-8 -73,-30 -73,-58 1,-59 30,-66 257,-66 216,0 240,5 256,53 11,35 -3,53 -54,69 -22,6 -51,22 -64,36 l -25,25 v 452 c 0,301 4,462 11,483 8,24 20,34 47,42 59,16 82,37 82,75 0,24 -7,39 -26,54 -25,20 -40,21 -220,21 -106,0 -204,-4 -217,-9 -28,-11 -42,-42 -38,-81 3,-32 23,-47 72,-55 64,-11 69,-26 69,-216 v -166 l -25,-11 c -17,-8 -103,-12 -259,-12 -213,0 -234,2 -249,18 -14,16 -17,42 -16,163 2,206 3,209 93,236 19,5 34,19 42,39 11,27 10,33 -11,60 l -23,29 -210,3 -210,3 z"
         id="path1689"
         style="fill:#00295c;fill-opacity:1" />
      <path
         d="m 11207,3143 c -27,-7 -47,-55 -38,-89 6,-24 17,-32 66,-49 46,-16 61,-26 66,-45 4,-14 7,-230 8,-481 l 1,-457 -35,-31 c -20,-17 -44,-31 -53,-31 -31,0 -62,-29 -62,-59 0,-56 -2,-56 429,-55 h 396 l 57,27 c 31,15 60,27 64,27 4,0 29,14 56,31 65,42 153,129 173,171 8,18 22,44 29,58 57,101 61,125 61,315 0,202 8,167 -86,359 -35,71 -160,199 -216,222 -21,9 -45,22 -53,29 -8,7 -69,24 -136,39 -116,25 -131,26 -415,25 -162,-1 -302,-3 -312,-6 z m 683,-179 c 126,-36 176,-78 247,-204 21,-38 33,-75 38,-120 3,-36 11,-80 17,-99 16,-50 -15,-250 -47,-314 -14,-26 -25,-53 -25,-60 0,-28 -64,-98 -118,-128 l -57,-32 -180,-4 c -114,-3 -190,-1 -207,6 l -28,11 v 472 c 0,260 4,478 8,484 13,21 37,23 152,18 77,-4 143,-14 200,-30 z"
         id="path1691"
         style="fill:#00295c;fill-opacity:1" />
      <path
         d="m 9003,3048 c -6,-7 -13,-26 -17,-43 -30,-126 -78,-195 -171,-244 -54,-28 -72,-60 -61,-104 7,-31 31,-45 89,-55 l 42,-8 6,-284 c 5,-265 7,-289 28,-336 31,-71 82,-116 163,-144 l 68,-24 72,23 c 40,13 90,34 110,47 21,13 43,24 50,24 35,1 39,16 19,63 -18,42 -23,47 -53,47 -18,0 -53,-9 -77,-20 -63,-29 -101,-26 -137,11 l -29,30 -3,271 c -2,195 0,274 9,284 8,10 34,14 83,14 130,0 156,16 156,96 0,47 -21,57 -118,61 -144,6 -132,-5 -132,131 0,136 -10,165 -56,170 -17,2 -35,-3 -41,-10 z"
         id="path1693"
         style="fill:#00295c;fill-opacity:1" />
      <path
         d="m 16567,3046 c -7,-8 -26,-51 -41,-97 -15,-45 -36,-94 -47,-107 -28,-36 -86,-75 -148,-100 -50,-21 -55,-21 -72,-6 -10,9 -43,22 -74,29 -48,12 -64,11 -113,-3 -31,-8 -69,-26 -84,-38 -42,-34 -69,-40 -81,-18 -6,11 -23,32 -39,47 -33,33 -50,32 -163,-13 -38,-15 -85,-31 -103,-34 -52,-12 -70,-68 -33,-105 11,-11 39,-25 63,-31 24,-6 49,-19 56,-28 9,-12 12,-81 12,-267 0,-248 0,-252 -22,-272 -41,-37 -65,-43 -166,-43 -93,0 -100,1 -123,26 -24,25 -24,27 -29,297 -5,270 -5,272 -32,322 -27,51 -58,85 -115,123 -36,26 -183,56 -227,48 -17,-3 -67,-10 -110,-16 -82,-10 -123,-30 -189,-89 -111,-100 -91,-287 29,-268 47,8 66,26 93,90 40,92 45,99 91,123 59,31 110,31 171,-2 55,-30 79,-75 79,-149 0,-50 1,-50 -106,-65 -40,-5 -84,-14 -98,-20 -15,-5 -56,-14 -92,-20 -84,-14 -156,-50 -222,-114 -42,-41 -57,-63 -72,-114 -18,-59 -19,-66 -4,-109 18,-53 85,-138 126,-159 15,-8 52,-20 82,-28 51,-14 65,-13 155,4 71,14 119,30 174,60 l 76,41 45,-41 c 70,-64 187,-88 275,-56 25,9 51,10 90,4 31,-5 142,-8 247,-6 215,3 227,7 222,66 -3,33 -6,37 -61,55 -34,11 -62,27 -70,40 -8,16 -12,87 -12,249 v 227 l 33,33 c 17,19 55,42 82,52 47,17 53,17 90,2 66,-26 125,-21 176,15 39,29 48,31 95,26 29,-4 57,-11 63,-17 7,-7 13,-116 16,-308 5,-296 5,-297 30,-332 41,-59 80,-89 148,-117 l 66,-26 75,22 c 42,12 93,33 113,47 49,31 70,30 106,-6 l 30,-30 h 205 c 185,0 205,2 220,18 36,39 15,98 -38,108 -22,4 -43,17 -60,39 l -25,34 v 218 218 l 36,38 c 19,20 41,37 49,37 7,0 27,11 44,25 27,24 37,26 108,23 l 78,-3 23,-45 c 21,-42 22,-55 22,-279 v -234 l -26,-34 c -14,-18 -33,-33 -42,-33 -36,0 -62,-29 -62,-69 0,-20 5,-42 12,-49 9,-9 70,-12 213,-12 186,0 203,2 219,19 21,23 18,80 -4,92 -8,4 -27,10 -42,13 -16,4 -35,20 -47,40 -20,31 -21,48 -21,254 v 220 l 26,31 c 14,16 49,44 78,61 45,25 64,30 122,30 38,0 74,-4 81,-8 7,-4 19,-24 28,-45 12,-29 15,-83 15,-280 v -243 l -28,-27 c -15,-15 -35,-27 -44,-27 -8,0 -27,-10 -42,-21 -23,-18 -26,-26 -21,-53 12,-54 21,-56 229,-56 225,0 241,5 241,65 0,39 -1,40 -47,55 -82,26 -82,25 -89,345 -3,166 -10,290 -16,305 -6,14 -36,50 -66,82 -48,49 -62,58 -113,68 -121,25 -272,-9 -335,-76 -32,-35 -59,-30 -114,21 -40,36 -63,47 -120,61 -66,16 -75,16 -145,0 -41,-10 -82,-23 -90,-31 -8,-7 -36,-23 -62,-34 l -46,-20 -7,27 c -11,44 -34,72 -59,72 -13,0 -57,-14 -97,-31 -41,-17 -91,-34 -111,-39 -47,-9 -64,-23 -71,-56 -6,-35 35,-84 72,-84 15,0 37,-9 49,-20 21,-20 22,-27 22,-263 0,-284 -5,-304 -76,-322 -23,-5 -49,-16 -58,-24 -14,-12 -18,-8 -36,33 -22,52 -24,52 -125,15 -66,-25 -104,-23 -140,6 l -30,25 -3,270 c -2,168 1,277 7,288 9,16 25,20 110,24 60,3 106,10 116,18 10,8 15,30 15,66 0,68 -10,74 -132,74 -60,0 -98,4 -106,12 -8,8 -12,53 -12,138 0,85 -4,130 -12,138 -16,16 -63,15 -81,-2 z m -1433,-802 c 22,-8 22,-106 0,-143 -10,-16 -46,-43 -88,-64 -64,-34 -78,-37 -152,-37 -50,0 -87,5 -98,13 -25,18 -32,93 -13,139 13,31 23,39 59,48 24,7 48,16 55,22 6,5 24,13 40,18 33,10 174,13 197,4 z"
         id="path1695"
         style="fill:#00295c;fill-opacity:1" />
      <path
         d="m 20934,3035 c -23,-35 -43,-95 -44,-129 0,-37 -90,-128 -150,-152 -33,-13 -41,-22 -46,-52 -11,-56 11,-85 71,-95 27,-4 55,-13 62,-19 10,-8 13,-75 13,-288 0,-153 3,-291 6,-308 3,-17 27,-53 53,-81 61,-66 153,-104 221,-91 69,13 130,38 169,67 45,34 51,42 51,73 0,53 -45,64 -125,30 -60,-26 -99,-25 -136,1 l -29,21 2,291 3,292 104,6 c 85,5 107,10 118,25 19,26 20,100 2,119 -5,5 -57,11 -117,15 l -107,5 -6,132 c -6,146 -12,163 -65,163 -25,0 -38,-7 -50,-25 z"
         id="path1697"
         style="fill:#00295c;fill-opacity:1" />
      <path
         d="m 6656,2764 c -81,-16 -125,-43 -204,-123 -65,-66 -107,-142 -122,-220 -23,-122 -3,-285 45,-367 14,-24 59,-76 99,-117 72,-71 76,-73 170,-100 118,-33 125,-33 226,-1 80,25 128,57 223,147 60,58 47,117 -27,117 -14,0 -45,-18 -76,-44 -55,-47 -156,-86 -221,-86 -47,0 -130,45 -157,84 -30,44 -58,133 -67,213 -7,61 -6,63 20,73 15,6 133,10 281,10 157,0 263,4 275,10 26,15 27,102 0,146 -10,17 -22,41 -26,55 -13,44 -56,96 -117,145 -62,49 -75,53 -208,68 -25,2 -76,-2 -114,-10 z m 185,-155 c 22,-11 41,-31 49,-50 22,-52 0,-61 -146,-57 -141,4 -163,13 -139,58 13,26 57,53 114,71 32,9 75,2 122,-22 z"
         id="path1699"
         style="fill:#00295c;fill-opacity:1" />
      <path
         d="m 12880,2764 c -36,-8 -83,-27 -105,-42 -66,-45 -138,-127 -175,-199 l -35,-68 v -160 c 1,-165 2,-172 49,-254 44,-74 163,-173 241,-199 100,-34 141,-36 230,-12 95,25 150,58 229,139 50,50 58,63 52,85 -3,14 -19,32 -34,40 -33,17 -45,12 -115,-47 -47,-39 -117,-65 -199,-74 -36,-4 -59,0 -91,16 -93,45 -140,136 -141,271 l -1,85 285,5 c 157,3 291,9 298,13 21,14 14,97 -13,152 -13,28 -25,56 -25,62 0,17 -60,83 -123,135 -40,34 -61,44 -106,50 -119,16 -158,16 -221,2 z m 183,-149 c 43,-20 58,-33 66,-58 18,-50 -1,-57 -150,-57 -138,0 -157,7 -145,55 7,26 43,50 111,71 55,17 55,17 118,-11 z"
         id="path1701"
         style="fill:#00295c;fill-opacity:1" />
      <path
         d="m 13665,2764 c -22,-7 -51,-20 -65,-28 -14,-8 -43,-17 -65,-21 -72,-13 -95,-32 -95,-77 0,-30 36,-60 85,-72 58,-14 55,8 55,-487 0,-476 -3,-509 -41,-509 -10,0 -37,-7 -59,-16 -43,-17 -50,-36 -26,-70 13,-17 30,-19 208,-22 228,-4 251,-1 267,34 15,35 -5,59 -58,68 -20,3 -47,16 -60,30 -22,23 -23,30 -19,149 1,69 6,129 10,133 4,4 13,2 20,-3 18,-14 181,-63 210,-63 13,0 49,9 81,20 31,11 62,20 70,20 15,0 123,77 149,106 41,48 98,165 108,226 6,34 14,80 19,101 12,52 -21,219 -55,269 -13,21 -24,42 -24,47 0,17 -52,72 -107,112 -98,73 -257,79 -387,14 -39,-19 -74,-35 -77,-35 -4,0 -12,14 -19,30 -14,34 -46,60 -70,59 -8,0 -33,-7 -55,-15 z m 466,-191 c 19,-14 48,-47 64,-72 l 30,-46 v -161 c -1,-177 6,-152 -72,-253 -15,-19 -45,-36 -89,-50 l -66,-23 -69,22 c -73,24 -89,38 -122,112 -14,29 -17,68 -17,210 v 174 l 33,31 c 60,57 123,83 203,83 61,0 75,-4 105,-27 z"
         id="path1703"
         style="fill:#00295c;fill-opacity:1" />
      <path
         d="m 18975,2763 c -115,-25 -213,-108 -280,-240 l -40,-78 v -145 -145 l 37,-75 c 26,-54 55,-93 100,-136 83,-80 97,-87 205,-115 91,-23 93,-23 160,-6 103,28 146,52 229,132 65,63 75,76 69,97 -20,64 -65,66 -135,3 -28,-25 -63,-47 -78,-51 -15,-3 -45,-12 -67,-20 -59,-20 -109,-17 -164,11 -65,33 -87,66 -116,177 -27,104 -31,148 -13,166 9,9 83,12 269,12 143,0 269,4 283,10 24,9 26,14 26,68 0,47 -7,73 -39,138 -59,121 -127,175 -252,198 -100,19 -102,19 -194,-1 z m 180,-151 c 57,-31 87,-74 67,-94 -20,-20 -261,-24 -287,-5 -18,14 -18,17 -5,42 15,29 51,51 115,71 54,17 53,17 110,-14 z"
         id="path1705"
         style="fill:#00295c;fill-opacity:1" />
      <path
         d="m 19750,2759 c -30,-9 -68,-24 -85,-33 -16,-9 -39,-16 -50,-16 -30,0 -62,-26 -69,-56 -9,-33 21,-68 73,-85 20,-6 42,-16 49,-22 18,-14 17,-525 -2,-549 -7,-10 -32,-25 -56,-33 -24,-8 -49,-20 -57,-26 -22,-19 -15,-56 14,-79 26,-21 36,-21 234,-18 232,3 242,6 237,67 -3,33 -7,37 -50,51 -91,29 -88,21 -88,286 v 233 l 43,34 c 81,64 116,80 199,85 l 77,5 36,-36 35,-35 v -260 -261 l -24,-19 c -14,-10 -45,-27 -70,-36 -42,-16 -46,-21 -46,-52 0,-57 27,-64 249,-64 222,0 241,5 241,60 0,42 -11,55 -55,64 -16,4 -41,15 -55,26 l -25,19 -5,288 -5,288 -37,56 c -47,72 -101,108 -185,126 -61,13 -76,13 -148,-2 -47,-10 -99,-29 -125,-45 -25,-16 -57,-32 -73,-35 -24,-7 -28,-4 -33,23 -12,61 -59,77 -144,51 z"
         id="path1707"
         style="fill:#00295c;fill-opacity:1" />
    </g>
  </g>
</svg>
